# awd2obj de C:\Source\MexOrbit\MexOrbit.CMS\public\spacemap\3d\meshes\asset-mmo-miningstation-a.awd
o geometry
v 14.125000 -30.325600 -103.019096
v 0.412500 -30.259199 -95.187698
v 11.293100 -30.542900 -107.291397
v -2.684900 -30.259199 -99.261703
v -8.461100 -30.471500 -86.404800
v -21.811899 -30.408600 -78.427299
v -11.285400 -30.675900 -90.315300
v -24.878300 -30.408600 -82.141197
v 73.105003 -20.436501 -50.217701
v 90.595497 -20.436501 -50.217701
v 73.105003 -50.229401 -50.217701
v 90.595497 -50.229401 -50.217701
v 90.595497 -20.436501 -68.168297
v 73.105003 -20.436501 -68.168297
v 90.595497 -50.229401 -68.168297
v 73.105003 -50.229401 -68.168297
v 90.595497 -20.436501 -50.217701
v 90.595497 -20.436501 -68.168297
v 90.595497 -50.229401 -50.217701
v 90.595497 -50.229401 -68.168297
v 73.105003 -50.229401 -50.217701
v 90.595497 -50.229401 -50.217701
v 73.105003 -50.229401 -68.168297
v 90.595497 -50.229401 -68.168297
v 73.105003 -20.436501 -50.217701
v 73.105003 -50.229401 -50.217701
v 73.105003 -20.436501 -68.168297
v 73.105003 -50.229401 -68.168297
v 90.595497 -20.436501 -68.168297
v 90.595497 -20.436501 -50.217701
v 73.105003 -20.436501 -68.168297
v 73.105003 -20.436501 -50.217701
v 5.148500 -20.606300 -34.247101
v 5.148500 -20.606300 -18.037500
v 5.148500 -50.059502 -34.247101
v 5.148500 -50.059502 -18.037500
v 22.924400 -20.606300 -18.037500
v 22.924400 -20.606300 -34.247101
v 22.924400 -50.059502 -18.037500
v 22.924400 -50.059502 -34.247101
v 5.148500 -20.606300 -18.037500
v 22.924400 -20.606300 -18.037500
v 5.148500 -50.059502 -18.037500
v 22.924400 -50.059502 -18.037500
v 5.148500 -50.059502 -34.247101
v 5.148500 -50.059502 -18.037500
v 22.924400 -50.059502 -34.247101
v 22.924400 -50.059502 -18.037500
v 5.148500 -20.606300 -34.247101
v 5.148500 -50.059502 -34.247101
v 22.924400 -20.606300 -34.247101
v 22.924400 -50.059502 -34.247101
v 22.924400 -20.606300 -18.037500
v 5.148500 -20.606300 -18.037500
v 22.924400 -20.606300 -34.247101
v 5.148500 -20.606300 -34.247101
v 74.250099 -26.925100 -52.872002
v 74.250099 -41.845501 -52.872002
v 44.499401 -26.925100 -52.872002
v 44.499401 -41.845501 -52.872002
v 74.250099 -41.845501 -52.872002
v 74.250099 -41.845501 -65.495697
v 44.499401 -41.845501 -52.872002
v 44.499401 -41.845501 -65.495697
v 74.250099 -41.845501 -65.495697
v 74.250099 -26.925100 -65.495697
v 44.499401 -41.845501 -65.495697
v 44.499401 -26.925100 -65.495697
v 74.250099 -26.925100 -65.495697
v 74.250099 -26.925100 -52.872002
v 44.499401 -26.925100 -65.495697
v 44.499401 -26.925100 -52.872002
v 11.569200 73.112801 4.817000
v 11.569200 73.112801 -43.567402
v 11.569200 59.158100 4.817000
v 11.569200 59.158100 -43.567402
v -69.969398 38.843498 -48.474098
v -76.469498 44.095501 -48.474098
v -69.969398 38.843498 -78.307503
v -76.469498 44.095501 -78.307503
v -16.007601 69.812202 -41.991901
v -22.089600 59.277802 -41.991901
v -67.759102 99.690903 -41.991901
v -73.841103 89.156502 -41.991901
v 10.243200 85.379501 138.958099
v 31.658600 79.299004 140.440094
v 10.243300 85.379501 169.626099
v 31.658600 79.299004 168.198105
v 10.243200 68.942299 138.958099
v 10.243300 68.942299 169.626099
v 25.497900 67.649902 140.440002
v 25.497900 67.649902 168.198105
v 25.497900 67.649902 168.198105
v 10.243300 68.942299 169.626099
v 31.658600 79.299004 168.198105
v 10.243300 85.379501 169.626099
v 10.243200 85.379501 138.958099
v 10.243300 85.379501 169.626099
v 10.243200 68.942299 138.958099
v 10.243300 68.942299 169.626099
v 31.658600 79.299004 140.440094
v 10.243200 85.379501 138.958099
v 25.497900 67.649902 140.440002
v 10.243200 68.942299 138.958099
v 48.558899 63.045799 139.051895
v 48.558899 63.045799 169.577103
v 34.500198 54.905102 169.577103
v 34.500198 54.905102 139.051895
v 48.558899 63.045799 169.577103
v 34.500198 54.905102 169.577103
v 48.558899 63.045799 139.051895
v 34.500198 54.905102 139.051895
v 48.558899 63.045799 169.577103
v 48.558899 63.045799 139.051895
v 34.500198 54.905102 169.577103
v 34.500198 54.905102 139.051895
v 42.385300 59.663799 145.512497
v 46.916901 62.280102 145.512497
v 52.270302 42.542500 145.512497
v 56.801899 45.158798 145.512497
v 11.326600 83.219398 6.333200
v 12.127300 73.148499 6.333200
v -24.820400 83.219398 6.333200
v -24.820400 73.148499 6.333200
v -73.950897 55.038300 -33.040699
v -74.092201 55.184898 -49.338001
v -47.663799 40.079601 -32.952900
v -47.805099 40.226200 -49.414902
v -83.135101 39.143600 -49.283798
v -82.993896 38.997002 -32.977402
v -56.848000 24.184900 -49.360699
v -56.706699 24.038300 -32.889500
v -56.848000 24.184900 -49.360699
v -56.706699 24.038300 -32.889500
v -47.805099 40.226200 -49.414902
v -47.663799 40.079601 -32.952900
v -83.135101 39.143600 -49.283798
v -56.848000 24.184900 -49.360699
v -74.092201 55.184898 -49.338001
v -47.805099 40.226200 -49.414902
v -82.993896 38.997002 -32.977402
v -83.135101 39.143600 -49.283798
v -73.950897 55.038300 -33.040699
v -74.092201 55.184898 -49.338001
v -74.381798 38.266499 -1.347800
v -74.995903 37.556000 -33.151001
v -68.901901 47.789001 -4.127900
v -69.094803 47.557999 -32.919899
v -47.509300 55.590500 11.293000
v -61.699902 30.831900 -1.383400
v -60.996399 63.377300 11.293100
v -74.381798 38.266499 -1.347800
v -60.996399 63.377300 11.293100
v -60.158699 62.688202 2.516100
v -74.995903 37.556000 -33.151001
v -61.023102 29.390800 -33.150799
v -56.649399 40.502800 -4.285500
v -46.518600 54.813099 2.516100
v -68.901901 47.789001 -4.127900
v -60.158699 62.688202 2.516100
v -61.023102 29.390800 -33.150799
v -61.699902 30.831900 -1.383400
v -55.311600 39.502300 -32.919701
v -56.649399 40.502800 -4.285500
v -46.518600 54.813099 2.516100
v -47.509300 55.590500 11.293000
v -69.094803 47.557999 -32.919899
v -55.311600 39.502300 -32.919701
v -11.584700 104.038902 -168.563400
v -11.584700 104.038902 -137.756607
v -2.199700 104.038902 -168.563400
v -2.199700 104.038902 -137.756607
v -44.380199 68.226898 -128.175095
v -44.380199 99.033699 -128.175095
v -34.995098 68.226898 -128.175095
v -34.995098 99.033699 -128.175095
v 5.709500 99.027100 -128.106903
v -3.675500 99.027100 -128.106903
v 5.709500 68.220200 -128.106903
v -3.675500 68.220200 -128.106903
v 10.221000 104.060501 -110.140297
v 10.221000 104.060501 -67.202499
v 21.311899 106.016197 -110.140297
v 21.311899 106.016197 -67.202499
v -90.595497 67.109802 -136.820694
v -74.658600 94.384697 -136.820694
v -83.210403 62.800098 -136.820694
v -67.273499 90.074997 -136.820694
v -23.119200 85.379501 169.661102
v -44.511600 79.442902 167.917206
v -23.119200 85.379501 138.992996
v -44.511600 79.442902 140.159195
v -23.119200 68.942398 169.661102
v -23.119200 68.942398 138.992996
v -38.373798 68.129700 168.179001
v -38.373798 68.129700 140.421005
v -38.373798 68.129700 140.421005
v -23.119200 68.942398 138.992996
v -44.511600 79.442902 140.159195
v -23.119200 85.379501 138.992996
v -23.119200 85.379501 169.661102
v -23.119200 85.379501 138.992996
v -23.119200 68.942398 169.661102
v -23.119200 68.942398 138.992996
v -44.511600 79.442902 167.917206
v -23.119200 85.379501 169.661102
v -38.373798 68.129700 168.179001
v -23.119200 68.942398 169.661102
v -61.434799 63.045799 169.567200
v -61.434799 63.045799 139.042007
v -47.376099 54.905201 139.042007
v -47.376099 54.905201 169.567200
v -61.434799 63.045799 139.042007
v -47.376099 54.905201 139.042007
v -61.434799 63.045799 169.567200
v -47.376099 54.905201 169.567200
v -61.434799 63.045799 139.042007
v -61.434799 63.045799 169.567200
v -47.376099 54.905201 139.042007
v -47.376099 54.905201 169.567200
v 10.243200 85.379501 1.946000
v 31.830999 79.167702 2.979200
v 10.243200 85.379501 32.613998
v 31.830900 79.167702 30.737301
v 10.243200 68.942398 1.946000
v 10.243200 68.942398 32.613998
v 25.497900 68.129700 3.428000
v 25.497900 68.129700 31.186100
v 25.497900 68.129700 31.186100
v 10.243200 68.942398 32.613998
v 31.830900 79.167702 30.737301
v 10.243200 85.379501 32.613998
v 10.243200 85.379501 1.946000
v 10.243200 85.379501 32.613998
v 10.243200 68.942398 1.946000
v 10.243200 68.942398 32.613998
v 31.830999 79.167702 2.979200
v 10.243200 85.379501 1.946000
v 25.497900 68.129700 3.428000
v 10.243200 68.942398 1.946000
v 48.558899 63.045799 2.039900
v 48.558899 63.045799 32.565102
v 34.500198 54.905201 32.565102
v 34.500198 54.905201 2.039900
v 48.558899 63.045799 32.565102
v 34.500198 54.905201 32.565102
v 48.558899 63.045799 2.039900
v 34.500198 54.905201 2.039900
v 48.558899 63.045799 32.565102
v 48.558899 63.045799 2.039900
v 34.500198 54.905201 32.565102
v 34.500198 54.905201 2.039900
v -23.119200 85.379501 32.648998
v -44.395901 79.379402 30.835600
v -23.119200 85.379501 1.981000
v -44.395901 79.379402 3.077600
v -23.119200 68.942398 32.648998
v -23.119200 68.942398 1.981000
v -38.373798 68.129700 31.167000
v -38.373798 68.129700 3.409000
v -38.373798 68.129700 3.409000
v -23.119200 68.942398 1.981000
v -44.395901 79.379402 3.077600
v -23.119200 85.379501 1.981000
v -23.119200 85.379501 32.648998
v -23.119200 85.379501 1.981000
v -23.119200 68.942398 32.648998
v -23.119200 68.942398 1.981000
v -44.395901 79.379402 30.835600
v -23.119200 85.379501 32.648998
v -38.373798 68.129700 31.167000
v -23.119200 68.942398 32.648998
v -61.434799 63.045799 32.555199
v -61.434799 63.045799 2.029900
v -47.376099 54.905201 2.030000
v -47.376099 54.905201 32.555199
v -61.434799 63.045799 2.029900
v -47.376099 54.905201 2.030000
v -61.434799 63.045799 32.555199
v -47.376099 54.905201 32.555199
v -61.434799 63.045799 2.029900
v -61.434799 63.045799 32.555199
v -47.376099 54.905201 2.030000
v -47.376099 54.905201 32.555199
v -55.311600 39.502300 -32.919701
v -69.094803 47.557999 -32.919899
v -47.663799 40.079601 -32.952900
v -73.950897 55.038300 -33.040699
v -82.993896 38.997002 -32.977402
v -74.995903 37.556000 -33.151001
v -61.023102 29.390800 -33.150799
v -56.706699 24.038300 -32.889500
v 33.480598 111.952499 -160.192703
v 49.571301 83.369301 -160.192703
v 26.633400 108.133202 -160.192703
v 42.723999 79.550003 -160.192703
v -2.128000 115.743202 -139.139893
v 19.459700 109.531403 -138.106796
v -2.128000 115.743202 -108.472000
v 19.459700 109.531403 -110.348701
v -2.128000 99.306099 -139.139893
v -2.128000 99.306099 -108.472000
v 13.126600 98.493500 -137.657898
v 13.126600 98.493500 -109.899902
v 13.126600 98.493500 -109.899902
v -2.128000 99.306099 -108.472000
v 19.459700 109.531403 -110.348701
v -2.128000 115.743202 -108.472000
v -2.128000 115.743202 -139.139893
v -2.128000 115.743202 -108.472000
v -2.128000 99.306099 -139.139893
v -2.128000 99.306099 -108.472000
v 19.459700 109.531403 -138.106796
v -2.128000 115.743202 -139.139893
v 13.126600 98.493500 -137.657898
v -2.128000 99.306099 -139.139893
v 36.187599 93.409599 -139.046097
v 36.187599 93.409599 -108.520897
v 22.128901 85.268898 -108.520897
v 22.128901 85.268898 -139.046097
v 36.187599 93.409599 -108.520897
v 22.128901 85.268898 -108.520897
v 36.187599 93.409599 -139.046097
v 22.128901 85.268898 -139.046097
v 36.187599 93.409599 -108.520897
v 36.187599 93.409599 -139.046097
v 22.128901 85.268898 -108.520897
v 22.128901 85.268898 -139.046097
v -35.490398 115.743202 -108.436897
v -56.767200 109.743103 -110.250397
v -35.490398 115.743202 -139.104904
v -56.767101 109.743103 -138.008408
v -35.490398 99.306099 -108.436897
v -35.490398 99.306099 -139.104904
v -50.745098 98.493500 -109.918999
v -50.745098 98.493500 -137.677002
v -50.745098 98.493500 -137.677002
v -35.490398 99.306099 -139.104904
v -56.767101 109.743103 -138.008408
v -35.490398 115.743202 -139.104904
v -35.490398 115.743202 -108.436897
v -35.490398 115.743202 -139.104904
v -35.490398 99.306099 -108.436897
v -35.490398 99.306099 -139.104904
v -56.767200 109.743103 -110.250397
v -35.490398 115.743202 -108.436897
v -50.745098 98.493500 -109.918999
v -35.490398 99.306099 -108.436897
v -73.806000 93.409599 -108.530800
v -73.806000 93.409599 -139.056000
v -59.747299 85.268898 -139.056000
v -59.747299 85.268898 -108.530800
v -73.806000 93.409599 -139.056000
v -59.747299 85.268898 -139.056000
v -73.806000 93.409599 -108.530800
v -59.747299 85.268898 -108.530800
v -73.806000 93.409599 -139.056000
v -73.806000 93.409599 -108.530800
v -59.747299 85.268898 -139.056000
v -59.747299 85.268898 -108.530800
v -90.595398 67.109901 -110.744400
v -74.658501 94.384697 -110.744400
v -83.210403 62.800098 -110.744400
v -67.273499 90.074997 -110.744400
v 0.811300 124.794197 -132.689102
v -4.313500 128.382706 -124.078003
v -0.089200 118.629997 -124.078003
v 9.103600 118.987900 -129.399994
v 9.103600 118.987900 -118.756104
v 0.811300 124.794197 -115.466904
v 0.811300 124.794197 -132.689102
v 0.811300 124.794197 -115.466904
v -4.313500 128.382706 -124.078003
v 9.103600 118.987900 -129.399994
v 9.103600 118.987900 -118.756104
v 32.078999 61.445999 -199.608597
v 32.078999 61.445999 -169.775208
v 39.237400 65.757797 -199.608597
v 39.237400 65.757797 -169.775208
v 23.164499 69.238701 -154.430206
v 22.966900 69.189697 -170.727402
v 49.262600 84.524597 -154.342300
v 49.064999 84.475601 -170.804398
v 32.337601 53.337601 -170.673203
v 32.535198 53.386600 -154.366806
v 58.435799 68.623497 -170.750198
v 58.633400 68.672501 -154.278900
v 58.435799 68.623497 -170.750198
v 58.633400 68.672501 -154.278900
v 49.064999 84.475601 -170.804398
v 49.262600 84.524597 -154.342300
v 32.337601 53.337601 -170.673203
v 58.435799 68.623497 -170.750198
v 22.966900 69.189697 -170.727402
v 49.064999 84.475601 -170.804398
v 32.535198 53.386600 -154.366806
v 32.337601 53.337601 -170.673203
v 23.164499 69.238701 -154.430206
v 22.966900 69.189697 -170.727402
v 37.473900 60.479599 -122.737198
v 37.782101 59.592602 -154.540405
v 31.967100 69.986603 -125.517303
v 32.070599 69.704002 -154.309296
v 35.384800 93.350998 -109.097504
v 50.253300 67.745201 -122.772797
v 21.897699 85.564201 -109.097397
v 37.473900 60.479599 -122.737198
v 21.897699 85.564201 -109.097397
v 22.913300 85.945198 -117.874397
v 37.782101 59.592602 -154.540405
v 51.839699 67.610703 -154.540207
v 44.403400 76.954399 -125.674896
v 36.553398 93.820297 -117.874397
v 31.967100 69.986603 -125.517303
v 22.913300 85.945198 -117.874397
v 51.839699 67.610703 -154.540207
v 50.253300 67.745201 -122.772797
v 45.938702 77.612801 -154.309097
v 44.403400 76.954399 -125.674896
v 36.553398 93.820297 -117.874397
v 35.384800 93.350998 -109.097504
v 32.070599 69.704002 -154.309296
v 45.938702 77.612801 -154.309097
v 45.938702 77.612801 -154.309097
v 32.070599 69.704002 -154.309296
v 49.262600 84.524597 -154.342300
v 23.164499 69.238701 -154.430206
v 32.535198 53.386600 -154.366806
v 37.782101 59.592602 -154.540405
v 51.839699 67.610703 -154.540207
v 58.633400 68.672501 -154.278900
v 29.088699 -27.573900 -86.910797
v 34.287601 -34.592098 -95.915398
v 44.750599 -27.573900 -59.783600
v 55.148300 -34.592098 -59.783600
v 44.750599 -42.006699 -59.783600
v 29.088699 -42.006699 -86.910797
v 44.750599 -27.573900 -59.783600
v 29.088699 -27.573900 -86.910797
v 29.088699 -42.006699 -86.910797
v 44.750599 -42.006699 -59.783600
v 44.750599 -27.573900 -59.783600
v 55.148300 -34.592098 -59.783600
v 29.088699 -27.573900 -32.656399
v 34.287601 -34.592098 -23.651800
v 44.750599 -42.006699 -59.783600
v 44.750599 -27.573900 -59.783600
v 29.088699 -42.006699 -32.656399
v 29.088699 -27.573900 -32.656399
v 44.750599 -42.006699 -59.783600
v 29.088699 -42.006699 -32.656399
v 29.088699 -27.573900 -32.656399
v 34.287601 -34.592098 -23.651800
v -2.235000 -27.573900 -32.656399
v -7.433900 -34.592098 -23.651800
v 29.088699 -42.006699 -32.656399
v 29.088699 -27.573900 -32.656399
v -2.235000 -42.006699 -32.656399
v -2.235000 -27.573900 -32.656399
v 29.088699 -42.006699 -32.656399
v -2.235000 -42.006699 -32.656399
v -2.235000 -27.573900 -32.656399
v -7.433900 -34.592098 -23.651800
v -17.896900 -27.573900 -59.783600
v -28.294600 -34.592098 -59.783600
v -2.235000 -42.006699 -32.656399
v -2.235000 -27.573900 -32.656399
v -17.896900 -42.006699 -59.783600
v -17.896900 -27.573900 -59.783600
v -2.235000 -42.006699 -32.656399
v -17.896900 -42.006699 -59.783600
v -17.896900 -27.573900 -59.783600
v -28.294600 -34.592098 -59.783600
v -2.235000 -27.573900 -86.910797
v -7.433900 -34.592098 -95.915398
v -17.896900 -42.006699 -59.783600
v -17.896900 -27.573900 -59.783600
v -2.235000 -42.006699 -86.910797
v -2.235000 -27.573900 -86.910797
v -17.896900 -42.006699 -59.783600
v -2.235000 -42.006699 -86.910797
v -2.235000 -27.573900 -86.910797
v -7.433900 -34.592098 -95.915398
v 29.088699 -27.573900 -86.910797
v 34.287601 -34.592098 -95.915398
v -2.235000 -42.006699 -86.910797
v -2.235000 -27.573900 -86.910797
v 29.088699 -42.006699 -86.910797
v 29.088699 -27.573900 -86.910797
v -2.235000 -42.006699 -86.910797
v 29.088699 -42.006699 -86.910797
v 29.446100 -83.124298 -105.742699
v 29.641701 -99.720299 -105.686302
v -1.574000 -83.036499 -105.553703
v -1.378400 -99.797203 -105.497398
v 29.452499 -99.666100 -123.855904
v 29.256901 -83.060898 -123.912201
v -1.567600 -99.742996 -123.666901
v -1.763200 -82.973099 -123.723198
v -1.567600 -99.742996 -123.666901
v -1.763200 -82.973099 -123.723198
v -1.378400 -99.797203 -105.497398
v -1.574000 -83.036499 -105.553703
v 29.452499 -99.666100 -123.855904
v -1.567600 -99.742996 -123.666901
v 29.641701 -99.720299 -105.686302
v -1.378400 -99.797203 -105.497398
v 29.256901 -83.060898 -123.912201
v 29.452499 -99.666100 -123.855904
v 29.446100 -83.124298 -105.742699
v 29.641701 -99.720299 -105.686302
v 20.475401 -53.412601 -120.550797
v 20.651899 -83.234596 -120.524300
v 20.490900 -56.192699 -109.564003
v 20.542500 -83.003502 -108.911797
v 5.848900 -38.648602 -92.274803
v 5.775200 -53.448200 -120.648300
v 21.422501 -38.648499 -92.274803
v 20.475401 -53.412601 -120.550797
v 21.422501 -38.648499 -92.274803
v 20.352400 -45.486401 -86.769302
v 20.651899 -83.234596 -120.524300
v 4.468600 -83.234398 -120.609200
v 6.236900 -56.350300 -109.747902
v 4.602200 -45.486401 -86.769302
v 20.490900 -56.192699 -109.564003
v 20.352400 -45.486401 -86.769302
v 4.468600 -83.234398 -120.609200
v 5.775200 -53.448200 -120.648300
v 4.578100 -83.003304 -108.996696
v 6.236900 -56.350300 -109.747902
v 4.602200 -45.486401 -86.769302
v 5.848900 -38.648602 -92.274803
v 20.542500 -83.003502 -108.911797
v 4.578100 -83.003304 -108.996696
v 4.578100 -83.003304 -108.996696
v 20.542500 -83.003502 -108.911797
v -1.574000 -83.036499 -105.553703
v 29.446100 -83.124298 -105.742699
v 29.256901 -83.060898 -123.912201
v 20.651899 -83.234596 -120.524300
v 4.468600 -83.234398 -120.609200
v -1.763200 -82.973099 -123.723198
v 4.602200 -45.486401 -86.769302
v 5.848900 -38.648602 -92.274803
v 20.352400 -45.486401 -86.769302
v 21.422501 -38.648499 -92.274803
v 44.662399 -27.078199 -56.337200
v 44.662399 -11.827000 -56.337200
v 48.815300 -27.078199 -56.337200
v 48.815300 -11.827000 -56.337200
v 29.699800 -26.938601 -26.290300
v 29.699800 -11.972600 -26.290300
v 33.869099 -26.938601 -26.290300
v 33.869099 -11.972600 -26.290300
v -28.759701 -47.538300 -52.080299
v -33.884602 -43.949902 -60.691399
v -23.275299 -44.583801 -60.691399
v -20.467501 -53.344601 -55.369400
v -20.467501 -53.344601 -66.013298
v -28.759701 -47.538300 -69.302498
v -28.759701 -47.538300 -52.080299
v -28.759701 -47.538300 -69.302498
v -33.884602 -43.949902 -60.691399
v -20.467501 -53.344601 -55.369400
v -20.467501 -53.344601 -66.013298
v -4.680300 -40.054100 -16.579100
v -14.056500 -40.044102 -21.992100
v -4.703800 -28.012100 -16.561501
v -14.080100 -28.002100 -21.974400
v -4.703800 -28.012100 -16.561501
v -14.080100 -28.002100 -21.974400
v 3.584100 -26.108400 -31.620399
v -4.734800 -26.099501 -36.423000
v -14.056500 -40.044102 -21.992100
v -4.680300 -40.054100 -16.579100
v -4.422600 -41.457298 -36.903301
v 3.869700 -41.466099 -32.116199
v -4.703800 -28.012100 -16.561501
v 3.584100 -26.108400 -31.620399
v -4.680300 -40.054100 -16.579100
v 3.869700 -41.466099 -32.116199
v -14.056500 -40.044102 -21.992100
v -4.422600 -41.457298 -36.903301
v -14.080100 -28.002100 -21.974400
v -4.734800 -26.099501 -36.423000
v 41.269299 -39.987400 -22.264400
v 31.893101 -39.997398 -16.851400
v 41.292900 -27.945400 -22.246799
v 31.916599 -27.955400 -16.833799
v 41.292900 -27.945400 -22.246799
v 31.916599 -27.955400 -16.833799
v 32.397598 -26.042400 -36.955101
v 24.078600 -26.051201 -32.152500
v 31.893101 -39.997398 -16.851400
v 41.269299 -39.987400 -22.264400
v 23.793100 -41.409000 -32.648300
v 32.085300 -41.400101 -37.435398
v 41.292900 -27.945400 -22.246799
v 32.397598 -26.042400 -36.955101
v 41.269299 -39.987400 -22.264400
v 32.085300 -41.400101 -37.435398
v 31.893101 -39.997398 -16.851400
v 23.793100 -41.409000 -32.648300
v 31.916599 -27.955400 -16.833799
v 24.078600 -26.051201 -32.152500
v -31.631500 -40.255798 -54.148899
v -31.631500 -40.255798 -64.511497
v -31.678600 -27.675200 -54.148899
v -31.678600 -27.675200 -64.511497
v -31.678600 -27.675200 -54.148899
v -31.678600 -27.675200 -64.511497
v -14.495300 -25.715401 -54.484600
v -14.495300 -25.715401 -63.678600
v -31.631500 -40.255798 -64.511497
v -31.631500 -40.255798 -54.148899
v -13.897500 -41.760799 -63.663898
v -13.897600 -41.760799 -54.499298
v -31.678600 -27.675200 -54.148899
v -14.495300 -25.715401 -54.484600
v -31.631500 -40.255798 -54.148899
v -13.897600 -41.760799 -54.499298
v -31.631500 -40.255798 -64.511497
v -13.897500 -41.760799 -63.663898
v -31.678600 -27.675200 -64.511497
v -14.495300 -25.715401 -63.678600
v -13.702500 -39.990799 -96.370796
v -4.728300 -39.990799 -101.552002
v -13.716000 -27.948999 -96.394203
v -4.741800 -27.948999 -101.575500
v -13.716000 -27.948999 -96.394203
v -4.741800 -27.948999 -101.575500
v -4.832700 -26.045700 -81.679001
v 3.129600 -26.045700 -86.276001
v -4.728300 -39.990799 -101.552002
v -13.702500 -39.990799 -96.370796
v 3.402900 -41.403099 -85.773201
v -4.533800 -41.403099 -81.190903
v -13.716000 -27.948999 -96.394203
v -4.832700 -26.045700 -81.679001
v -13.702500 -39.990799 -96.370796
v -4.533800 -41.403099 -81.190903
v -4.728300 -39.990799 -101.552002
v 3.402900 -41.403099 -85.773201
v -4.741800 -27.948999 -101.575500
v 3.129600 -26.045700 -86.276001
v 32.203098 -40.084702 -100.994102
v 41.579399 -40.074799 -95.581200
v 32.226601 -28.042700 -101.011803
v 41.602901 -28.032700 -95.598801
v 32.226601 -28.042700 -101.011803
v 41.602901 -28.032700 -95.598801
v 23.938700 -26.139000 -85.952797
v 32.257702 -26.130199 -81.150299
v 41.579399 -40.074799 -95.581200
v 32.203098 -40.084702 -100.994102
v 31.945400 -41.487900 -80.669899
v 23.653099 -41.496700 -85.457100
v 32.226601 -28.042700 -101.011803
v 23.938700 -26.139000 -85.952797
v 32.203098 -40.084702 -100.994102
v 23.653099 -41.496700 -85.457100
v 41.579399 -40.074799 -95.581200
v 31.945400 -41.487900 -80.669899
v 41.602901 -28.032700 -95.598801
v 32.257702 -26.130199 -81.150299
v 14.779900 68.553802 -112.405800
v 25.591400 90.806503 -101.873199
v -10.384200 68.553802 -96.820396
v -19.142000 74.584396 -69.998596
v -2.334300 68.553802 -58.822201
v 17.826799 68.553802 -58.822201
v 31.799101 67.285500 -80.217796
v 35.319401 58.676601 -102.253197
v 35.319401 58.676601 -102.253197
v -12.792400 45.875599 -88.979301
v 5.494500 46.121101 -102.610397
v -16.595600 52.745499 -67.000198
v -16.595600 52.745499 -67.000198
v 1.464700 41.273102 -56.084900
v 22.631300 45.971401 -74.842499
v 19.806499 48.444901 -96.576401
v 19.806499 48.444901 -96.576401
v 3.324600 17.275999 -91.973900
v -0.959000 20.413500 -76.438301
v -0.959000 20.413500 -76.438301
v 11.114100 20.582600 -74.835503
v 17.371500 17.011801 -88.664803
v 1.393400 2.359800 -76.693100
v 1.393400 2.359800 -76.693100
v 17.371500 17.011801 -88.664803
v 18.655199 -14.591800 -62.023899
v 22.639099 -10.706200 -50.687099
v 8.639800 -17.704300 -62.161800
v 10.819700 -19.040300 -49.203602
v 23.204000 -19.040300 -45.846802
v 23.204000 -19.040300 -45.846802
v 22.639099 -10.706200 -50.687099
v 30.003500 -19.040300 -52.974899
v 29.739901 -17.704300 -60.346100
v 18.655199 -14.591800 -62.023899
v 18.492701 -30.408300 -72.203697
v 3.983800 -30.408300 -61.801399
v 5.469000 -30.408300 -47.538200
v 18.940599 -30.408300 -44.858898
v 24.699499 -30.408300 -59.171600
v 18.492701 -30.408300 -72.203697
v 15.657100 -42.893200 -56.908501
v 75.831398 -61.724899 -48.344601
v 71.587196 -61.724899 -48.344601
v 75.831398 -19.861000 -48.344601
v 71.587196 -19.861000 -48.344601
v 90.137398 -68.916298 -70.059700
v 90.137398 -68.916298 -65.583397
v 90.137398 -26.519100 -70.059700
v 90.137398 -26.519100 -65.583397
v -75.627502 89.875603 161.603897
v -71.252098 99.258698 161.603897
v -75.627502 89.875603 21.723000
v -71.252098 99.258698 21.723000
v -21.750200 60.143902 -52.862301
v -73.501701 90.022598 -52.862301
v -21.750200 60.143902 -41.240398
v -73.501701 90.022598 -41.240398
v 31.917999 76.959900 3.763100
v 21.946400 67.014297 3.763100
v 31.917999 76.959900 -58.703602
v 21.946400 67.014297 -58.703602
v 40.840500 69.143402 -58.703602
v 30.868900 59.197701 -58.703602
v 40.840500 69.143402 3.763100
v 30.868900 59.197701 3.763100
v 17.908300 73.415199 -44.576199
v 5.510900 73.415199 -44.576199
v 17.908300 73.415199 3.808300
v 5.510900 73.415199 3.808300
v -72.223999 92.330498 158.773804
v -46.495800 77.614601 158.462494
v -72.223297 92.334602 151.004105
v -46.495098 77.618698 150.692902
v -38.610699 81.225601 150.916702
v -38.611099 81.221397 158.675400
v -69.432800 98.905701 150.916901
v -69.433197 98.901497 158.675507
v 31.295700 77.119102 3.763100
v 31.295799 77.119003 -58.703602
v 40.733299 67.656898 3.763000
v 40.733299 67.656898 -58.703602
v 11.326600 83.219398 143.231506
v 12.127300 73.148499 143.231506
v -24.820400 83.219398 143.231506
v -24.820400 73.148499 143.231506
v -68.652199 98.981300 157.870407
v -37.925999 81.264702 157.870407
v -72.455200 92.205803 157.866501
v -41.728901 74.489403 157.866394
v -41.727200 74.492302 151.213501
v -37.924301 81.267601 151.217499
v -72.453598 92.208702 151.213593
v -68.650597 98.984200 151.217499
v -72.223900 92.330498 21.875500
v -46.495800 77.614601 21.564199
v -72.223297 92.334602 14.105700
v -46.495098 77.618698 13.794500
v -38.610699 81.225601 14.018400
v -38.611099 81.221397 21.777100
v -69.432800 98.905701 14.018500
v -69.433197 98.901497 21.777100
v 10.953300 83.021400 11.675300
v 10.953300 83.021400 1.882900
v -24.820400 83.021400 11.675300
v -24.820400 83.021400 1.882900
v -24.369200 83.522598 32.027199
v 10.840800 83.522598 32.027302
v -24.369200 83.522598 25.062901
v 10.840800 83.522598 25.062901
v -68.652199 98.981201 20.972000
v -37.925999 81.264702 20.972000
v -72.455200 92.205803 20.968100
v -41.728901 74.489403 20.968000
v -41.727200 74.492302 14.315200
v -37.924301 81.267601 14.319200
v -72.453598 92.208702 14.315300
v -68.650597 98.984200 14.319100
v 32.015400 58.961700 -58.703602
v 22.577900 68.423897 -58.703602
v 32.015400 58.961700 3.763000
v 22.577900 68.423897 3.763100
v -73.841103 89.156502 -52.558399
v -22.089600 59.277802 -52.558399
v -67.759102 99.690903 -52.558498
v -16.007601 69.812202 -52.558399
v -38.256500 103.954399 -109.771698
v -38.256500 112.192101 -109.771698
v -2.770100 103.954399 -109.771698
v -2.770100 112.192101 -109.771698
v 33.219002 71.955101 -154.309494
v 33.219002 71.955101 -89.027603
v 46.476398 79.609200 -154.309494
v 46.476398 79.609200 -89.027603
v 45.318100 79.538597 -155.894699
v 52.581200 66.958603 -155.894699
v 45.318100 79.538597 -88.821999
v 52.581200 66.958603 -88.821999
v -38.256500 104.723099 -117.289299
v -38.256500 104.723099 -109.250603
v -2.770100 104.723099 -117.289299
v -2.770100 104.723099 -109.250603
v -2.770100 112.192101 -116.916603
v -38.256500 112.192101 -116.916603
v -2.770100 103.954399 -116.916603
v -38.256500 103.954399 -116.916603
v -1.575100 100.318298 -135.165802
v -37.061401 100.318298 -135.165802
v -1.575100 115.774300 -135.165802
v -37.061401 115.774300 -135.165802
v -37.061401 100.525299 -138.442703
v -37.061401 100.525299 -135.072098
v -1.575100 100.525299 -138.442703
v -1.575100 100.525299 -135.072098
v 40.742802 60.123699 -88.821999
v 40.742901 60.123699 -155.894699
v 33.479698 72.703796 -88.821999
v 33.479698 72.703796 -155.894699
v 39.738098 60.663601 -154.309494
v 39.738098 60.663700 -89.027603
v 52.995499 68.317802 -154.309494
v 52.995499 68.317802 -89.027603
v 14.516300 63.928600 -23.286301
v 11.689900 63.928600 -29.347500
v 14.516300 -22.146299 -23.286301
v 11.689900 -22.540701 -29.347500
v 90.146400 -26.519100 -70.113098
v 90.146400 -68.916199 -70.113098
v 85.670097 -26.519100 -70.113098
v 85.670097 -68.916199 -70.113098
v 71.472504 -19.817101 -48.382702
v 71.472504 -61.680901 -48.382702
v 71.472504 -19.817101 -52.779301
v 71.472504 -61.680901 -52.779301
v -74.803497 100.652603 -116.864197
v -74.803497 100.652603 22.302000
v -66.597000 96.825798 -116.864197
v -66.597000 96.825798 22.302000
v -68.182297 99.236000 -52.814301
v -16.430799 69.357300 -52.814301
v -68.182297 99.236000 -41.192501
v -16.430799 69.357300 -41.192501
v -1.575100 115.631203 -135.072098
v -37.061401 115.631203 -135.072098
v -1.575100 115.631203 -138.442703
v -37.061401 115.631203 -138.442703
v -2.770100 111.513603 -109.250603
v -38.256500 111.513603 -109.250603
v -2.770100 111.513603 -117.289299
v -38.256500 111.513603 -117.289299
v -37.061401 115.774300 -138.149506
v -37.061401 100.318298 -138.149506
v -1.575100 115.774300 -138.149506
v -1.575100 100.318298 -138.149506
v -17.967400 -40.771900 -62.093899
v -17.967400 -40.771900 -55.803600
v 44.255100 -40.771900 -62.093899
v 44.255100 -40.771900 -55.803600
v 44.255100 -34.481602 -55.803600
v -17.967400 -34.481602 -55.803600
v 44.255100 -34.481602 -62.093899
v -17.967400 -34.481602 -62.093899
v 44.255100 -40.771900 -55.803600
v -17.967400 -40.771900 -55.803600
v 44.255100 -34.481602 -55.803600
v -17.967400 -34.481602 -55.803600
v -17.967400 -40.771900 -62.093899
v 44.255100 -40.771900 -62.093899
v -17.967400 -34.481602 -62.093899
v 44.255100 -34.481602 -62.093899
v -10.254700 -40.917599 -78.587898
v -10.254700 -40.917599 -74.942703
v 36.542400 -40.917599 -78.587898
v 36.542400 -40.917599 -74.942703
v 36.542400 -37.272400 -74.942703
v -10.254700 -37.272400 -74.942703
v 36.542400 -37.272400 -78.587898
v -10.254700 -37.272400 -78.587898
v 36.542400 -40.917599 -74.942703
v -10.254700 -40.917599 -74.942703
v 36.542400 -37.272400 -74.942703
v -10.254700 -37.272400 -74.942703
v -10.254700 -40.917599 -78.587898
v 36.542400 -40.917599 -78.587898
v -10.254700 -37.272400 -78.587898
v 36.542400 -37.272400 -78.587898
v -71.252098 99.258698 -118.157997
v -75.627502 89.875603 -118.157997
v -74.803497 100.652603 161.468201
v -66.597000 96.825798 161.468201
v -58.916698 99.950600 54.644402
v -38.522400 97.925598 64.191803
v -64.575996 108.767601 65.994598
v -71.853302 97.925598 54.248199
v -74.407898 97.925598 77.905701
v -56.720600 97.925598 94.562302
v -38.273201 97.080597 90.643204
v -40.228901 102.180099 75.079300
v -53.981098 87.125801 49.968399
v -71.853302 97.925598 54.248199
v -83.582603 87.125801 56.290100
v -86.936203 87.125801 75.219704
v -83.582603 87.125801 56.290100
v -78.783302 87.125801 92.150902
v -59.307201 87.125801 105.065598
v -31.319300 87.125801 109.697197
v -25.649200 87.125801 95.070999
v -7.288600 101.390297 85.130699
v -14.194900 87.125801 77.079498
v -5.942600 98.662399 68.834900
v -34.356701 85.188797 58.996601
v -68.446800 67.290001 68.691399
v -50.006199 67.290001 57.581501
v -68.446800 67.290001 68.691399
v -68.835899 60.339500 88.898903
v -48.184200 67.290001 97.473503
v -26.591499 67.290001 91.086304
v -25.649200 87.125801 95.070999
v -14.194900 87.125801 77.079498
v -35.582401 67.290001 71.569000
v -52.567200 51.665401 92.899498
v -52.567200 51.665401 92.899498
v -26.591499 67.290001 91.086304
v -7.288600 101.390297 85.130699
v 8.104600 38.006100 158.805695
v 8.104600 68.813004 158.805695
v 17.489700 38.006100 158.805695
v 17.489700 68.813004 158.805695
v -27.196100 67.161102 139.589005
v -27.196100 80.085098 139.589005
v -27.196100 67.161102 94.439201
v -27.196100 80.085098 94.439201
v 42.385300 59.663799 164.096802
v 46.916901 62.280102 164.096802
v 52.270302 42.542500 164.096802
v 56.801899 45.158798 164.096802
v -32.316399 38.249199 158.740295
v -32.316399 69.056000 158.740295
v -22.931299 38.249199 158.740295
v -22.931299 69.056000 158.740295
v 8.104600 38.006100 19.059999
v 8.104600 68.813004 19.059999
v 17.489700 38.006100 19.059999
v 17.489700 68.813004 19.059999
v -23.445900 73.767899 31.398701
v -23.445900 73.767899 62.710201
v -15.226500 73.767899 31.984400
v -15.226500 73.767899 62.710201
v 42.385300 59.663898 9.727700
v 46.916801 62.280102 9.727700
v 52.270302 42.542500 9.727700
v 56.801800 45.158798 9.727700
v 42.385300 59.663898 27.198400
v 46.916801 62.280102 27.198400
v 52.270302 42.542500 27.198400
v 56.801800 45.158798 27.198400
v -30.703600 37.438301 21.990299
v -30.703600 69.421799 21.990299
v -21.932301 37.438301 21.990299
v -21.932301 69.421799 21.990299
v 3.915700 115.058197 -120.231796
v 39.636799 115.058197 -120.231796
v 3.915700 115.058197 -130.371399
v 39.636799 115.058197 -130.371399
v -35.740398 22.422300 -42.681801
v -53.254700 32.193100 -42.681801
v -32.980499 27.370399 -42.681801
v -50.494801 37.141300 -42.681801
v 16.890499 -98.953796 -117.068901
v 25.245800 -98.953796 -117.223801
v 16.890499 -128.382706 -117.068901
v 25.245800 -128.382706 -117.223801
v 72.954697 -22.050699 -61.636700
v 72.954697 6.757800 -61.636700
v 81.654701 -22.050800 -61.636700
v 81.654701 6.757800 -61.636700
v 12.766900 -80.877296 -29.126301
v 12.766900 -48.948299 -29.126301
v 22.152000 -80.877296 -29.126301
v 22.152000 -48.948299 -29.126301
v 10.953300 83.021400 148.573700
v 10.953300 83.021400 138.781296
v -24.820400 83.021400 148.573593
v -24.820400 83.021400 138.781296
v -24.369200 83.522598 168.925598
v 10.840900 83.522598 168.925598
v -24.369200 83.522598 161.961197
v 10.840900 83.522598 161.961197
v 13.582700 -54.550900 -56.510799
v 13.582700 -54.550900 -109.224197
v 13.582700 -66.133598 -56.510799
v 13.582700 -66.133598 -109.224197
v 11.122400 63.928600 -21.386700
v 17.183500 63.928600 -24.212999
v 11.122400 -22.146299 -21.386700
v 17.183500 -22.540701 -24.212999
v -23.445900 73.767899 168.297104
v -23.445900 73.767899 199.608597
v -15.226500 73.767899 168.882797
v -15.226500 73.767899 199.608597
vt 0.239700 0.135600
vt 0.008900 0.135600
vt 0.239700 0.194600
vt 0.008900 0.194600
vt 0.008900 0.135600
vt 0.239700 0.135600
vt 0.008900 0.194600
vt 0.239700 0.194600
vt 0.314000 0.872400
vt 0.314000 0.994100
vt 0.553700 0.872400
vt 0.553700 0.994100
vt 0.314000 0.872400
vt 0.314000 0.994100
vt 0.553700 0.872400
vt 0.553700 0.994100
vt 0.082600 0.206800
vt 0.213000 0.206800
vt 0.082600 0.423000
vt 0.213000 0.423000
vt 0.408400 0.220600
vt 0.408400 0.131800
vt 0.311000 0.220600
vt 0.311000 0.131800
vt 0.213000 0.206800
vt 0.213000 0.423000
vt 0.082600 0.206800
vt 0.082600 0.423000
vt 0.301600 0.297300
vt 0.301600 0.205100
vt 0.220200 0.297300
vt 0.220200 0.205100
vt 0.553700 0.872400
vt 0.553700 0.994100
vt 0.314000 0.872400
vt 0.314000 0.994100
vt 0.553700 0.872400
vt 0.553700 0.994100
vt 0.314000 0.872400
vt 0.314000 0.994100
vt 0.082600 0.423000
vt 0.213000 0.423000
vt 0.082600 0.206800
vt 0.213000 0.206800
vt 0.408400 0.220600
vt 0.408400 0.131800
vt 0.311000 0.220600
vt 0.311000 0.131800
vt 0.213000 0.206800
vt 0.213000 0.423000
vt 0.082600 0.206800
vt 0.082600 0.423000
vt 0.220200 0.205100
vt 0.220200 0.297300
vt 0.301600 0.205100
vt 0.301600 0.297300
vt 0.994100 0.921000
vt 0.928600 0.921000
vt 0.994100 0.790400
vt 0.928600 0.790400
vt 0.272600 0.425400
vt 0.221200 0.425400
vt 0.272600 0.304200
vt 0.221200 0.304200
vt 0.928600 0.921000
vt 0.994100 0.921000
vt 0.928600 0.790400
vt 0.994100 0.790400
vt 0.272600 0.425400
vt 0.221200 0.425400
vt 0.272600 0.304200
vt 0.221200 0.304200
vt 0.198400 0.059500
vt 0.005400 0.059500
vt 0.198400 0.004900
vt 0.005400 0.004900
vt 0.008900 0.135600
vt 0.008900 0.194600
vt 0.239700 0.135600
vt 0.239700 0.194600
vt 0.005400 0.004900
vt 0.005400 0.059500
vt 0.288800 0.004900
vt 0.288800 0.059500
vt 0.297200 0.802300
vt 0.154100 0.811100
vt 0.297200 0.994300
vt 0.154100 0.988100
vt 0.006400 0.803800
vt 0.006400 0.994700
vt 0.154100 0.811100
vt 0.154100 0.988100
vt 0.377500 0.729800
vt 0.345100 0.822100
vt 0.461900 0.722300
vt 0.442000 0.862100
vt 0.314000 0.869200
vt 0.553700 0.869200
vt 0.314000 0.994100
vt 0.553700 0.994100
vt 0.228100 0.660400
vt 0.280300 0.788800
vt 0.311200 0.645000
vt 0.364800 0.726900
vt 0.006400 0.803700
vt 0.006400 0.994700
vt 0.297200 0.994300
vt 0.297200 0.802300
vt 0.403800 0.581700
vt 0.321500 0.644400
vt 0.250200 0.507100
vt 0.345200 0.548400
vt 0.553700 0.869200
vt 0.314000 0.869200
vt 0.553700 0.994100
vt 0.314000 0.994100
vt 0.008900 0.194600
vt 0.008900 0.135600
vt 0.239700 0.194600
vt 0.239700 0.135600
vt 0.199600 0.004900
vt 0.199600 0.059500
vt 0.005400 0.004900
vt 0.005400 0.059500
vt 0.314000 0.872400
vt 0.314000 0.994100
vt 0.553700 0.872400
vt 0.553700 0.994100
vt 0.553700 0.994100
vt 0.553700 0.872400
vt 0.314000 0.994100
vt 0.314000 0.872400
vt 0.311000 0.220600
vt 0.311000 0.131800
vt 0.408400 0.220600
vt 0.408400 0.131800
vt 0.213000 0.423000
vt 0.213000 0.206800
vt 0.082600 0.423000
vt 0.082600 0.206800
vt 0.301600 0.205100
vt 0.220200 0.205100
vt 0.301600 0.297300
vt 0.220200 0.297300
vt 0.207600 0.450300
vt 0.349200 0.416100
vt 0.234400 0.495700
vt 0.360500 0.469300
vt 0.995000 0.004900
vt 0.874500 0.004900
vt 0.995000 0.058600
vt 0.874500 0.058600
vt 0.176900 0.596900
vt 0.214800 0.613200
vt 0.753500 0.058600
vt 0.753500 0.004900
vt 0.139900 0.787900
vt 0.246000 0.794800
vt 0.139900 0.722600
vt 0.246000 0.722600
vt 0.349200 0.416100
vt 0.207600 0.450300
vt 0.360500 0.469300
vt 0.234400 0.495700
vt 0.214800 0.613200
vt 0.176900 0.596900
vt 0.006700 0.722000
vt 0.006700 0.795200
vt 0.239700 0.135600
vt 0.008900 0.135600
vt 0.239700 0.194600
vt 0.008900 0.194600
vt 0.239700 0.194600
vt 0.008900 0.194600
vt 0.239700 0.135600
vt 0.008900 0.135600
vt 0.008900 0.135600
vt 0.008900 0.194600
vt 0.239700 0.135600
vt 0.239700 0.194600
vt 0.008900 0.135600
vt 0.239700 0.135600
vt 0.008900 0.194600
vt 0.239700 0.194600
vt 0.239700 0.135600
vt 0.008900 0.135600
vt 0.239700 0.194600
vt 0.008900 0.194600
vt 0.297200 0.802300
vt 0.154100 0.811100
vt 0.297200 0.994300
vt 0.154100 0.988100
vt 0.006400 0.803800
vt 0.006400 0.994700
vt 0.154100 0.811100
vt 0.154100 0.988100
vt 0.377500 0.729800
vt 0.321500 0.644400
vt 0.461900 0.722300
vt 0.403800 0.581700
vt 0.314000 0.869200
vt 0.553700 0.869200
vt 0.314000 0.994100
vt 0.553700 0.994100
vt 0.228100 0.660400
vt 0.280300 0.788800
vt 0.311200 0.645000
vt 0.364800 0.726900
vt 0.006400 0.803700
vt 0.006400 0.994700
vt 0.297200 0.994300
vt 0.297200 0.802300
vt 0.442000 0.862100
vt 0.345100 0.822100
vt 0.250200 0.507100
vt 0.345200 0.548400
vt 0.553700 0.994100
vt 0.314000 0.994100
vt 0.553700 0.869200
vt 0.314000 0.869200
vt 0.297200 0.802300
vt 0.154100 0.811100
vt 0.297200 0.994300
vt 0.154100 0.988100
vt 0.006400 0.803800
vt 0.006400 0.994700
vt 0.154100 0.811100
vt 0.154100 0.988100
vt 0.377500 0.729800
vt 0.345100 0.822100
vt 0.461900 0.722300
vt 0.442000 0.862100
vt 0.314000 0.869200
vt 0.553700 0.869200
vt 0.314000 0.994100
vt 0.553700 0.994100
vt 0.228100 0.660400
vt 0.280300 0.788800
vt 0.311200 0.645000
vt 0.364800 0.726900
vt 0.006400 0.803800
vt 0.006400 0.994700
vt 0.297200 0.994300
vt 0.297200 0.802300
vt 0.403800 0.581700
vt 0.321500 0.644400
vt 0.250200 0.507100
vt 0.345200 0.548400
vt 0.553700 0.869200
vt 0.314000 0.869200
vt 0.553700 0.994100
vt 0.314000 0.994100
vt 0.297200 0.802300
vt 0.154100 0.811100
vt 0.297200 0.994300
vt 0.154100 0.988100
vt 0.006400 0.803800
vt 0.006400 0.994700
vt 0.154100 0.811100
vt 0.154100 0.988100
vt 0.377500 0.729800
vt 0.321500 0.644400
vt 0.461900 0.722300
vt 0.403800 0.581700
vt 0.314000 0.869200
vt 0.553700 0.869200
vt 0.314000 0.994100
vt 0.553700 0.994100
vt 0.228100 0.660400
vt 0.280300 0.788800
vt 0.311200 0.645000
vt 0.364800 0.726900
vt 0.006400 0.803700
vt 0.006400 0.994700
vt 0.297200 0.994300
vt 0.297200 0.802300
vt 0.442000 0.862100
vt 0.345100 0.822100
vt 0.250200 0.507100
vt 0.345200 0.548400
vt 0.553700 0.994100
vt 0.314000 0.994100
vt 0.553700 0.869200
vt 0.314000 0.869200
vt 0.147900 0.461800
vt 0.147900 0.540400
vt 0.168700 0.431700
vt 0.168700 0.579900
vt 0.078800 0.579900
vt 0.091100 0.540400
vt 0.091100 0.461800
vt 0.078800 0.431700
vt 0.239700 0.135600
vt 0.008900 0.135600
vt 0.239700 0.194600
vt 0.008900 0.194600
vt 0.006400 0.994700
vt 0.154100 0.988100
vt 0.006400 0.803800
vt 0.154100 0.811100
vt 0.006400 0.994700
vt 0.006400 0.803800
vt 0.154100 0.988100
vt 0.154100 0.811100
vt 0.311200 0.645000
vt 0.364800 0.726900
vt 0.228100 0.660400
vt 0.280300 0.788800
vt 0.553700 0.869200
vt 0.314000 0.869200
vt 0.553700 0.994100
vt 0.314000 0.994100
vt 0.461900 0.722300
vt 0.442000 0.862100
vt 0.377500 0.729800
vt 0.345100 0.822100
vt 0.297200 0.994300
vt 0.297200 0.802300
vt 0.297200 0.802300
vt 0.297200 0.994300
vt 0.250200 0.507100
vt 0.345200 0.548400
vt 0.403800 0.581700
vt 0.321500 0.644400
vt 0.314000 0.869200
vt 0.553700 0.869200
vt 0.314000 0.994100
vt 0.553700 0.994100
vt 0.297200 0.802300
vt 0.154100 0.811100
vt 0.297200 0.994300
vt 0.154100 0.988100
vt 0.006400 0.803800
vt 0.006400 0.994700
vt 0.154100 0.811100
vt 0.154100 0.988100
vt 0.377500 0.729800
vt 0.321500 0.644400
vt 0.461900 0.722300
vt 0.403800 0.581700
vt 0.314000 0.869200
vt 0.553700 0.869200
vt 0.314000 0.994100
vt 0.553700 0.994100
vt 0.228100 0.660400
vt 0.280300 0.788800
vt 0.311200 0.645000
vt 0.364800 0.726900
vt 0.006400 0.803800
vt 0.006400 0.994700
vt 0.297200 0.994300
vt 0.297200 0.802300
vt 0.442000 0.862100
vt 0.345100 0.822100
vt 0.250200 0.507100
vt 0.345200 0.548400
vt 0.553700 0.994100
vt 0.314000 0.994100
vt 0.553700 0.869200
vt 0.314000 0.869200
vt 0.239700 0.135600
vt 0.008900 0.135600
vt 0.239700 0.194600
vt 0.008900 0.194600
vt 0.352100 0.513100
vt 0.409400 0.563000
vt 0.415100 0.498600
vt 0.381800 0.443100
vt 0.457500 0.449700
vt 0.474600 0.523800
vt 0.470600 0.836100
vt 0.571400 0.818300
vt 0.527400 0.863800
vt 0.479400 0.773400
vt 0.541700 0.762400
vt 0.239700 0.194600
vt 0.008900 0.194600
vt 0.239700 0.135600
vt 0.008900 0.135600
vt 0.314000 0.872400
vt 0.314000 0.994100
vt 0.553700 0.872400
vt 0.553700 0.994100
vt 0.553700 0.994100
vt 0.553700 0.872400
vt 0.314000 0.994100
vt 0.314000 0.872400
vt 0.311000 0.220600
vt 0.311000 0.131800
vt 0.408400 0.220600
vt 0.408400 0.131800
vt 0.213000 0.423000
vt 0.213000 0.206800
vt 0.082600 0.423000
vt 0.082600 0.206800
vt 0.301600 0.205100
vt 0.220200 0.205100
vt 0.301600 0.297300
vt 0.220200 0.297300
vt 0.207600 0.450300
vt 0.349200 0.416100
vt 0.234400 0.495700
vt 0.360500 0.469300
vt 0.995000 0.004900
vt 0.874500 0.004900
vt 0.995000 0.058600
vt 0.874500 0.058600
vt 0.176900 0.596900
vt 0.214800 0.613200
vt 0.753500 0.058600
vt 0.753500 0.004900
vt 0.139900 0.787900
vt 0.246000 0.794800
vt 0.139900 0.722600
vt 0.246000 0.722600
vt 0.349200 0.416100
vt 0.207600 0.450300
vt 0.360500 0.469300
vt 0.234400 0.495700
vt 0.214800 0.613200
vt 0.176900 0.596900
vt 0.006700 0.722000
vt 0.006700 0.795200
vt 0.147900 0.461800
vt 0.147900 0.540400
vt 0.168700 0.431700
vt 0.168700 0.579900
vt 0.078800 0.579900
vt 0.091100 0.540400
vt 0.091100 0.461800
vt 0.078800 0.431700
vt 0.853300 0.149600
vt 0.834000 0.192900
vt 0.970600 0.149600
vt 0.990000 0.192900
vt 0.990500 0.064300
vt 0.825700 0.064300
vt 0.990500 0.141900
vt 0.825700 0.141900
vt 0.853500 0.235900
vt 0.970700 0.235900
vt 0.970700 0.235900
vt 0.990000 0.192900
vt 0.853500 0.235900
vt 0.834000 0.192900
vt 0.825700 0.064300
vt 0.825700 0.141900
vt 0.990500 0.064300
vt 0.990500 0.141900
vt 0.970600 0.149600
vt 0.853300 0.149600
vt 0.853300 0.149600
vt 0.834000 0.192900
vt 0.970600 0.149600
vt 0.990000 0.192900
vt 0.825600 0.064300
vt 0.825600 0.141900
vt 0.990500 0.064300
vt 0.990500 0.141900
vt 0.853500 0.235900
vt 0.970700 0.235900
vt 0.970700 0.235900
vt 0.990000 0.192900
vt 0.853500 0.235900
vt 0.834000 0.192900
vt 0.825700 0.064300
vt 0.825700 0.141900
vt 0.990500 0.064300
vt 0.990500 0.141900
vt 0.970600 0.149600
vt 0.853300 0.149600
vt 0.970700 0.235900
vt 0.990000 0.192900
vt 0.853500 0.235900
vt 0.834000 0.192900
vt 0.825700 0.064300
vt 0.825700 0.141900
vt 0.990500 0.064300
vt 0.990500 0.141900
vt 0.970600 0.149600
vt 0.853300 0.149600
vt 0.970700 0.235900
vt 0.990000 0.192900
vt 0.853500 0.235900
vt 0.834000 0.192900
vt 0.825700 0.064300
vt 0.825700 0.141900
vt 0.990500 0.064300
vt 0.990500 0.141900
vt 0.970600 0.149600
vt 0.853300 0.149600
vt 0.314000 0.872400
vt 0.314000 0.994100
vt 0.553700 0.872400
vt 0.553700 0.994100
vt 0.553700 0.994100
vt 0.553700 0.872400
vt 0.314000 0.994100
vt 0.314000 0.872400
vt 0.311000 0.220600
vt 0.311000 0.131800
vt 0.408400 0.220600
vt 0.408400 0.131800
vt 0.213000 0.423000
vt 0.213000 0.206800
vt 0.082600 0.423000
vt 0.082600 0.206800
vt 0.301600 0.205100
vt 0.220200 0.205100
vt 0.301600 0.297300
vt 0.220200 0.297300
vt 0.207600 0.450300
vt 0.349200 0.416100
vt 0.234400 0.495700
vt 0.360500 0.469300
vt 0.995000 0.004900
vt 0.874500 0.004900
vt 0.995000 0.058600
vt 0.874500 0.058600
vt 0.176900 0.596900
vt 0.214800 0.613200
vt 0.753500 0.058600
vt 0.753500 0.004900
vt 0.139900 0.787900
vt 0.246000 0.794800
vt 0.139900 0.722600
vt 0.246000 0.722600
vt 0.349200 0.416100
vt 0.207600 0.450300
vt 0.360500 0.469300
vt 0.234400 0.495700
vt 0.214800 0.613200
vt 0.176900 0.596900
vt 0.006700 0.722000
vt 0.006700 0.795200
vt 0.147900 0.461800
vt 0.147900 0.540400
vt 0.168700 0.431700
vt 0.168700 0.579900
vt 0.078800 0.579900
vt 0.091100 0.540400
vt 0.091100 0.461800
vt 0.078800 0.431700
vt 0.165300 0.708200
vt 0.213900 0.708200
vt 0.165300 0.621200
vt 0.213900 0.621200
vt 0.008900 0.135600
vt 0.239700 0.135600
vt 0.008900 0.194600
vt 0.239700 0.194600
vt 0.008900 0.135600
vt 0.239700 0.135600
vt 0.008900 0.194600
vt 0.239700 0.194600
vt 0.352100 0.513100
vt 0.409400 0.563000
vt 0.415100 0.498600
vt 0.381800 0.443100
vt 0.457500 0.449700
vt 0.474600 0.523800
vt 0.470600 0.836100
vt 0.571400 0.818300
vt 0.527400 0.863800
vt 0.479400 0.773400
vt 0.541700 0.762400
vt 0.994500 0.416600
vt 0.919600 0.416600
vt 0.994500 0.502500
vt 0.919600 0.502500
vt 0.876100 0.928800
vt 0.876100 0.995100
vt 0.994800 0.928800
vt 0.994800 0.995100
vt 0.876100 0.928800
vt 0.876100 0.995100
vt 0.994800 0.928800
vt 0.994800 0.995100
vt 0.009900 0.703500
vt 0.146400 0.713900
vt 0.009900 0.608200
vt 0.146400 0.593900
vt 0.009900 0.703500
vt 0.146400 0.713900
vt 0.009900 0.608200
vt 0.146400 0.593900
vt 0.994500 0.416600
vt 0.919600 0.416600
vt 0.994500 0.502500
vt 0.919600 0.502500
vt 0.876100 0.928800
vt 0.876100 0.995100
vt 0.994800 0.928800
vt 0.994800 0.995100
vt 0.876100 0.928800
vt 0.876100 0.995100
vt 0.994800 0.928800
vt 0.994800 0.995100
vt 0.009900 0.703500
vt 0.146400 0.713900
vt 0.009900 0.608200
vt 0.146400 0.593900
vt 0.009900 0.703500
vt 0.146400 0.713900
vt 0.009900 0.608200
vt 0.146400 0.593900
vt 0.994500 0.416600
vt 0.919600 0.416600
vt 0.994500 0.502500
vt 0.919600 0.502500
vt 0.876100 0.928800
vt 0.876100 0.995100
vt 0.994800 0.928800
vt 0.994800 0.995100
vt 0.876100 0.928800
vt 0.876100 0.995100
vt 0.994800 0.928800
vt 0.994800 0.995100
vt 0.009900 0.703500
vt 0.146400 0.713900
vt 0.009900 0.608200
vt 0.146400 0.593900
vt 0.009900 0.703500
vt 0.146400 0.713900
vt 0.009900 0.608200
vt 0.146400 0.593900
vt 0.994500 0.416600
vt 0.919600 0.416600
vt 0.994500 0.502500
vt 0.919600 0.502500
vt 0.876100 0.928800
vt 0.876100 0.995100
vt 0.994800 0.928800
vt 0.994800 0.995100
vt 0.876100 0.928800
vt 0.876100 0.995100
vt 0.994800 0.928800
vt 0.994800 0.995100
vt 0.009900 0.703500
vt 0.146400 0.713900
vt 0.009900 0.608200
vt 0.146400 0.593900
vt 0.009900 0.703500
vt 0.146400 0.713900
vt 0.009900 0.608200
vt 0.146400 0.593900
vt 0.994500 0.416600
vt 0.919600 0.416600
vt 0.994500 0.502500
vt 0.919600 0.502500
vt 0.876100 0.928800
vt 0.876100 0.995100
vt 0.994800 0.928800
vt 0.994800 0.995100
vt 0.876100 0.928800
vt 0.876100 0.995100
vt 0.994800 0.928800
vt 0.994800 0.995100
vt 0.009900 0.703500
vt 0.146400 0.713900
vt 0.009900 0.608200
vt 0.146400 0.593900
vt 0.009900 0.703500
vt 0.146400 0.713900
vt 0.009900 0.608200
vt 0.146400 0.593900
vt 0.734800 0.230700
vt 0.660000 0.175700
vt 0.713800 0.342500
vt 0.646600 0.433600
vt 0.582700 0.392800
vt 0.562100 0.329800
vt 0.557900 0.235200
vt 0.529100 0.146200
vt 0.789100 0.152600
vt 0.787700 0.386300
vt 0.806000 0.292800
vt 0.754300 0.474900
vt 0.533400 0.470700
vt 0.479400 0.390200
vt 0.479900 0.274400
vt 0.458800 0.186800
vt 0.827800 0.228300
vt 0.906800 0.346400
vt 0.900100 0.413700
vt 0.377400 0.400300
vt 0.383600 0.338300
vt 0.356700 0.275000
vt 0.973500 0.393300
vt 0.308500 0.365100
vt 0.935800 0.295800
vt 0.588200 0.896100
vt 0.612100 0.820300
vt 0.623600 0.905800
vt 0.662100 0.863900
vt 0.677100 0.809400
vt 0.794900 0.822000
vt 0.853700 0.811000
vt 0.822500 0.855700
vt 0.842100 0.873900
vt 0.891600 0.877200
vt 0.630000 0.992300
vt 0.668700 0.930600
vt 0.701700 0.892600
vt 0.737300 0.862400
vt 0.796400 0.915600
vt 0.843600 0.971400
vt 0.737200 0.962000
vt 0.011400 0.064500
vt 0.011400 0.123600
vt 0.613300 0.064500
vt 0.613300 0.123600
vt 0.011400 0.064500
vt 0.011400 0.123600
vt 0.613300 0.064500
vt 0.613300 0.123600
vt 0.005400 0.004900
vt 0.005400 0.059500
vt 0.747100 0.004900
vt 0.747100 0.059500
vt 0.287200 0.004900
vt 0.005400 0.004900
vt 0.287200 0.059500
vt 0.005400 0.059500
vt 0.256300 0.059500
vt 0.256300 0.004900
vt 0.005400 0.059500
vt 0.005400 0.004900
vt 0.005400 0.004900
vt 0.005400 0.059500
vt 0.256300 0.004900
vt 0.256300 0.059500
vt 0.006400 0.123600
vt 0.006400 0.064500
vt 0.210800 0.123600
vt 0.210800 0.064500
vt 0.005400 0.059500
vt 0.243100 0.059500
vt 0.005400 0.004900
vt 0.243100 0.004900
vt 0.286600 0.059500
vt 0.286600 0.004900
vt 0.005400 0.059500
vt 0.005400 0.004900
vt 0.256300 0.004900
vt 0.005400 0.004900
vt 0.256300 0.059500
vt 0.005400 0.059500
vt 0.199600 0.004900
vt 0.199600 0.059500
vt 0.005400 0.004900
vt 0.005400 0.059500
vt 0.286600 0.004900
vt 0.005400 0.004900
vt 0.286600 0.059500
vt 0.005400 0.059500
vt 0.005400 0.004900
vt 0.005400 0.059500
vt 0.286600 0.004900
vt 0.286600 0.059500
vt 0.005400 0.059500
vt 0.243700 0.059500
vt 0.005400 0.004900
vt 0.243700 0.004900
vt 0.287200 0.059500
vt 0.287200 0.004900
vt 0.005400 0.059500
vt 0.005400 0.004900
vt 0.216300 0.064500
vt 0.216300 0.123600
vt 0.006400 0.064500
vt 0.006400 0.123600
vt 0.298500 0.059500
vt 0.005400 0.059500
vt 0.298500 0.004900
vt 0.005400 0.004900
vt 0.287200 0.004900
vt 0.005400 0.004900
vt 0.287200 0.059500
vt 0.005400 0.059500
vt 0.005400 0.004900
vt 0.005400 0.059500
vt 0.287200 0.004900
vt 0.287200 0.059500
vt 0.005400 0.059500
vt 0.005400 0.004900
vt 0.256300 0.059500
vt 0.256300 0.004900
vt 0.288800 0.059500
vt 0.005400 0.059500
vt 0.288800 0.004900
vt 0.005400 0.004900
vt 0.022900 0.590600
vt 0.060800 0.590600
vt 0.022900 0.425700
vt 0.060800 0.425700
vt 0.288100 0.059500
vt 0.005400 0.059500
vt 0.288100 0.004900
vt 0.005400 0.004900
vt 0.005400 0.004900
vt 0.005400 0.059500
vt 0.286300 0.004900
vt 0.286300 0.059500
vt 0.022900 0.590600
vt 0.060800 0.590600
vt 0.022900 0.425700
vt 0.060800 0.425700
vt 0.022900 0.425700
vt 0.022900 0.590600
vt 0.060800 0.425700
vt 0.060800 0.590600
vt 0.007700 0.206300
vt 0.007700 0.370900
vt 0.075800 0.206300
vt 0.075800 0.370900
vt 0.060800 0.370900
vt 0.075800 0.370900
vt 0.060800 0.206300
vt 0.075800 0.206300
vt 0.232400 0.004900
vt 0.005400 0.004900
vt 0.232400 0.059500
vt 0.005400 0.059500
vt 0.300100 0.004900
vt 0.005400 0.004900
vt 0.300100 0.059500
vt 0.005400 0.059500
vt 0.665700 0.123800
vt 0.665700 0.064200
vt 0.006400 0.123800
vt 0.006400 0.064200
vt 0.613300 0.123600
vt 0.011400 0.123600
vt 0.613300 0.064500
vt 0.011400 0.064500
vt 0.613300 0.064500
vt 0.011400 0.064500
vt 0.613300 0.123600
vt 0.011400 0.123600
vt 0.006400 0.123600
vt 0.814800 0.123600
vt 0.006400 0.064500
vt 0.814800 0.064500
vt 0.288800 0.004900
vt 0.005400 0.004900
vt 0.288800 0.059500
vt 0.005400 0.059500
vt 0.007700 0.206300
vt 0.007700 0.370900
vt 0.022900 0.206300
vt 0.022900 0.370900
vt 0.022900 0.425700
vt 0.022900 0.590600
vt 0.060800 0.425700
vt 0.060800 0.590600
vt 0.007700 0.370900
vt 0.075800 0.370900
vt 0.007700 0.206300
vt 0.075800 0.206300
vt 0.060800 0.590600
vt 0.022900 0.590600
vt 0.060800 0.301400
vt 0.022900 0.301400
vt 0.022900 0.301400
vt 0.022900 0.590600
vt 0.060800 0.301400
vt 0.060800 0.590600
vt 0.022900 0.301400
vt 0.022900 0.590600
vt 0.060800 0.301400
vt 0.060800 0.590600
vt 0.022900 0.590600
vt 0.022900 0.301400
vt 0.060800 0.590600
vt 0.060800 0.301400
vt 0.060800 0.590600
vt 0.022900 0.590600
vt 0.060800 0.206300
vt 0.022900 0.206300
vt 0.022900 0.206300
vt 0.022900 0.590600
vt 0.060800 0.206300
vt 0.060800 0.590600
vt 0.022900 0.206300
vt 0.022900 0.590600
vt 0.060800 0.206300
vt 0.060800 0.590600
vt 0.022900 0.590600
vt 0.022900 0.206300
vt 0.060800 0.590600
vt 0.060800 0.206300
vt 0.005400 0.059500
vt 0.005400 0.004900
vt 0.006400 0.123600
vt 0.006400 0.064500
vt 0.682700 0.560100
vt 0.671900 0.650200
vt 0.739200 0.555400
vt 0.783900 0.477500
vt 0.810100 0.562800
vt 0.805400 0.653400
vt 0.763500 0.708300
vt 0.716100 0.664500
vt 0.633000 0.568200
vt 0.685700 0.507300
vt 0.641800 0.450600
vt 0.868900 0.540400
vt 0.869800 0.475400
vt 0.864200 0.598200
vt 0.852000 0.671600
vt 0.825200 0.753600
vt 0.791800 0.781400
vt 0.689700 0.800300
vt 0.740800 0.849700
vt 0.631400 0.774900
vt 0.612600 0.648500
vt 0.533300 0.502500
vt 0.559600 0.577000
vt 0.976000 0.553400
vt 0.962200 0.636700
vt 0.926700 0.720200
vt 0.900600 0.811800
vt 0.489200 0.762700
vt 0.573100 0.747000
vt 0.523400 0.641000
vt 0.415000 0.573500
vt 0.994400 0.702500
vt 0.454700 0.689400
vt 0.581300 0.816300
vt 0.239700 0.135600
vt 0.008900 0.135600
vt 0.239700 0.194600
vt 0.008900 0.194600
vt 0.008900 0.135600
vt 0.008900 0.194600
vt 0.239700 0.135600
vt 0.239700 0.194600
vt 0.008900 0.194600
vt 0.008900 0.135600
vt 0.239700 0.194600
vt 0.239700 0.135600
vt 0.239700 0.194600
vt 0.008900 0.194600
vt 0.239700 0.135600
vt 0.008900 0.135600
vt 0.239700 0.135600
vt 0.008900 0.135600
vt 0.239700 0.194600
vt 0.008900 0.194600
vt 0.008900 0.194600
vt 0.239700 0.194600
vt 0.008900 0.135600
vt 0.239700 0.135600
vt 0.008900 0.194600
vt 0.008900 0.135600
vt 0.239700 0.194600
vt 0.239700 0.135600
vt 0.008900 0.194600
vt 0.008900 0.135600
vt 0.239700 0.194600
vt 0.239700 0.135600
vt 0.239700 0.194600
vt 0.008900 0.194600
vt 0.239700 0.135600
vt 0.008900 0.135600
vt 0.008900 0.135600
vt 0.239700 0.135600
vt 0.008900 0.194600
vt 0.239700 0.194600
vt 0.239700 0.194600
vt 0.008900 0.194600
vt 0.239700 0.135600
vt 0.008900 0.135600
vt 0.008900 0.194600
vt 0.008900 0.135600
vt 0.239700 0.194600
vt 0.239700 0.135600
vt 0.008900 0.135600
vt 0.239700 0.135600
vt 0.008900 0.194600
vt 0.239700 0.194600
vt 0.239700 0.194600
vt 0.008900 0.194600
vt 0.239700 0.135600
vt 0.008900 0.135600
vt 0.207600 0.065900
vt 0.207600 0.123400
vt 0.006400 0.065900
vt 0.006400 0.123400
vt 0.298100 0.058800
vt 0.004900 0.058800
vt 0.298100 0.004900
vt 0.004900 0.004900
vt 0.004900 0.058800
vt 0.241700 0.058800
vt 0.004900 0.004900
vt 0.241700 0.004900
vt 0.665700 0.123800
vt 0.665700 0.064200
vt 0.006400 0.123800
vt 0.006400 0.064200
vt 0.008900 0.135600
vt 0.239700 0.135600
vt 0.008900 0.194600
vt 0.239700 0.194600
f 1/1 3/3 2/2
f 3/3 4/4 2/2
f 5/5 7/7 6/6
f 7/7 8/8 6/6
f 9/9 11/11 10/10
f 11/11 12/12 10/10
f 13/13 15/15 14/14
f 15/15 16/16 14/14
f 17/17 19/19 18/18
f 19/19 20/20 18/18
f 21/21 23/23 22/22
f 23/23 24/24 22/22
f 25/25 27/27 26/26
f 27/27 28/28 26/26
f 29/29 31/31 30/30
f 31/31 32/32 30/30
f 33/33 35/35 34/34
f 35/35 36/36 34/34
f 37/37 39/39 38/38
f 39/39 40/40 38/38
f 41/41 43/43 42/42
f 43/43 44/44 42/42
f 45/45 47/47 46/46
f 47/47 48/48 46/46
f 49/49 51/51 50/50
f 51/51 52/52 50/50
f 53/53 55/55 54/54
f 55/55 56/56 54/54
f 57/57 59/59 58/58
f 59/59 60/60 58/58
f 61/61 63/63 62/62
f 63/63 64/64 62/62
f 65/65 67/67 66/66
f 67/67 68/68 66/66
f 69/69 71/71 70/70
f 71/71 72/72 70/70
f 73/73 75/75 74/74
f 75/75 76/76 74/74
f 77/77 79/79 78/78
f 79/79 80/80 78/78
f 81/81 83/83 82/82
f 83/83 84/84 82/82
f 85/85 87/87 86/86
f 87/87 88/88 86/86
f 89/89 91/91 90/90
f 91/91 92/92 90/90
f 93/93 95/95 94/94
f 95/95 96/96 94/94
f 97/97 99/99 98/98
f 99/99 100/100 98/98
f 101/101 103/103 102/102
f 103/103 104/104 102/102
f 86/86 88/88 105/105
f 88/88 106/106 105/105
f 92/92 91/91 107/107
f 91/91 108/108 107/107
f 109/109 95/95 110/110
f 95/95 93/93 110/110
f 101/101 111/111 103/103
f 111/111 112/112 103/103
f 113/113 115/115 114/114
f 115/115 116/116 114/114
f 117/117 119/119 118/118
f 119/119 120/120 118/118
f 121/121 123/123 122/122
f 123/123 124/124 122/122
f 125/125 127/127 126/126
f 127/127 128/128 126/126
f 129/129 131/131 130/130
f 131/131 132/132 130/130
f 133/133 135/135 134/134
f 135/135 136/136 134/134
f 137/137 139/139 138/138
f 139/139 140/140 138/138
f 141/141 143/143 142/142
f 143/143 144/144 142/142
f 145/145 147/147 146/146
f 147/147 148/148 146/146
f 149/149 151/151 150/150
f 151/151 152/152 150/150
f 145/145 153/153 147/147
f 153/153 154/154 147/147
f 152/152 155/155 150/150
f 155/155 156/156 150/150
f 157/157 159/159 158/158
f 159/159 160/160 158/158
f 161/161 163/163 162/162
f 163/163 164/164 162/162
f 165/165 166/166 164/164
f 166/166 162/162 164/164
f 159/159 157/157 167/167
f 157/157 168/168 167/167
f 169/169 171/171 170/170
f 171/171 172/172 170/170
f 173/173 175/175 174/174
f 175/175 176/176 174/174
f 177/177 179/179 178/178
f 179/179 180/180 178/178
f 181/181 183/183 182/182
f 183/183 184/184 182/182
f 185/185 187/187 186/186
f 187/187 188/188 186/186
f 189/189 191/191 190/190
f 191/191 192/192 190/190
f 193/193 195/195 194/194
f 195/195 196/196 194/194
f 197/197 199/199 198/198
f 199/199 200/200 198/198
f 201/201 203/203 202/202
f 203/203 204/204 202/202
f 205/205 207/207 206/206
f 207/207 208/208 206/206
f 190/190 192/192 209/209
f 192/192 210/210 209/209
f 196/196 195/195 211/211
f 195/195 212/212 211/211
f 213/213 199/199 214/214
f 199/199 197/197 214/214
f 205/205 215/215 207/207
f 215/215 216/216 207/207
f 217/217 219/219 218/218
f 219/219 220/220 218/218
f 221/221 223/223 222/222
f 223/223 224/224 222/222
f 225/225 227/227 226/226
f 227/227 228/228 226/226
f 229/229 231/231 230/230
f 231/231 232/232 230/230
f 233/233 235/235 234/234
f 235/235 236/236 234/234
f 237/237 239/239 238/238
f 239/239 240/240 238/238
f 222/222 224/224 241/241
f 224/224 242/242 241/241
f 228/228 227/227 243/243
f 227/227 244/244 243/243
f 245/245 231/231 246/246
f 231/231 229/229 246/246
f 237/237 247/247 239/239
f 247/247 248/248 239/239
f 249/249 251/251 250/250
f 251/251 252/252 250/250
f 253/253 255/255 254/254
f 255/255 256/256 254/254
f 257/257 259/259 258/258
f 259/259 260/260 258/258
f 261/261 263/263 262/262
f 263/263 264/264 262/262
f 265/265 267/267 266/266
f 267/267 268/268 266/266
f 269/269 271/271 270/270
f 271/271 272/272 270/270
f 254/254 256/256 273/273
f 256/256 274/274 273/273
f 260/260 259/259 275/275
f 259/259 276/276 275/275
f 277/277 263/263 278/278
f 263/263 261/261 278/278
f 269/269 279/279 271/271
f 279/279 280/280 271/271
f 281/281 283/283 282/282
f 283/283 284/284 282/282
f 285/285 287/287 286/286
f 287/287 288/288 286/286
f 288/288 289/289 286/286
f 289/289 290/290 286/286
f 291/291 292/292 285/285
f 292/292 287/287 285/285
f 289/289 292/292 290/290
f 292/292 291/291 290/290
f 293/293 295/295 294/294
f 295/295 296/296 294/294
f 297/297 299/299 298/298
f 299/299 300/300 298/298
f 301/301 303/303 302/302
f 303/303 304/304 302/302
f 305/305 307/307 306/306
f 307/307 308/308 306/306
f 309/309 311/311 310/310
f 311/311 312/312 310/310
f 313/313 315/315 314/314
f 315/315 316/316 314/314
f 298/298 300/300 317/317
f 300/300 318/318 317/317
f 304/304 303/303 319/319
f 303/303 320/320 319/319
f 321/321 307/307 322/322
f 307/307 305/305 322/322
f 313/313 323/323 315/315
f 323/323 324/324 315/315
f 325/325 327/327 326/326
f 327/327 328/328 326/326
f 329/329 331/331 330/330
f 331/331 332/332 330/330
f 333/333 335/335 334/334
f 335/335 336/336 334/334
f 337/337 339/339 338/338
f 339/339 340/340 338/338
f 341/341 343/343 342/342
f 343/343 344/344 342/342
f 345/345 347/347 346/346
f 347/347 348/348 346/346
f 330/330 332/332 349/349
f 332/332 350/350 349/349
f 336/336 335/335 351/351
f 335/335 352/352 351/351
f 353/353 339/339 354/354
f 339/339 337/337 354/354
f 345/345 355/355 347/347
f 355/355 356/356 347/347
f 357/357 359/359 358/358
f 359/359 360/360 358/358
f 361/361 363/363 362/362
f 363/363 364/364 362/362
f 365/365 367/367 366/366
f 368/368 367/367 365/365
f 369/369 367/367 368/368
f 370/370 367/367 369/369
f 366/366 367/367 370/370
f 371/371 373/373 372/372
f 374/374 371/371 375/375
f 371/371 372/372 375/375
f 376/376 378/378 377/377
f 378/378 379/379 377/377
f 380/380 382/382 381/381
f 382/382 383/383 381/381
f 384/384 386/386 385/385
f 386/386 387/387 385/385
f 388/388 390/390 389/389
f 390/390 391/391 389/389
f 392/392 394/394 393/393
f 394/394 395/395 393/393
f 396/396 398/398 397/397
f 398/398 399/399 397/397
f 400/400 402/402 401/401
f 402/402 403/403 401/401
f 404/404 406/406 405/405
f 406/406 407/407 405/405
f 400/400 408/408 402/402
f 408/408 409/409 402/402
f 407/407 410/410 405/405
f 410/410 411/411 405/405
f 412/412 414/414 413/413
f 414/414 415/415 413/413
f 416/416 418/418 417/417
f 418/418 419/419 417/417
f 420/420 421/421 419/419
f 421/421 417/417 419/419
f 414/414 412/412 422/422
f 412/412 423/423 422/422
f 424/424 426/426 425/425
f 426/426 427/427 425/425
f 427/427 428/428 425/425
f 428/428 429/429 425/425
f 430/430 431/431 424/424
f 431/431 426/426 424/424
f 428/428 431/431 429/429
f 431/431 430/430 429/429
f 432/432 434/434 433/433
f 434/434 435/435 433/433
f 436/436 438/438 437/437
f 438/438 439/439 437/437
f 433/433 435/435 440/440
f 435/435 441/441 440/440
f 442/442 444/444 443/443
f 444/444 445/445 443/443
f 446/446 448/448 447/447
f 448/448 449/449 447/447
f 443/443 445/445 450/450
f 445/445 451/451 450/450
f 452/452 454/454 453/453
f 454/454 455/455 453/453
f 456/456 458/458 457/457
f 458/458 459/459 457/457
f 453/453 455/455 460/460
f 455/455 461/461 460/460
f 462/462 464/464 463/463
f 464/464 465/465 463/463
f 466/466 468/468 467/467
f 468/468 469/469 467/467
f 463/463 465/465 470/470
f 465/465 471/471 470/470
f 472/472 474/474 473/473
f 474/474 475/475 473/473
f 476/476 478/478 477/477
f 478/478 479/479 477/477
f 473/473 475/475 480/480
f 475/475 481/481 480/480
f 482/482 484/484 483/483
f 484/484 485/485 483/483
f 486/486 488/488 487/487
f 488/488 489/489 487/487
f 483/483 485/485 490/490
f 485/485 491/491 490/490
f 492/492 494/494 493/493
f 494/494 495/495 493/493
f 496/496 498/498 497/497
f 498/498 499/499 497/497
f 500/500 502/502 501/501
f 502/502 503/503 501/501
f 504/504 506/506 505/505
f 506/506 507/507 505/505
f 508/508 510/510 509/509
f 510/510 511/511 509/509
f 512/512 514/514 513/513
f 514/514 515/515 513/513
f 516/516 518/518 517/517
f 518/518 519/519 517/517
f 512/512 520/520 514/514
f 520/520 521/521 514/514
f 519/519 522/522 517/517
f 522/522 523/523 517/517
f 524/524 526/526 525/525
f 526/526 527/527 525/525
f 528/528 530/530 529/529
f 530/530 531/531 529/529
f 532/532 533/533 531/531
f 533/533 529/529 531/531
f 526/526 524/524 534/534
f 524/524 535/535 534/534
f 536/536 538/538 537/537
f 538/538 539/539 537/537
f 539/539 540/540 537/537
f 540/540 541/541 537/537
f 542/542 543/543 536/536
f 543/543 538/538 536/536
f 540/540 543/543 541/541
f 543/543 542/542 541/541
f 544/544 546/546 545/545
f 546/546 547/547 545/545
f 548/548 550/550 549/549
f 550/550 551/551 549/549
f 552/552 554/554 553/553
f 554/554 555/555 553/553
f 556/556 558/558 557/557
f 559/559 558/558 556/556
f 560/560 558/558 559/559
f 561/561 558/558 560/560
f 557/557 558/558 561/561
f 562/562 564/564 563/563
f 565/565 562/562 566/566
f 562/562 563/563 566/566
f 567/567 569/569 568/568
f 569/569 570/570 568/568
f 571/571 573/573 572/572
f 573/573 574/574 572/572
f 575/575 577/577 576/576
f 577/577 578/578 576/576
f 579/579 581/581 580/580
f 581/581 582/582 580/580
f 583/583 585/585 584/584
f 585/585 586/586 584/584
f 587/587 589/589 588/588
f 589/589 590/590 588/588
f 591/591 593/593 592/592
f 593/593 594/594 592/592
f 595/595 597/597 596/596
f 597/597 598/598 596/596
f 599/599 601/601 600/600
f 601/601 602/602 600/600
f 603/603 605/605 604/604
f 605/605 606/606 604/604
f 607/607 609/609 608/608
f 609/609 610/610 608/608
f 611/611 613/613 612/612
f 613/613 614/614 612/612
f 615/615 617/617 616/616
f 617/617 618/618 616/616
f 619/619 621/621 620/620
f 621/621 622/622 620/620
f 623/623 625/625 624/624
f 625/625 626/626 624/624
f 627/627 629/629 628/628
f 629/629 630/630 628/628
f 631/631 633/633 632/632
f 633/633 634/634 632/632
f 635/635 637/637 636/636
f 637/637 638/638 636/636
f 639/639 641/641 640/640
f 641/641 642/642 640/640
f 643/643 645/645 644/644
f 645/645 646/646 644/644
f 647/647 649/649 648/648
f 649/649 650/650 648/648
f 651/651 653/653 652/652
f 653/653 654/654 652/652
f 655/655 657/657 656/656
f 657/657 658/658 656/656
f 659/659 661/661 660/660
f 661/661 662/662 660/660
f 663/663 665/665 664/664
f 665/665 666/666 664/664
f 667/667 669/669 668/668
f 669/669 670/670 668/668
f 670/670 671/671 668/668
f 671/671 672/672 668/668
f 672/672 673/673 668/668
f 673/673 674/674 668/668
f 675/675 667/667 668/668
f 676/676 669/669 677/677
f 669/669 667/667 677/677
f 676/676 678/678 669/669
f 678/678 670/670 669/669
f 679/679 680/680 671/671
f 671/671 680/680 672/672
f 680/680 681/681 672/672
f 681/681 673/673 672/672
f 674/674 681/681 682/682
f 683/683 677/677 667/667
f 677/677 684/684 676/676
f 684/684 685/685 676/676
f 685/685 678/678 676/676
f 686/686 687/687 680/680
f 688/688 681/681 687/687
f 681/681 680/680 687/687
f 681/681 688/688 682/682
f 683/683 684/684 677/677
f 685/685 684/684 689/689
f 687/687 686/686 690/690
f 688/688 687/687 690/690
f 684/684 691/691 689/689
f 692/692 694/694 693/693
f 694/694 695/695 693/693
f 695/695 696/696 693/693
f 697/697 699/699 698/698
f 699/699 700/700 698/698
f 700/700 701/701 698/698
f 702/702 703/703 694/694
f 694/694 704/704 695/695
f 704/704 705/705 695/695
f 705/705 696/696 695/695
f 699/699 705/705 706/706
f 699/699 706/706 700/700
f 700/700 707/707 701/701
f 703/703 702/702 708/708
f 704/704 703/703 708/708
f 705/705 704/704 708/708
f 706/706 705/705 708/708
f 707/707 706/706 708/708
f 673/673 681/681 674/674
f 675/675 683/683 667/667
f 691/691 684/684 683/683
f 679/679 686/686 680/680
f 670/670 679/679 671/671
f 706/706 707/707 700/700
f 697/697 705/705 699/699
f 692/692 702/702 694/694
f 703/703 704/704 694/694
f 709/709 711/711 710/710
f 711/711 712/712 710/710
f 713/713 715/715 714/714
f 715/715 716/716 714/714
f 717/717 719/719 718/718
f 719/719 720/720 718/718
f 721/721 723/723 722/722
f 723/723 724/724 722/722
f 725/725 727/727 726/726
f 727/727 728/728 726/726
f 729/729 731/731 730/730
f 731/731 732/732 730/730
f 733/733 735/735 734/734
f 735/735 736/736 734/734
f 737/737 739/739 738/738
f 739/739 740/740 738/738
f 741/741 743/743 742/742
f 743/743 744/744 742/742
f 745/745 747/747 746/746
f 747/747 748/748 746/746
f 749/749 751/751 750/750
f 751/751 752/752 750/750
f 753/753 755/755 754/754
f 755/755 756/756 754/754
f 757/757 759/759 758/758
f 759/759 760/760 758/758
f 761/761 763/763 762/762
f 763/763 764/764 762/762
f 765/765 767/767 766/766
f 767/767 768/768 766/766
f 769/769 771/771 770/770
f 771/771 772/772 770/770
f 773/773 775/775 774/774
f 775/775 776/776 774/774
f 777/777 779/779 778/778
f 779/779 780/780 778/778
f 781/781 783/783 782/782
f 783/783 784/784 782/782
f 785/785 787/787 786/786
f 787/787 788/788 786/786
f 789/789 791/791 790/790
f 791/791 792/792 790/790
f 793/793 795/795 794/794
f 795/795 796/796 794/794
f 797/797 799/799 798/798
f 799/799 800/800 798/798
f 801/801 803/803 802/802
f 803/803 804/804 802/802
f 805/805 807/807 806/806
f 807/807 808/808 806/806
f 809/809 811/811 810/810
f 811/811 812/812 810/810
f 813/813 815/815 814/814
f 815/815 816/816 814/814
f 817/817 819/819 818/818
f 819/819 820/820 818/818
f 821/821 823/823 822/822
f 823/823 824/824 822/822
f 825/825 827/827 826/826
f 827/827 828/828 826/826
f 829/829 831/831 830/830
f 831/831 832/832 830/830
f 833/833 835/835 834/834
f 835/835 836/836 834/834
f 837/837 839/839 838/838
f 839/839 840/840 838/838
f 841/841 843/843 842/842
f 843/843 844/844 842/842
f 845/845 847/847 846/846
f 847/847 848/848 846/846
f 849/849 851/851 850/850
f 851/851 852/852 850/850
f 853/853 855/855 854/854
f 855/855 856/856 854/854
f 857/857 859/859 858/858
f 859/859 860/860 858/858
f 861/861 863/863 862/862
f 863/863 864/864 862/862
f 865/865 867/867 866/866
f 867/867 868/868 866/866
f 869/869 871/871 870/870
f 871/871 872/872 870/870
f 873/873 875/875 874/874
f 875/875 876/876 874/874
f 877/877 879/879 878/878
f 879/879 880/880 878/878
f 881/881 883/883 882/882
f 883/883 884/884 882/882
f 885/885 887/887 886/886
f 887/887 888/888 886/886
f 889/889 891/891 890/890
f 891/891 892/892 890/890
f 720/720 719/719 893/893
f 719/719 894/894 893/893
f 842/842 844/844 895/895
f 844/844 896/896 895/895
f 897/897 899/899 898/898
f 900/900 901/901 899/899
f 901/901 902/902 899/899
f 902/902 903/903 899/899
f 903/903 904/904 899/899
f 905/905 907/907 906/906
f 908/908 901/901 909/909
f 901/901 900/900 909/909
f 908/908 910/910 901/901
f 911/911 902/902 910/910
f 902/902 901/901 910/910
f 911/911 912/912 902/902
f 912/912 903/903 902/902
f 903/903 912/912 913/913
f 914/914 913/913 915/915
f 916/916 917/917 898/898
f 917/917 905/905 898/898
f 907/907 919/919 918/918
f 909/909 920/920 908/908
f 908/908 921/921 910/910
f 921/921 922/922 911/911
f 911/911 922/922 912/912
f 912/912 923/923 913/913
f 924/924 926/926 925/925
f 925/925 926/926 917/917
f 917/917 926/926 919/919
f 918/918 919/919 927/927
f 921/921 920/920 928/928
f 922/922 921/921 928/928
f 923/923 922/922 928/928
f 926/926 929/929 927/927
f 919/919 926/926 927/927
f 925/925 917/917 916/916
f 916/916 930/930 925/925
f 898/898 905/905 897/897
f 920/920 921/921 908/908
f 910/910 921/921 911/911
f 929/929 926/926 924/924
f 905/905 917/917 919/919
f 922/922 923/923 912/912
f 914/914 903/903 913/913
f 904/904 898/898 899/899
f 914/914 898/898 904/904
f 914/914 904/904 903/903
f 906/906 897/897 905/905
f 906/906 899/899 897/897
f 905/905 919/919 907/907
f 916/916 898/898 914/914
f 931/931 933/933 932/932
f 933/933 934/934 932/932
f 935/935 937/937 936/936
f 937/937 938/938 936/936
f 939/939 941/941 940/940
f 941/941 942/942 940/940
f 943/943 945/945 944/944
f 945/945 946/946 944/944
f 947/947 949/949 948/948
f 949/949 950/950 948/948
f 951/951 953/953 952/952
f 953/953 954/954 952/952
f 955/955 957/957 956/956
f 957/957 958/958 956/956
f 959/959 961/961 960/960
f 961/961 962/962 960/960
f 963/963 965/965 964/964
f 965/965 966/966 964/964
f 967/967 969/969 968/968
f 969/969 970/970 968/968
f 971/971 973/973 972/972
f 973/973 974/974 972/972
f 975/975 977/977 976/976
f 977/977 978/978 976/976
f 979/979 981/981 980/980
f 981/981 982/982 980/980
f 983/983 985/985 984/984
f 985/985 986/986 984/984
f 987/987 989/989 988/988
f 989/989 990/990 988/988
f 991/991 993/993 992/992
f 993/993 994/994 992/992
f 995/995 997/997 996/996
f 997/997 998/998 996/996
f 999/999 1001/1001 1000/1000
f 1001/1001 1002/1002 1000/1000
f 1003/1003 1005/1005 1004/1004
f 1005/1005 1006/1006 1004/1004
