# awd2obj de C:\Source\MexOrbit\MexOrbit.CMS\public\spacemap\3d\meshes\asset-mmo-satellite.awd
o geometry
v 67.365921 -34.697662 34.149292
v 69.463120 -41.754410 36.851990
v 64.305313 -34.932037 33.612671
v 61.933731 -42.337112 35.480347
v 68.459000 -42.804749 4.316956
v 75.575272 -42.158585 6.403931
v 69.587051 -35.499023 6.733154
v 72.490646 -35.235718 7.637390
v 68.955521 -27.214478 5.484070
v 68.763260 -35.434143 10.226440
v 67.808334 -27.116455 10.982605
v 64.305313 -34.932037 33.612671
v 61.933731 -42.337112 35.480347
v 64.917160 -34.998352 29.699524
v 63.582108 -42.466599 27.344788
v 71.688187 -35.175262 11.044373
v 73.727921 -42.026031 13.612305
v 67.365921 -34.697662 34.149292
v 67.339035 -26.549805 35.155640
v 67.955887 -34.758759 30.322021
v 67.905136 -26.656036 29.034424
v 71.070328 -41.873215 28.876221
v 71.688187 -35.175262 11.044373
v 73.727921 -42.026031 13.612305
v 68.763260 -35.434143 10.226440
v 66.571701 -42.663834 11.685791
v -31.588425 13.415771 -17.221863
v 1.301834 11.252472 -27.704712
v 19.757401 8.841339 29.133667
v 26.655563 8.999512 -5.117920
v 26.254654 3.422119 -5.224426
v 26.655563 8.999512 -5.117920
v 1.233841 5.653320 -27.922424
v 1.301834 11.252472 -27.704712
v -13.214951 5.302826 40.218323
v -13.314133 10.743011 40.562683
v 19.914536 3.043365 29.269409
v 19.757401 8.841339 29.133667
v -38.565475 13.307281 17.442139
v -13.314133 10.743011 40.562683
v -13.214951 5.302826 40.218323
v 1.233841 5.653320 -27.922424
v -39.294113 7.700317 17.397095
v -32.323532 7.860077 -17.215027
v -31.588425 13.415771 -17.221863
v -38.565475 13.307281 17.442139
v -32.323532 7.860077 -17.215027
v -39.294113 7.700317 17.397095
v -32.323532 7.860077 -17.215027
v -38.565475 13.307281 17.442139
v 19.914536 3.043365 29.269409
v 26.254654 3.422119 -5.224426
v -23.052876 -17.961365 -69.890137
v -41.744614 -16.317291 -63.186401
v 19.914536 3.043365 29.269409
v 19.757401 8.841339 29.133667
v 64.525284 -26.020599 30.431763
v 64.511826 -20.835999 30.209045
v 64.525284 -26.020599 30.431763
v 19.757401 8.841339 29.133667
v 26.655563 8.999512 -5.117920
v 26.254654 3.422119 -5.224426
v 68.389786 -20.747070 10.953064
v 68.581192 -25.927551 10.292297
v 68.389786 -20.747070 10.953064
v 26.254654 3.422119 -5.224426
v 64.511826 -20.835999 30.209045
v 68.389786 -20.747070 10.953064
v 68.581192 -25.927551 10.292297
v 64.525284 -26.020599 30.431763
v -13.314133 10.743011 40.562683
v -13.214951 5.302826 40.218323
v -50.424484 -13.321930 69.220032
v -50.607468 -18.408569 69.908081
v -50.424484 -13.321930 69.220032
v -13.214951 5.302826 40.218323
v -39.294113 7.700317 17.397095
v -38.565475 13.307281 17.442139
v -65.662529 -17.427826 56.632263
v -65.117111 -12.018524 56.248169
v -65.662529 -17.427826 56.632263
v -38.565475 13.307281 17.442139
v -65.117111 -12.018524 56.248169
v -50.424484 -13.321930 69.220032
v -50.607468 -18.408569 69.908081
v -13.214951 5.302826 40.218323
v -65.662529 -17.427826 56.632263
v -39.294113 7.700317 17.397095
v -65.662529 -17.427826 56.632263
v -13.214951 5.302826 40.218323
v -23.052876 -17.961365 -69.890137
v 1.233841 5.653320 -27.922424
v -22.489548 -12.681213 -69.490784
v 1.301834 11.252472 -27.704712
v -22.489548 -12.681213 -69.490784
v 1.233841 5.653320 -27.922424
v -22.489548 -12.681213 -69.490784
v -41.060043 -11.466797 -63.206604
v -41.744614 -16.317291 -63.186401
v -41.060043 -11.466797 -63.206604
v -32.323532 7.860077 -17.215027
v -31.588425 13.415771 -17.221863
v -32.323532 7.860077 -17.215027
v -41.060043 -11.466797 -63.206604
v -8.604721 -5.322601 10.209961
v -30.636581 50.372040 -24.179932
v -19.311996 -7.665527 13.760132
v -41.343735 48.029266 -20.629639
v -41.283310 48.187317 -20.247498
v -30.576462 50.530121 -23.797546
v -19.251816 -7.436035 14.093262
v -8.544540 -5.093140 10.542969
v -39.607834 22.579285 -13.388428
v -32.821823 22.065613 -12.024292
v -44.522995 22.466553 11.019043
v -37.737411 21.952850 12.383179
v -40.820297 5.703979 -13.710632
v -45.735580 5.591217 10.696777
v -34.034470 5.190308 -12.346497
v -38.950119 5.077667 12.060974
v -34.034470 5.190308 -12.346497
v -38.950119 5.077667 12.060974
v -32.821823 22.065613 -12.024292
v -37.737411 21.952850 12.383179
v -40.820297 5.703979 -13.710632
v -34.034470 5.190308 -12.346497
v -39.607834 22.579285 -13.388428
v -32.821823 22.065613 -12.024292
v -45.735580 5.591217 10.696777
v -40.820297 5.703979 -13.710632
v -44.522995 22.466553 11.019043
v -39.607834 22.579285 -13.388428
v -38.950119 5.077667 12.060974
v -45.735580 5.591217 10.696777
v -37.737411 21.952850 12.383179
v -44.522995 22.466553 11.019043
v 11.601639 -1.118225 22.194153
v 41.830338 55.615143 47.353882
v 12.244339 0.262726 17.721680
v 42.473404 56.996124 42.881470
v 42.070602 57.207642 42.899658
v 41.427383 55.826752 47.356445
v 11.841690 0.474396 17.739929
v 11.198532 -0.906586 22.196838
v -18.930222 10.020569 47.756653
v -39.395798 -53.766785 61.134827
v -9.527817 6.579895 43.407593
v -29.993149 -57.207657 56.785706
v -29.739792 -57.178864 57.310669
v -39.142258 -53.737976 61.659851
v -9.274399 6.608673 43.932678
v -18.676804 10.049316 48.281555
v -41.858078 -5.835266 61.036499
v -27.416550 3.586395 49.353333
v -34.892807 -7.839111 62.605408
v -24.009384 -0.766571 54.202271
v -24.009384 -0.766571 54.202271
v -26.069748 -1.835144 47.810669
v -34.892807 -7.839111 62.605408
v -40.511276 -11.256927 59.493591
v -34.892807 -7.839111 62.605408
v -26.069748 -1.835144 47.810669
v -43.199448 -4.614868 54.635132
v -40.511276 -11.256927 59.493591
v -32.710556 2.528442 45.803162
v -26.069748 -1.835144 47.810669
v -32.710556 2.528442 45.803162
v -40.511276 -11.256927 59.493591
v -32.710556 2.528442 45.803162
v -43.199448 -4.614868 54.635132
v -41.858078 -5.835266 61.036499
v -34.892807 -7.839111 62.605408
v -40.511276 -11.256927 59.493591
v -43.199448 -4.614868 54.635132
v -41.858078 -5.835266 61.036499
v -40.511276 -11.256927 59.493591
v -26.069748 -1.835144 47.810669
v -24.009384 -0.766571 54.202271
v -27.416550 3.586395 49.353333
v -32.710556 2.528442 45.803162
v -26.069748 -1.835144 47.810669
v -27.416550 3.586395 49.353333
v -59.671066 -5.415405 40.224365
v -56.322067 -9.665894 45.123779
v -51.962875 1.938995 29.017273
v -45.526108 0.087769 30.191956
v -51.962875 1.938995 29.017273
v -56.322067 -9.665894 45.123779
v -51.962875 1.938995 29.017273
v -46.423447 5.464294 32.142944
v -59.671066 -5.415405 40.224365
v -57.219223 -4.289185 47.074951
v -50.676437 -3.963867 48.032715
v -42.488693 3.383972 37.168640
v -42.488693 3.383972 37.168640
v -45.526108 0.087769 30.191956
v -50.676437 -3.963867 48.032715
v -56.322067 -9.665894 45.123779
v -50.676437 -3.963867 48.032715
v -45.526108 0.087769 30.191956
v -46.423447 5.464294 32.142944
v -51.962875 1.938995 29.017273
v -45.526108 0.087769 30.191956
v -56.322067 -9.665894 45.123779
v -59.671066 -5.415405 40.224365
v -57.219223 -4.289185 47.074951
v -50.676437 -3.963867 48.032715
v -56.322067 -9.665894 45.123779
v -57.219223 -4.289185 47.074951
v -42.488693 3.383972 37.168640
v -46.423447 5.464294 32.142944
v -45.526108 0.087769 30.191956
v -43.079269 10.006256 -17.989197
v -31.803207 9.152740 -15.722168
v -42.847275 13.234192 -17.927490
v -31.571152 12.380890 -15.660461
v -42.847275 13.234192 -17.927490
v -31.803207 9.152740 -15.722168
v -31.803207 9.152740 -15.722168
v -43.079269 10.006256 -17.989197
v -38.238632 9.005463 16.233459
v -49.514694 9.858704 13.966675
v -49.282639 13.086670 14.028259
v -38.006577 12.233185 16.295410
v -49.514694 9.858704 13.966675
v -38.238632 9.005463 16.233459
v -49.514694 9.858704 13.966675
v -38.006577 12.233185 16.295410
v -38.006577 12.233185 16.295410
v -49.282639 13.086670 14.028259
v -31.571152 12.380890 -15.660461
v -42.847275 13.234192 -17.927490
v -49.514694 9.858704 13.966675
v -43.079269 10.006256 -17.989197
v -49.282639 13.086670 14.028259
v -42.847275 13.234192 -17.927490
v -40.480637 4.852417 -32.308472
v -40.773788 0.224426 -31.099670
v -45.126144 -7.350922 -54.861328
v -45.421127 -11.984192 -53.661926
v -34.964523 -0.012299 -31.765015
v -40.773788 0.224426 -31.099670
v -34.554733 4.617554 -33.349060
v -40.480637 4.852417 -32.308472
v -34.554733 4.617554 -33.349060
v -40.773788 0.224426 -31.099670
v -34.554733 4.617554 -33.349060
v -40.480637 4.852417 -32.308472
v -39.549850 -7.567139 -55.853271
v -45.126144 -7.350922 -54.861328
v -39.737778 -12.552002 -54.939453
v -39.549850 -7.567139 -55.853271
v -45.421127 -11.984192 -53.661926
v -45.126144 -7.350922 -54.861328
v -45.421127 -11.984192 -53.661926
v -39.549850 -7.567139 -55.853271
v -40.773788 0.224426 -31.099670
v -34.964523 -0.012299 -31.765015
v -45.421127 -11.984192 -53.661926
v -39.737778 -12.552002 -54.939453
v -1.940475 -2.329773 -44.268799
v -2.365097 2.343445 -45.368774
v -13.355209 -14.095978 -64.541870
v -13.771164 -9.416046 -65.499451
v -7.850571 2.897247 -42.432312
v -2.365097 2.343445 -45.368774
v -7.735764 -1.769379 -40.908020
v -1.940475 -2.329773 -44.268799
v -7.735764 -1.769379 -40.908020
v -2.365097 2.343445 -45.368774
v -18.835373 -13.893219 -62.059998
v -13.355209 -14.095978 -64.541870
v -18.952927 -8.888123 -62.869385
v -13.771164 -9.416046 -65.499451
v -18.952927 -8.888123 -62.869385
v -13.355209 -14.095978 -64.541870
v -18.952927 -8.888123 -62.869385
v -13.771164 -9.416046 -65.499451
v -7.850571 2.897247 -42.432312
v -2.365097 2.343445 -45.368774
v -7.735764 -1.769379 -40.908020
v -1.940475 -2.329773 -44.268799
v -18.835373 -13.893219 -62.059998
v -13.355209 -14.095978 -64.541870
v -20.728378 -11.831482 -64.054626
v -21.560898 -11.727478 -66.368652
v -8.817978 -12.170197 -68.552490
v -8.305222 -12.534943 -71.355225
v -21.560898 -11.727478 -66.368652
v -21.321152 -14.234070 -65.258423
v -8.305222 -12.534943 -71.355225
v -8.772385 -15.285797 -70.009949
v -21.321152 -14.234070 -65.258423
v -20.728378 -11.831482 -64.054626
v -8.772385 -15.285797 -70.009949
v -8.817978 -12.170197 -68.552490
v 65.851181 -18.813568 -1.819946
v 68.525650 -19.363678 -2.711121
v 68.525650 -19.363678 -2.711121
v 66.977707 -22.020050 -2.321594
v 66.977707 -22.020050 -2.321594
v 65.851181 -18.813568 -1.819946
v 62.972397 -19.269562 10.525391
v 65.371719 -19.451874 11.043030
v 65.371719 -19.451874 11.043030
v 63.995712 -21.815369 10.737488
v 63.995712 -21.815369 10.737488
v 62.972397 -19.269562 10.525391
v 55.101120 -11.176514 11.891052
v 57.357651 -18.212006 8.375061
v 43.403183 -2.829041 8.064819
v 41.200455 -7.268768 2.516907
v 43.403183 -2.829041 8.064819
v 57.357651 -18.212006 8.375061
v 41.626663 -1.338867 2.630127
v 57.783646 -12.282013 8.488403
v 43.403183 -2.829041 8.064819
v 55.101120 -11.176514 11.891052
v 58.492294 -14.000336 -3.234497
v 46.819748 -5.587311 -7.654663
v 46.819748 -5.587311 -7.654663
v 41.200455 -7.268768 2.516907
v 58.492294 -14.000336 -3.234497
v 57.357651 -18.212006 8.375061
v 58.492294 -14.000336 -3.234497
v 41.200455 -7.268768 2.516907
v 41.200455 -7.268768 2.516907
v 46.819748 -5.587311 -7.654663
v 41.626663 -1.338867 2.630127
v 57.783646 -12.282013 8.488403
v 58.492294 -14.000336 -3.234497
v 57.357651 -18.212006 8.375061
v 55.101120 -11.176514 11.891052
v 57.783646 -12.282013 8.488403
v 57.357651 -18.212006 8.375061
v 43.403183 -2.829041 8.064819
v 41.200455 -7.268768 2.516907
v 41.626663 -1.338867 2.630127
v 20.933914 -18.972382 7.304565
v 69.933701 -37.614990 -42.890381
v 12.040909 -20.848602 -2.117188
v 61.040695 -39.491119 -52.312256
v 61.075821 -39.101318 -52.422546
v 69.968582 -37.225311 -43.000977
v 12.075790 -20.458862 -2.227844
v 20.968796 -18.582611 7.194031
v 52.880447 -12.391754 28.440308
v 36.577438 -1.454681 27.701965
v 52.231979 -12.133789 24.611328
v 39.950027 -3.799744 23.686584
v 39.950027 -3.799744 23.686584
v 36.151443 -7.848480 27.588806
v 52.231979 -12.133789 24.611328
v 52.454239 -18.785522 28.327087
v 52.231979 -12.133789 24.611328
v 36.151443 -7.848480 27.588806
v 49.881912 -14.197815 39.518066
v 52.454239 -18.785522 28.327087
v 37.393478 -5.803436 39.149292
v 36.151443 -7.848480 27.588806
v 37.393478 -5.803436 39.149292
v 52.454239 -18.785522 28.327087
v 37.393478 -5.803436 39.149292
v 49.881912 -14.197815 39.518066
v 36.577438 -1.454681 27.701965
v 37.393478 -5.803436 39.149292
v 36.151443 -7.848480 27.588806
v 39.950027 -3.799744 23.686584
v 36.577438 -1.454681 27.701965
v 36.151443 -7.848480 27.588806
v 52.454239 -18.785522 28.327087
v 49.881912 -14.197815 39.518066
v 52.880447 -12.391754 28.440308
v 52.231979 -12.133789 24.611328
v 52.454239 -18.785522 28.327087
v 52.880447 -12.391754 28.440308
v -30.112656 -26.742462 9.346924
v -28.614120 -5.888428 9.744995
v -40.108322 -26.154999 16.193176
v -38.609604 -5.300964 16.591309
v -40.108322 -26.154999 16.193176
v -38.609604 -5.300964 16.591309
v -38.260910 -26.459808 25.204163
v -36.762436 -5.605804 25.602295
v -38.260910 -26.459808 25.204163
v -36.762436 -5.605804 25.602295
v -28.116318 -27.227692 27.243530
v -26.617599 -6.373688 27.641968
v -28.116318 -27.227692 27.243530
v -26.617599 -6.373688 27.641968
v -22.299606 -27.890594 40.076721
v -20.800827 -7.036591 40.474670
v -22.299606 -27.890594 40.076721
v -20.800827 -7.036591 40.474670
v -15.897385 -28.375244 41.363647
v -14.398911 -7.521210 41.761841
v -15.897385 -28.375244 41.363647
v -14.398911 -7.521210 41.761841
v -5.268173 -28.808624 24.061340
v -3.769699 -7.954651 24.459595
v -5.268173 -28.808624 24.061340
v -3.769699 -7.954651 24.459595
v 23.339005 -30.788361 20.093018
v 24.837479 -9.934509 20.491150
v 27.907089 -9.864044 5.249207
v 26.408524 -30.717987 4.851013
v 24.837479 -9.934509 20.491150
v 23.339005 -30.788361 20.093018
v 26.408524 -30.717987 4.851013
v 27.907089 -9.864044 5.249207
v 1.563919 -28.651917 -9.863525
v 3.062393 -7.798096 -9.465210
v 1.563919 -28.651917 -9.863525
v 3.062393 -7.798096 -9.465210
v -1.540329 -28.045807 -29.926819
v -0.041855 -7.191925 -29.528687
v -1.540329 -28.045807 -29.926819
v -0.041855 -7.191925 -29.528687
v -7.942307 -27.561310 -31.213928
v -6.443893 -6.707397 -30.815613
v -7.942307 -27.561310 -31.213928
v -6.443893 -6.707397 -30.815613
v -18.274155 -27.001801 -21.627441
v -16.775497 -6.147919 -21.229187
v -18.274155 -27.001801 -21.627441
v -16.775497 -6.147919 -21.229187
v -28.418747 -26.234009 -23.666687
v -26.920395 -5.380005 -23.268555
v -28.418747 -26.234009 -23.666687
v -26.920395 -5.380005 -23.268555
v -33.610580 -26.005920 -16.070984
v -32.112045 -5.152008 -15.672485
v -33.610580 -26.005920 -16.070984
v -32.112045 -5.152008 -15.672485
v -27.043259 -26.672180 -5.894836
v -25.544785 -5.818115 -5.496826
v -28.614120 -5.888428 9.744995
v -30.112656 -26.742462 9.346924
v -25.544785 -5.818115 -5.496826
v -27.043259 -26.672180 -5.894836
v -38.609604 -5.300964 16.591309
v -28.614120 -5.888428 9.744995
v -36.762436 -5.605804 25.602295
v -26.617599 -6.373688 27.641968
v -40.108322 -26.154999 16.193176
v -38.260910 -26.459808 25.204163
v -30.112656 -26.742462 9.346924
v -28.116318 -27.227692 27.243530
v -3.769699 -7.954651 24.459595
v -14.398911 -7.521210 41.761841
v -20.800827 -7.036591 40.474670
v -16.775497 -6.147919 -21.229187
v -6.443893 -6.707397 -30.815613
v 3.062393 -7.798096 -9.465210
v -0.041855 -7.191925 -29.528687
v -25.544785 -5.818115 -5.496826
v -32.112045 -5.152008 -15.672485
v -26.920395 -5.380005 -23.268555
v 27.907089 -9.864044 5.249207
v 24.837479 -9.934509 20.491150
v -18.274155 -27.001801 -21.627441
v -28.418747 -26.234009 -23.666687
v -27.043259 -26.672180 -5.894836
v -33.610580 -26.005920 -16.070984
v -5.268173 -28.808624 24.061340
v 23.339005 -30.788361 20.093018
v 1.563919 -28.651917 -9.863525
v 26.408524 -30.717987 4.851013
v -1.540329 -28.045807 -29.926819
v -7.942307 -27.561310 -31.213928
v -22.299606 -27.890594 40.076721
v -15.897385 -28.375244 41.363647
v 17.354050 -9.484131 -32.874695
v 30.715286 -11.927887 -23.364136
v 18.287033 -2.401581 -17.910889
v 16.901535 -14.469727 -36.019592
v 23.293777 -17.436554 -35.013794
v 11.565750 -10.379852 -33.678345
v 8.716599 -6.263184 -28.617615
v 9.117142 -3.222626 -22.193420
v 12.660141 -2.072754 -16.127197
v 18.396378 -3.121918 -12.044067
v 24.788834 -6.088959 -11.038391
v 30.124405 -10.178558 -13.379578
v 32.973648 -14.295258 -18.440125
v 32.573257 -17.335907 -24.864136
v 29.030014 -18.485748 -30.930542
v 23.293777 -17.436554 -35.013794
v 16.901535 -14.469727 -36.019592
v 14.272598 -26.662201 -30.084778
v 11.565750 -10.379852 -33.678345
v 4.316299 -19.030701 -25.716064
v 8.716599 -6.263184 -28.617615
v 9.117142 -3.222626 -22.193420
v 5.063614 -13.356934 -13.728516
v 12.660141 -2.072754 -16.127197
v 12.660141 -2.072754 -16.127197
v 18.396378 -3.121918 -12.044067
v 5.063614 -13.356934 -13.728516
v 15.767654 -15.314575 -6.109375
v 24.788834 -6.088959 -11.038391
v 30.124405 -10.178558 -13.379578
v 25.723953 -22.946045 -10.477966
v 32.973648 -14.295258 -18.440125
v 32.573257 -17.335907 -24.864136
v 24.976456 -28.620026 -22.465759
v 29.030014 -18.485748 -30.930542
v 4.316299 -19.030701 -25.716064
v 5.063614 -13.356934 -13.728516
v 14.272598 -26.662201 -30.084778
v 15.767654 -15.314575 -6.109375
v 25.723953 -22.946045 -10.477966
v 24.976456 -28.620026 -22.465759
v 2.611526 -2.631348 41.678040
v 3.278885 -2.923798 35.808350
v 10.155807 -4.672272 35.187012
v -2.840744 -3.155487 39.446350
v -6.562973 -5.305603 45.125977
v -6.890732 -8.797729 51.325562
v 1.848160 -10.765778 56.118469
v -3.736069 -12.696259 56.383789
v 2.055679 -15.956757 58.945312
v 8.932785 -17.705322 58.323792
v 15.052231 -17.473633 54.686096
v 16.102371 -10.225830 47.644592
v 18.774582 -15.323578 49.006287
v 19.102371 -11.831390 42.806824
v 15.947525 -7.932648 37.748657
v 3.278885 -2.923798 35.808350
v 3.294937 -14.959137 29.029724
v 10.155807 -4.672272 35.187012
v 3.294937 -14.959137 29.029724
v 3.278885 -2.923798 35.808350
v -8.124252 -15.391724 35.818176
v -2.840744 -3.155487 39.446350
v -6.562973 -5.305603 45.125977
v -8.735947 -21.908234 47.386536
v -6.890732 -8.797729 51.325562
v -3.736069 -12.696259 56.383789
v 2.071793 -27.992310 52.166626
v 2.055679 -15.956757 58.945312
v 8.932785 -17.705322 58.323792
v 13.490921 -27.559845 45.378113
v 15.052231 -17.473633 54.686096
v 18.774582 -15.323578 49.006287
v 14.102463 -21.043304 33.809570
v 19.102371 -11.831390 42.806824
v 15.947525 -7.932648 37.748657
v -8.124252 -15.391724 35.818176
v -8.735947 -21.908234 47.386536
v 13.490921 -27.559845 45.378113
v 2.071793 -27.992310 52.166626
v 3.294937 -14.959137 29.029724
v 14.102463 -21.043304 33.809570
v -46.834213 1.653839 1.540894
v -56.066574 -11.180206 6.541016
v -54.518539 -7.884460 -9.635864
v -49.274582 -7.406586 13.077576
v -53.467514 -12.951843 11.546631
v -45.310898 -1.896698 10.930969
v -42.638779 2.101349 5.682068
v -41.974106 3.516052 -1.263062
v -43.495163 1.968842 -8.043030
v -46.794235 -2.126190 -12.841309
v -50.987045 -7.671356 -14.372314
v -54.950607 -13.181122 -12.225708
v -57.623093 -17.179108 -6.976746
v -58.287338 -18.594208 -0.031921
v -56.766586 -17.046814 6.748108
v -53.467514 -12.951843 11.546631
v -49.274582 -7.406586 13.077576
v -40.657944 -18.116547 11.720093
v -45.310898 -1.896698 10.930969
v -33.261826 -7.834961 7.714600
v -42.638779 2.101349 5.682068
v -41.974106 3.516052 -1.263062
v -32.021530 -5.194733 -5.244934
v -32.021530 -5.194733 -5.244934
v -41.974106 3.516052 -1.263062
v -43.495163 1.968842 -8.043030
v -46.794235 -2.126190 -12.841309
v -38.177475 -12.835999 -14.198608
v -50.987045 -7.671356 -14.372314
v -54.950607 -13.181122 -12.225708
v -45.573715 -23.117371 -10.193298
v -57.623093 -17.179108 -6.976746
v -58.287338 -18.594208 -0.031921
v -46.813644 -25.757782 2.766418
v -56.766586 -17.046814 6.748108
v -32.021530 -5.194733 -5.244934
v -38.177475 -12.835999 -14.198608
v -33.261826 -7.834961 7.714600
v -45.573715 -23.117371 -10.193298
v -46.813644 -25.757782 2.766418
v -40.657944 -18.116547 11.720093
v -28.170395 12.956696 -12.420227
v 0.567947 10.844513 -22.951355
v -28.415329 7.588226 -12.450439
v 0.284866 5.267090 -22.648560
v 21.472977 8.828522 -3.340576
v 16.918716 9.026093 25.160645
v 21.666733 3.253326 -3.414856
v 16.661911 3.583405 24.910583
v -13.148178 5.571259 34.825684
v -12.759201 10.466187 34.331543
v -33.876266 7.150818 16.499512
v -33.107407 12.557037 16.247986
v -33.876266 7.150818 16.499512
v -12.759201 10.466187 34.331543
v -2.665939 11.048370 -24.568359
v 22.687790 8.795441 -1.981628
v -2.733871 5.449188 -24.786255
v 22.287033 3.218018 -2.088013
v 18.115616 8.869598 24.154114
v -14.956223 10.996429 35.583130
v 18.272598 3.294403 24.289917
v -14.856918 5.553833 35.238647
v -34.200180 7.264313 19.316223
v -33.471542 12.871277 19.356567
v -27.451096 7.424103 -15.339661
v -26.715988 12.979767 -15.351196
v -27.451096 7.424103 -15.339661
v -33.471542 12.871277 19.356567
v 64.977554 -20.905396 28.114807
v 19.870773 8.730865 25.778503
v 63.920425 -26.090027 28.337524
v 18.371841 4.241974 25.818054
v 63.920425 -26.090027 28.337524
v 19.870773 8.730865 25.778503
v 66.841690 -25.974121 12.230347
v 23.800400 4.206970 -1.763794
v 67.720871 -20.793579 12.891052
v 25.245834 8.908386 -1.317200
v 67.720871 -20.793579 12.891052
v 23.800400 4.206970 -1.763794
v -52.572495 -18.385803 68.051331
v -15.107895 5.637817 36.965881
v -52.710190 -13.299133 68.109924
v -15.554855 10.803894 37.596497
v -52.710190 -13.299133 68.109924
v -15.107895 5.637817 36.965881
v -63.810410 -12.187225 57.751160
v -35.716537 12.970428 19.884827
v -64.034897 -17.596527 57.388550
v -34.886520 9.152527 17.602051
v -64.034897 -17.596527 57.388550
v -35.716537 12.970428 19.884827
v -1.419540 11.252472 -26.367859
v 0.025467 7.530426 -23.836121
v -25.211044 -12.681213 -69.490784
v -24.967880 -17.961365 -69.160706
v -25.211044 -12.681213 -69.490784
v 0.025467 7.530426 -23.836121
v -28.234909 12.598633 -19.124146
v -39.727219 -12.160889 -64.499756
v -28.163559 8.720367 -15.897095
v -40.411484 -17.011261 -64.479858
v -28.163559 8.720367 -15.897095
v -39.727219 -12.160889 -64.499756
v 30.177505 -1.311157 8.846008
v 36.358505 -1.703186 6.119263
v 37.282059 3.410217 14.882324
v 28.258133 -1.296936 15.335510
v 30.969986 -1.610016 21.527527
v 37.441177 -2.111572 23.442566
v 43.622330 -2.503784 20.715820
v 45.541397 -2.517700 14.226563
v 42.829849 -2.204773 8.034302
v 30.177505 -1.311157 8.846008
v 30.391495 -33.654633 5.737976
v 36.358505 -1.703186 6.119263
v 26.171921 -33.592773 18.381714
v 28.258133 -1.296936 15.335510
v 30.969986 -1.610016 21.527527
v 38.779648 -34.579041 22.594360
v 37.441177 -2.111572 23.442566
v 43.622330 -2.503784 20.715820
v 42.999100 -34.640839 9.950562
v 45.541397 -2.517700 14.226563
v 42.829849 -2.204773 8.034302
v 42.999100 -34.640839 9.950562
v 45.541397 -2.517700 14.226563
v -27.492599 0.558014 28.033447
v -33.320480 3.848999 27.035034
v -46.540756 -22.235901 41.156982
v -22.633102 -0.046600 32.704407
v -38.451096 -23.007721 49.353638
v -22.000595 2.910309 38.758362
v -22.633102 -0.046600 32.704407
v -38.451096 -23.007721 49.353638
v -25.279526 7.293182 42.737000
v -44.327988 -15.500763 55.860840
v -31.107956 10.584198 41.739136
v -35.967148 11.188782 37.068237
v -52.417892 -14.729279 47.663818
v -36.599655 8.231842 31.014221
v -33.320480 3.848999 27.035034
v -27.492599 0.558014 28.033447
v -26.636459 9.605896 32.637390
v -22.633102 -0.046600 32.704407
v -22.000595 2.910309 38.758362
v -25.279526 7.293182 42.737000
v -31.107956 10.584198 41.739136
v -35.967148 11.188782 37.068237
v -36.599655 8.231842 31.014221
v -24.490158 3.550903 -40.075195
v -17.926254 3.109589 -41.661499
v -19.318283 8.386536 -32.749695
v -28.487411 3.734039 -34.617432
v -26.913864 3.495453 -28.039917
v -21.474960 3.028259 -24.040833
v -14.910995 2.586792 -25.627197
v -10.914108 2.403656 -31.084656
v -12.487289 2.642365 -37.661987
v -28.803146 -28.566803 -37.961182
v -17.521164 -29.333405 -40.276428
v -24.490158 3.550903 -40.075195
v -17.926254 3.109589 -41.661499
v -28.487411 3.734039 -34.617432
v -26.508774 -28.947632 -26.655457
v -26.913864 3.495453 -28.039917
v -21.474960 3.028259 -24.040833
v -15.226791 -29.714142 -28.970520
v -14.910995 2.586792 -25.627197
v -10.914108 2.403656 -31.084656
v -15.226791 -29.714142 -28.970520
v -14.910995 2.586792 -25.627197
v -12.487289 2.642365 -37.661987
v 17.681931 24.104279 4.909119
v 13.020767 27.853882 1.745483
v 0.897171 -0.887360 -7.334351
v 18.813461 21.285767 10.956299
v 2.692398 -6.176880 4.521423
v 15.051773 21.355286 16.581482
v 18.813461 21.285767 10.956299
v 2.692398 -6.176880 4.521423
v 9.169785 23.829010 18.834900
v -8.767929 -1.199799 8.477661
v 4.508621 27.578644 15.671387
v 3.377213 30.397156 9.623901
v -10.563339 4.089935 -3.378296
v 7.139084 30.327637 3.999023
v 13.020767 27.853882 1.745483
v 17.681931 24.104279 4.909119
v 13.576767 30.279907 11.894897
v 18.813461 21.285767 10.956299
v 15.051773 21.355286 16.581482
v 9.169785 23.829010 18.834900
v 4.508621 27.578644 15.671387
v 3.377213 30.397156 9.623901
v 7.139084 30.327637 3.999023
v 32.784958 -5.767487 28.041809
v 27.845993 -13.580963 26.973633
v 30.631790 -6.111145 40.509644
v 25.692886 -13.924591 39.441711
v 22.588547 0.893494 26.464355
v 17.649643 -6.920013 25.396362
v 32.784958 -5.767487 28.041809
v 27.845993 -13.580963 26.973633
v 20.435440 0.549927 38.932617
v 15.496536 -7.263611 37.864319
v 22.588547 0.893494 26.464355
v 17.649643 -6.920013 25.396362
v 30.631790 -6.111145 40.509644
v 25.692886 -13.924591 39.441711
v 20.435440 0.549927 38.932617
v 15.496536 -7.263611 37.864319
v -33.588120 -18.841431 -16.180542
v -31.769882 -4.169495 -19.699524
v -29.421371 -23.915283 -35.181396
v -27.603134 -9.243439 -38.700562
v -52.526596 -17.572144 -20.672791
v -50.708664 -2.900299 -24.191956
v -33.588120 -18.841431 -16.180542
v -31.769882 -4.169495 -19.699524
v -48.359909 -22.646057 -39.673523
v -46.541794 -7.974152 -43.192505
v -52.526596 -17.572144 -20.672791
v -50.708664 -2.900299 -24.191956
v -29.421371 -23.915283 -35.181396
v -27.603134 -9.243439 -38.700562
v -48.359909 -22.646057 -39.673523
v -46.541794 -7.974152 -43.192505
v -44.740158 -1.717102 30.286194
v -44.416000 -11.212738 25.098816
v -47.247604 -8.627045 42.777771
v -46.923447 -18.122589 37.590698
v -58.584885 -0.914337 27.951477
v -58.260788 -10.409851 22.764099
v -44.740158 -1.717102 30.286194
v -44.416000 -11.212738 25.098816
v -61.092026 -7.824005 40.443054
v -60.768112 -17.319641 35.256104
v -58.584885 -0.914337 27.951477
v -58.260788 -10.409851 22.764099
v -47.247604 -8.627045 42.777771
v -46.923447 -18.122589 37.590698
v -61.092026 -7.824005 40.443054
v -60.768112 -17.319641 35.256104
v -33.588120 -18.841431 -16.180542
v -29.421371 -23.915283 -35.181396
v -52.526596 -17.572144 -20.672791
v -48.359909 -22.646057 -39.673523
v -52.526596 -17.572144 -20.672791
v -29.421371 -23.915283 -35.181396
v -27.603134 -9.243439 -38.700562
v -31.769882 -4.169495 -19.699524
v -46.541794 -7.974152 -43.192505
v -50.708664 -2.900299 -24.191956
v -46.541794 -7.974152 -43.192505
v -31.769882 -4.169495 -19.699524
v -44.740158 -1.717102 30.286194
v -47.247604 -8.627045 42.777771
v -58.584885 -0.914337 27.951477
v -61.092026 -7.824005 40.443054
v -58.584885 -0.914337 27.951477
v -47.247604 -8.627045 42.777771
v -46.923447 -18.122589 37.590698
v -44.416000 -11.212738 25.098816
v -60.768112 -17.319641 35.256104
v -58.260788 -10.409851 22.764099
v -60.768112 -17.319641 35.256104
v -44.416000 -11.212738 25.098816
v 32.784958 -5.767487 28.041809
v 30.631790 -6.111145 40.509644
v 22.588547 0.893494 26.464355
v 20.435440 0.549927 38.932617
v 22.588547 0.893494 26.464355
v 30.631790 -6.111145 40.509644
v 25.692886 -13.924591 39.441711
v 27.845993 -13.580963 26.973633
v 15.496536 -7.263611 37.864319
v 17.649643 -6.920013 25.396362
v 15.496536 -7.263611 37.864319
v 27.845993 -13.580963 26.973633
v -21.472824 -26.799286 -73.939758
v -20.504745 -33.883942 -77.135620
v -20.526962 -26.995697 -71.325623
v -17.947678 -34.426971 -69.919250
v -48.144760 -32.806427 -59.944458
v -49.873093 -32.249786 -67.164062
v -46.170029 -25.613586 -62.312378
v -46.840256 -25.386688 -65.331970
v -46.449020 -17.323120 -61.379089
v -42.683029 -25.786194 -63.367554
v -41.122116 -17.593658 -63.143066
v -20.526962 -26.995697 -71.325623
v -17.947678 -34.426971 -69.919250
v -23.825912 -26.821747 -70.044556
v -25.804123 -34.011658 -67.267090
v -43.440231 -25.557861 -66.361755
v -42.717636 -32.602631 -69.179382
v -21.472824 -26.799286 -73.939758
v -19.989243 -18.615692 -74.858459
v -24.695236 -26.625793 -72.680420
v -25.562790 -18.316681 -72.279541
v -28.201889 -33.468689 -74.528320
v -43.440231 -25.557861 -66.361755
v -42.717636 -32.602631 -69.179382
v -42.683029 -25.786194 -63.367554
v -40.829941 -33.161652 -62.006165
v -71.553024 -25.115051 56.529663
v -75.358444 -32.375885 56.830872
v -69.551193 -25.420685 54.073975
v -70.492722 -33.121613 50.941895
v -46.704819 -35.662781 71.956848
v -51.983383 -34.808533 77.135681
v -48.860275 -27.930664 71.950989
v -51.048325 -27.580627 74.027100
v -46.960739 -20.025269 72.214111
v -51.466782 -27.635803 69.527893
v -51.159225 -19.561432 68.510193
v -69.551193 -25.420685 54.073975
v -70.492722 -33.121613 50.941895
v -66.395981 -25.756378 56.584839
v -64.255844 -33.792908 56.379883
v -53.590988 -27.295898 71.664795
v -57.317429 -34.199585 71.981384
v -71.553024 -25.115051 56.529663
v -71.862900 -17.343750 56.209167
v -68.462753 -25.439606 58.977905
v -66.838364 -17.864014 59.713806
v -69.239120 -33.025909 62.154724
v -53.590988 -27.295898 71.664795
v -57.317429 -34.199585 71.981384
v -51.466782 -27.635803 69.527893
v -52.157761 -35.034760 66.688721
v -19.989243 -18.615692 -74.858459
v -18.650803 -18.881531 -71.309021
v -18.650803 -18.881531 -71.309021
v -24.380112 -18.511543 -69.307587
v -20.504745 -33.883942 -77.135620
v -47.150681 -17.057159 -65.107056
v -40.829941 -33.161652 -62.006165
v -41.979721 -17.324921 -66.825134
v -41.979721 -17.324921 -66.825134
v -41.122116 -17.593658 -63.143066
v -71.862900 -17.343750 56.209167
v -69.509811 -17.700043 53.242859
v -69.509811 -17.700043 53.242859
v -64.368637 -18.230223 57.579948
v -75.358444 -32.375885 56.830872
v -49.784225 -19.583588 74.723022
v -52.157761 -35.034760 66.688721
v -53.865280 -19.138062 71.129944
v -53.865280 -19.138062 71.129944
v -51.159225 -19.561432 68.510193
v 67.339035 -26.549805 35.155640
v 63.594955 -26.830353 34.551086
v 63.594955 -26.830353 34.551086
v 64.760101 -26.915281 28.272522
v 69.463120 -41.754410 36.851990
v 72.534470 -26.890778 6.727783
v 66.571701 -42.663834 11.685791
v 71.425797 -26.800690 12.068970
v 71.425797 -26.800690 12.068970
v 67.808334 -27.116455 10.982605
v -50.755783 -13.101898 68.646179
v -52.747116 -12.888458 70.958069
v -65.007614 -11.793488 56.247437
v -66.999374 -11.579865 58.559265
v -69.509811 -17.700043 53.242859
v -71.862900 -17.343750 56.209167
v -49.784225 -19.583588 74.723022
v -46.960739 -20.025269 72.214111
v -46.960739 -20.025269 72.214111
v -50.755783 -13.101898 68.646179
v -69.509811 -17.700043 53.242859
v -65.007614 -11.793488 56.247437
v -71.862900 -17.343750 56.209167
v -66.999374 -11.579865 58.559265
v -49.784225 -19.583588 74.723022
v -52.747116 -12.888458 70.958069
v -40.700546 -11.136078 -63.312988
v -41.672958 -11.010986 -66.210388
v -22.798508 -12.306885 -69.371033
v -23.770615 -12.181671 -72.268494
v -18.650803 -18.881531 -71.309021
v -19.989243 -18.615692 -74.858459
v -47.150681 -17.057159 -65.107056
v -46.449020 -17.323120 -61.379089
v -46.449020 -17.323120 -61.379089
v -40.700546 -11.136078 -63.312988
v -18.650803 -18.881531 -71.309021
v -22.798508 -12.306885 -69.371033
v -19.989243 -18.615692 -74.858459
v -23.770615 -12.181671 -72.268494
v -47.150681 -17.057159 -65.107056
v -41.672958 -11.010986 -66.210388
v 67.788101 -20.643066 11.008484
v 70.783188 -20.498627 11.611877
v 64.043594 -20.571564 29.569702
v 67.038803 -20.426910 30.173767
v 63.594955 -26.830353 34.551086
v 67.339035 -26.549805 35.155640
v 72.534470 -26.890778 6.727783
v 68.955521 -27.214478 5.484070
v 68.955521 -27.214478 5.484070
v 67.788101 -20.643066 11.008484
v 63.594955 -26.830353 34.551086
v 64.043594 -20.571564 29.569702
v 67.339035 -26.549805 35.155640
v 67.038803 -20.426910 30.173767
v 72.534470 -26.890778 6.727783
v 70.783188 -20.498627 11.611877
vn -0.1677 0.0014 0.9858
vn -0.1915 0.2991 0.9348
vn -0.1876 0.2010 0.9614
vn -0.1933 0.2977 0.9349
vn -0.4898 0.3410 -0.8024
vn 0.6908 0.4100 -0.5955
vn -0.5323 0.2267 -0.8156
vn 0.9071 0.2125 -0.3634
vn -0.6169 -0.1535 -0.7719
vn -0.9759 -0.0114 -0.2179
vn -0.9750 -0.0936 -0.2017
vn -0.9854 0.0290 -0.1678
vn -0.9526 0.2434 -0.1826
vn -0.8375 0.1758 -0.5174
vn -0.4304 0.3406 -0.8359
vn 0.9717 0.0991 0.2146
vn 0.9071 0.3588 0.2199
vn 0.9771 0.1530 0.1482
vn 0.9933 0.0067 0.1153
vn 0.8601 0.2092 -0.4653
vn 0.9361 -0.0495 -0.3481
vn 0.7527 0.4307 -0.4979
vn -0.2756 -0.0145 0.9612
vn -0.2752 0.2671 0.9235
vn -0.2747 0.1735 0.9457
vn -0.2727 0.2691 0.9237
vn 0.0241 0.9911 -0.1307
vn -0.0068 0.9760 -0.2175
vn 0.2288 0.9721 0.0522
vn 0.3898 0.9172 0.0827
vn 0.6698 -0.0340 -0.7417
vn 0.6682 -0.0065 -0.7439
vn 0.6682 -0.0065 -0.7439
vn 0.6661 0.0209 -0.7456
vn 0.3100 -0.0544 0.9492
vn 0.3196 -0.0103 0.9475
vn 0.3196 -0.0103 0.9475
vn 0.3281 0.0310 0.9441
vn -0.0921 0.9746 0.2041
vn -0.1480 0.9522 0.2673
vn -0.0742 -0.9970 -0.0209
vn -0.0374 -0.9953 0.0891
vn -0.0729 -0.9971 -0.0201
vn 0.0432 -0.9425 0.3313
vn -0.9723 0.1284 -0.1953
vn -0.9723 0.1284 -0.1953
vn -0.9723 0.1284 -0.1953
vn -0.9724 0.1279 -0.1952
vn -0.9724 0.1279 -0.1952
vn -0.9724 0.1279 -0.1952
vn -0.2549 -0.9654 -0.0558
vn -0.4300 -0.8983 -0.0901
vn 0.0846 -0.8887 0.4506
vn 0.0834 -0.8889 0.4504
vn -0.0110 0.0231 0.9997
vn -0.0110 0.0231 0.9997
vn -0.0110 0.0231 0.9997
vn 0.0045 0.0429 0.9991
vn 0.0045 0.0429 0.9991
vn 0.0045 0.0429 0.9991
vn 0.3546 -0.0076 -0.9350
vn 0.3546 -0.0076 -0.9350
vn 0.3546 -0.0076 -0.9350
vn 0.4195 0.1301 -0.8984
vn 0.4195 0.1301 -0.8984
vn 0.4195 0.1301 -0.8984
vn 0.5471 0.8292 0.1140
vn 0.5471 0.8292 0.1140
vn -0.5381 -0.8354 -0.1122
vn -0.5397 -0.8346 -0.1099
vn 0.6260 -0.0379 0.7789
vn 0.6260 -0.0379 0.7789
vn 0.6260 -0.0379 0.7789
vn 0.5846 0.0881 0.8066
vn 0.5846 0.0881 0.8066
vn 0.5846 0.0881 0.8066
vn -0.8571 0.1154 -0.5021
vn -0.8571 0.1154 -0.5021
vn -0.8571 0.1154 -0.5021
vn -0.8381 0.0459 -0.5435
vn -0.8381 0.0459 -0.5435
vn -0.8381 0.0459 -0.5435
vn -0.2676 0.8804 0.3915
vn -0.2683 0.8803 0.3913
vn 0.2691 -0.8888 -0.3709
vn 0.2691 -0.8888 -0.3709
vn 0.2691 -0.8888 -0.3709
vn 0.2605 -0.8830 -0.3904
vn 0.2605 -0.8830 -0.3904
vn 0.2605 -0.8830 -0.3904
vn 0.8778 -0.0577 -0.4755
vn 0.8778 -0.0577 -0.4755
vn 0.8778 -0.0577 -0.4755
vn 0.8668 0.0089 -0.4986
vn 0.8668 0.0089 -0.4986
vn 0.8668 0.0089 -0.4986
vn -0.0954 0.8862 -0.4533
vn -0.0910 0.8846 -0.4575
vn -0.9820 0.1391 0.1281
vn -0.9820 0.1391 0.1281
vn -0.9820 0.1391 0.1281
vn -0.9827 0.1302 0.1320
vn -0.9827 0.1302 0.1320
vn -0.9827 0.1302 0.1320
vn -0.1473 -0.5612 -0.8145
vn -0.1473 -0.5612 -0.8145
vn -0.1473 -0.5612 -0.8145
vn -0.1473 -0.5612 -0.8145
vn 0.1473 0.5612 0.8145
vn 0.1473 0.5612 0.8145
vn 0.1473 0.5612 0.8145
vn 0.1473 0.5612 0.8145
vn 0.0717 0.9972 0.0190
vn 0.0717 0.9972 0.0190
vn 0.0717 0.9972 0.0190
vn 0.0717 0.9972 0.0190
vn -0.0717 -0.9972 -0.0190
vn -0.0717 -0.9972 -0.0190
vn -0.0717 -0.9972 -0.0190
vn -0.0716 -0.9972 -0.0190
vn 0.9777 -0.0740 0.1966
vn 0.9777 -0.0740 0.1966
vn 0.9777 -0.0740 0.1966
vn 0.9777 -0.0740 0.1966
vn 0.1974 0.0045 -0.9803
vn 0.1974 0.0045 -0.9803
vn 0.1974 0.0045 -0.9803
vn 0.1974 0.0045 -0.9803
vn -0.9777 0.0740 -0.1966
vn -0.9777 0.0740 -0.1965
vn -0.9777 0.0740 -0.1965
vn -0.9777 0.0740 -0.1965
vn -0.1974 -0.0045 0.9803
vn -0.1974 -0.0045 0.9803
vn -0.1974 -0.0045 0.9803
vn -0.1974 -0.0045 0.9803
vn 0.8854 -0.4646 -0.0162
vn 0.8854 -0.4646 -0.0162
vn 0.8854 -0.4646 -0.0162
vn 0.8854 -0.4646 -0.0162
vn -0.8854 0.4646 0.0162
vn -0.8854 0.4646 0.0162
vn -0.8854 0.4646 0.0162
vn -0.8854 0.4646 0.0162
vn -0.4341 -0.0494 -0.8995
vn -0.4341 -0.0494 -0.8995
vn -0.4341 -0.0494 -0.8995
vn -0.4341 -0.0494 -0.8995
vn 0.4341 0.0494 0.8995
vn 0.4341 0.0494 0.8995
vn 0.4341 0.0494 0.8995
vn 0.4341 0.0494 0.8995
vn -0.2119 0.8700 0.4452
vn -0.0966 0.8261 0.5552
vn 0.0438 0.7443 0.6664
vn 0.0211 0.7513 0.6596
vn 0.5290 -0.8481 -0.0287
vn 0.5290 -0.8481 -0.0287
vn 0.5290 -0.8481 -0.0287
vn 0.5306 -0.8472 -0.0274
vn 0.5306 -0.8472 -0.0274
vn 0.5306 -0.8472 -0.0274
vn -0.2021 -0.6302 -0.7497
vn -0.2021 -0.6302 -0.7497
vn -0.2021 -0.6302 -0.7497
vn -0.1911 -0.6351 -0.7484
vn -0.1911 -0.6351 -0.7484
vn -0.1911 -0.6351 -0.7484
vn -0.3738 0.8892 0.2638
vn -0.3917 0.8853 0.2508
vn -0.2966 -0.3288 0.8966
vn -0.2966 -0.3288 0.8966
vn -0.2966 -0.3288 0.8966
vn -0.9496 -0.2775 0.1461
vn -0.9496 -0.2775 0.1461
vn -0.9496 -0.2775 0.1461
vn 0.8861 0.3165 -0.3386
vn 0.8861 0.3165 -0.3386
vn 0.8861 0.3165 -0.3386
vn 0.4732 0.3479 -0.8093
vn 0.4732 0.3479 -0.8093
vn 0.4732 0.3479 -0.8093
vn -0.1216 -0.7894 -0.6017
vn -0.1216 -0.7894 -0.6017
vn -0.1216 -0.7894 -0.6017
vn -0.1176 -0.7903 -0.6013
vn -0.1176 -0.7903 -0.6013
vn -0.1176 -0.7903 -0.6013
vn -0.5824 0.8030 0.1264
vn -0.4546 0.8581 0.2387
vn -0.5931 0.7985 0.1028
vn -0.3265 0.8806 0.3435
vn -0.1153 0.8610 0.4954
vn -0.1289 0.8676 0.4803
vn 0.6944 -0.7187 0.0372
vn 0.6944 -0.7187 0.0372
vn 0.6944 -0.7187 0.0372
vn 0.6998 -0.7133 0.0400
vn 0.6998 -0.7133 0.0400
vn 0.6998 -0.7133 0.0400
vn 0.2683 0.3679 -0.8903
vn 0.2683 0.3679 -0.8903
vn 0.2683 0.3679 -0.8903
vn -0.8882 -0.2803 0.3640
vn -0.8882 -0.2803 0.3640
vn -0.8882 -0.2803 0.3640
vn -0.1180 -0.3561 0.9270
vn -0.1180 -0.3561 0.9270
vn -0.1180 -0.3561 0.9270
vn 0.8061 0.3161 -0.5003
vn 0.8061 0.3161 -0.5003
vn 0.8061 0.3161 -0.5003
vn 0.1974 0.0046 -0.9803
vn 0.1974 0.0046 -0.9803
vn 0.1974 0.0046 -0.9803
vn 0.1974 0.0045 -0.9803
vn 0.1974 0.0045 -0.9803
vn 0.1974 0.0045 -0.9803
vn -0.0717 -0.9972 -0.0190
vn -0.0716 -0.9972 -0.0190
vn -0.0716 -0.9972 -0.0190
vn -0.0716 -0.9972 -0.0190
vn -0.1974 -0.0045 0.9803
vn -0.1974 -0.0045 0.9803
vn -0.1974 -0.0045 0.9803
vn -0.1974 -0.0046 0.9803
vn -0.1974 -0.0046 0.9803
vn -0.1974 -0.0046 0.9803
vn 0.0717 0.9972 0.0190
vn 0.0716 0.9972 0.0190
vn 0.0716 0.9972 0.0190
vn 0.0716 0.9972 0.0190
vn -0.9777 0.0740 -0.1966
vn -0.9777 0.0740 -0.1966
vn -0.9777 0.0740 -0.1966
vn -0.9777 0.0740 -0.1966
vn -0.9838 0.1010 0.1480
vn -0.9838 0.1010 0.1480
vn -0.9838 0.1010 0.1480
vn -0.9838 0.1010 0.1480
vn 0.1206 0.3118 0.9425
vn 0.1206 0.3118 0.9425
vn 0.1206 0.3118 0.9425
vn 0.1771 0.2382 0.9549
vn 0.1771 0.2382 0.9549
vn 0.1771 0.2382 0.9549
vn -0.0471 0.8827 -0.4675
vn -0.0480 0.8827 -0.4675
vn -0.0480 0.8827 -0.4675
vn -0.0489 0.8826 -0.4675
vn -0.2321 -0.1669 -0.9583
vn -0.2321 -0.1669 -0.9583
vn -0.2321 -0.1669 -0.9583
vn -0.1791 -0.2359 -0.9551
vn -0.1791 -0.2359 -0.9551
vn -0.1791 -0.2359 -0.9551
vn 0.0183 -0.8809 0.4729
vn 0.0183 -0.8809 0.4729
vn 0.0183 -0.8809 0.4729
vn 0.0183 -0.8809 0.4729
vn 0.8788 -0.0322 -0.4761
vn 0.8770 -0.0267 -0.4798
vn 0.8770 -0.0267 -0.4798
vn 0.8751 -0.0211 -0.4835
vn 0.4747 0.2838 0.8332
vn 0.4747 0.2838 0.8332
vn 0.4747 0.2838 0.8332
vn 0.5042 0.2410 0.8293
vn 0.5042 0.2410 0.8293
vn 0.5042 0.2410 0.8293
vn -0.4123 -0.1549 -0.8978
vn -0.4123 -0.1549 -0.8978
vn -0.4123 -0.1549 -0.8978
vn -0.4593 -0.2171 -0.8613
vn -0.4593 -0.2171 -0.8613
vn -0.4593 -0.2171 -0.8613
vn -0.1328 0.8881 -0.4400
vn -0.1387 0.8880 -0.4384
vn -0.1387 0.8880 -0.4384
vn -0.1443 0.8879 -0.4369
vn 0.1609 -0.8903 0.4259
vn 0.1606 -0.8903 0.4262
vn 0.1606 -0.8903 0.4262
vn 0.1602 -0.8902 0.4265
vn 0.0399 0.9987 0.0305
vn 0.0257 0.9983 -0.0525
vn 0.1423 0.9860 -0.0870
vn 0.1616 0.9821 -0.0968
vn -0.3432 -0.4076 -0.8462
vn -0.3501 -0.3839 -0.8544
vn 0.4202 -0.4596 -0.7824
vn 0.5341 -0.4437 -0.7196
vn 0.2741 -0.4840 0.8310
vn 0.2960 -0.4386 0.8486
vn -0.5037 -0.3798 0.7760
vn -0.6039 -0.3461 0.7180
vn 0.1753 0.9809 -0.0840
vn 0.1660 0.9841 -0.0633
vn 0.6118 -0.4507 -0.6501
vn 0.6828 -0.4838 -0.5476
vn -0.6802 -0.3393 0.6498
vn -0.7503 -0.3593 0.5550
vn 0.1466 0.9877 0.0545
vn 0.0709 0.9972 0.0226
vn 0.8487 -0.4911 0.1964
vn 0.8356 -0.5122 0.1988
vn -0.9183 -0.3324 -0.2151
vn -0.8978 -0.3795 -0.2234
vn -0.5722 -0.5060 0.6454
vn -0.5722 -0.5060 0.6454
vn -0.5722 -0.5060 0.6454
vn -0.5769 -0.5105 0.6376
vn -0.5769 -0.5105 0.6376
vn -0.5769 -0.5105 0.6376
vn 0.5791 0.8142 -0.0418
vn 0.5682 0.8227 -0.0152
vn 0.5451 0.8333 0.0922
vn 0.5393 0.8275 0.1563
vn 0.5853 0.8084 -0.0622
vn 0.5926 0.8048 -0.0332
vn -0.4424 -0.8129 -0.3788
vn -0.4424 -0.8129 -0.3788
vn -0.4424 -0.8129 -0.3788
vn -0.4378 -0.8306 -0.3441
vn -0.4378 -0.8306 -0.3441
vn -0.4378 -0.8306 -0.3441
vn -0.8780 0.0721 -0.4731
vn -0.8780 0.0721 -0.4731
vn -0.8780 0.0721 -0.4731
vn 0.9948 -0.0728 0.0708
vn 0.9948 -0.0728 0.0708
vn 0.9948 -0.0728 0.0708
vn 0.7727 -0.0676 0.6311
vn 0.7727 -0.0676 0.6311
vn 0.7727 -0.0676 0.6311
vn -0.9436 0.0616 0.3253
vn -0.9436 0.0616 0.3253
vn -0.9436 0.0616 0.3253
vn -0.0860 -0.9584 0.2720
vn -0.0860 -0.9584 0.2720
vn -0.0860 -0.9584 0.2720
vn -0.0860 -0.9584 0.2720
vn 0.0860 0.9584 -0.2720
vn 0.0860 0.9584 -0.2720
vn 0.0860 0.9584 -0.2720
vn 0.0860 0.9584 -0.2720
vn 0.5398 0.8181 0.1984
vn 0.5418 0.8171 0.1971
vn 0.5598 0.8282 -0.0259
vn 0.5620 0.8270 -0.0110
vn -0.2864 -0.5119 -0.8099
vn -0.2864 -0.5119 -0.8099
vn -0.2864 -0.5119 -0.8099
vn -0.2810 -0.4752 -0.8338
vn -0.2810 -0.4752 -0.8338
vn -0.2810 -0.4752 -0.8338
vn -0.5501 -0.8094 0.2054
vn -0.5501 -0.8094 0.2054
vn -0.5501 -0.8094 0.2054
vn -0.5519 -0.8090 0.2024
vn -0.5519 -0.8090 0.2024
vn -0.5519 -0.8090 0.2024
vn 0.5321 0.8034 0.2673
vn 0.5294 0.8040 0.2710
vn -0.9934 0.0645 0.0953
vn -0.9934 0.0645 0.0953
vn -0.9934 0.0645 0.0953
vn -0.7463 0.0615 -0.6627
vn -0.7463 0.0615 -0.6627
vn -0.7463 0.0615 -0.6627
vn 0.9657 -0.0688 0.2502
vn 0.9657 -0.0688 0.2502
vn 0.9657 -0.0688 0.2502
vn 0.9833 -0.0625 -0.1707
vn 0.9833 -0.0625 -0.1707
vn 0.9833 -0.0625 -0.1707
vn -0.5619 0.0561 -0.8253
vn -0.5619 0.0561 -0.8253
vn -0.5619 0.0561 -0.8253
vn -0.5620 0.0561 -0.8253
vn -0.9770 0.0663 0.2026
vn -0.9770 0.0663 0.2025
vn -0.9770 0.0663 0.2025
vn -0.9770 0.0663 0.2025
vn -0.1974 -0.0045 0.9803
vn -0.1974 -0.0045 0.9803
vn -0.1974 -0.0045 0.9803
vn -0.1974 -0.0045 0.9803
vn -0.9082 0.0573 0.4146
vn -0.9082 0.0574 0.4146
vn -0.9082 0.0574 0.4146
vn -0.9082 0.0574 0.4146
vn -0.1974 -0.0045 0.9803
vn -0.1974 -0.0045 0.9803
vn -0.1974 -0.0045 0.9803
vn -0.1974 -0.0045 0.9803
vn 0.8491 -0.0710 0.5234
vn 0.8491 -0.0710 0.5234
vn 0.8491 -0.0710 0.5234
vn 0.8491 -0.0710 0.5234
vn 0.1354 -0.0286 0.9904
vn 0.1354 -0.0286 0.9904
vn 0.1354 -0.0286 0.9904
vn 0.1354 -0.0286 0.9904
vn 0.9777 -0.0740 0.1966
vn 0.9777 -0.0740 0.1966
vn 0.9777 -0.0740 0.1966
vn 0.9777 -0.0740 0.1966
vn 0.5083 -0.0201 -0.8610
vn 0.5083 -0.0201 -0.8610
vn 0.5083 -0.0201 -0.8610
vn 0.5082 -0.0201 -0.8610
vn 0.9857 -0.0679 -0.1546
vn 0.9857 -0.0679 -0.1546
vn 0.9857 -0.0679 -0.1546
vn 0.9857 -0.0679 -0.1546
vn 0.1974 0.0045 -0.9803
vn 0.1974 0.0045 -0.9803
vn 0.1974 0.0045 -0.9803
vn 0.1974 0.0045 -0.9803
vn -0.6770 0.0627 -0.7333
vn -0.6770 0.0627 -0.7333
vn -0.6770 0.0627 -0.7333
vn -0.6770 0.0627 -0.7333
vn 0.1974 0.0045 -0.9803
vn 0.1974 0.0045 -0.9803
vn 0.1974 0.0045 -0.9803
vn 0.1974 0.0045 -0.9803
vn -0.8226 0.0699 -0.5643
vn -0.8226 0.0699 -0.5643
vn -0.8226 0.0699 -0.5643
vn -0.8226 0.0699 -0.5643
vn -0.8377 0.0498 0.5439
vn -0.8377 0.0498 0.5439
vn -0.8377 0.0498 0.5439
vn -0.8377 0.0498 0.5439
vn -0.9777 0.0740 -0.1965
vn -0.9777 0.0740 -0.1965
vn -0.9777 0.0740 -0.1965
vn -0.9777 0.0740 -0.1965
vn 0.0717 0.9972 0.0190
vn 0.0717 0.9972 0.0190
vn 0.0717 0.9972 0.0190
vn 0.0717 0.9972 0.0190
vn -0.0717 -0.9972 -0.0190
vn -0.0717 -0.9972 -0.0190
vn -0.0717 -0.9972 -0.0190
vn -0.0717 -0.9972 -0.0190
vn 0.0717 0.9972 0.0190
vn 0.0717 0.9972 0.0190
vn 0.0717 0.9972 0.0190
vn 0.0717 0.9972 0.0190
vn 0.0717 0.9972 0.0190
vn 0.0717 0.9972 0.0190
vn 0.0716 0.9972 0.0190
vn 0.0717 0.9972 0.0190
vn 0.0717 0.9972 0.0190
vn 0.0717 0.9972 0.0190
vn 0.0717 0.9972 0.0190
vn 0.0717 0.9972 0.0190
vn -0.0717 -0.9972 -0.0190
vn -0.0717 -0.9972 -0.0190
vn -0.0717 -0.9972 -0.0190
vn -0.0717 -0.9972 -0.0190
vn -0.0717 -0.9972 -0.0190
vn -0.0717 -0.9972 -0.0190
vn -0.0717 -0.9972 -0.0190
vn -0.0717 -0.9972 -0.0190
vn -0.0717 -0.9972 -0.0190
vn -0.0716 -0.9972 -0.0190
vn -0.0717 -0.9972 -0.0190
vn -0.0717 -0.9972 -0.0190
vn 0.3661 0.7486 -0.5528
vn 0.5824 0.7319 -0.3538
vn 0.3418 0.8917 -0.2967
vn 0.2104 0.5078 -0.8354
vn 0.4714 0.5397 -0.6975
vn -0.0005 0.6695 -0.7428
vn 0.0972 0.8786 -0.4675
vn 0.0739 0.9382 -0.3381
vn 0.0428 0.9979 -0.0490
vn 0.2695 0.9564 0.1124
vn 0.5501 0.8318 -0.0742
vn 0.6629 0.7432 -0.0910
vn 0.8458 0.5147 -0.1404
vn 0.8299 0.3945 -0.3944
vn 0.5805 0.5469 -0.6033
vn 0.2442 -0.6318 -0.7357
vn -0.3161 -0.3592 -0.8781
vn -0.1959 -0.4796 -0.8553
vn -0.6339 -0.1644 -0.7558
vn -0.8881 0.1035 -0.4479
vn -0.9099 0.2361 -0.3411
vn -0.9221 0.3864 0.0210
vn -0.9086 0.4133 0.0597
vn -0.7495 0.5745 0.3289
vn -0.4544 0.4672 0.7585
vn -0.3323 0.4697 0.8179
vn -0.4544 0.4672 0.7585
vn 0.0892 0.2834 0.9548
vn 0.2560 0.2487 0.9341
vn 0.5457 0.0023 0.8380
vn 0.7813 -0.2997 0.5474
vn 0.8498 -0.3466 0.3972
vn 0.8340 -0.5484 0.0612
vn 0.6388 -0.6812 -0.3576
vn 0.5637 -0.6506 -0.5089
vn -0.4365 -0.8024 0.4070
vn -0.4365 -0.8024 0.4070
vn -0.4365 -0.8024 0.4070
vn -0.4365 -0.8024 0.4070
vn -0.4365 -0.8024 0.4070
vn -0.4365 -0.8024 0.4070
vn 0.1559 0.9151 0.3718
vn 0.1036 0.9939 -0.0377
vn 0.3872 0.9071 0.1648
vn -0.1380 0.9847 0.1059
vn -0.1182 0.9120 0.3929
vn -0.0942 0.8488 0.5203
vn 0.1863 0.7615 0.6208
vn -0.1734 0.6080 0.7748
vn 0.0553 0.4792 0.8759
vn 0.3158 0.5647 0.7625
vn 0.4285 0.5969 0.6783
vn 0.4159 0.7957 0.4402
vn 0.7156 0.5042 0.4835
vn 0.7285 0.6421 0.2386
vn 0.5122 0.8384 0.1863
vn 0.0460 0.4903 -0.8704
vn 0.3820 0.2736 -0.8827
vn 0.2760 0.3514 -0.8946
vn -0.4729 0.4319 -0.7680
vn -0.4729 0.4319 -0.7680
vn -0.7839 0.3791 -0.4917
vn -0.6663 0.4614 -0.5858
vn -0.9718 0.2223 -0.0779
vn -0.9229 -0.0814 0.3764
vn -0.9599 0.0524 0.2754
vn -0.6486 -0.3217 0.6898
vn -0.1703 -0.5628 0.8089
vn -0.3113 -0.4667 0.8278
vn 0.2973 -0.6285 0.7187
vn 0.7212 -0.5837 0.3732
vn 0.6309 -0.5767 0.5190
vn 0.9200 -0.3913 -0.0200
vn 0.8601 -0.1232 -0.4950
vn 0.9246 -0.1676 -0.3422
vn 0.5968 0.1527 -0.7877
vn -0.2564 -0.8363 -0.4846
vn -0.2564 -0.8363 -0.4846
vn -0.2564 -0.8363 -0.4846
vn -0.2564 -0.8363 -0.4846
vn -0.2564 -0.8363 -0.4846
vn -0.2565 -0.8363 -0.4846
vn -0.6946 0.7117 0.1053
vn -0.8662 0.4767 0.1499
vn -0.8123 0.5698 -0.1241
vn -0.7019 0.6008 0.3825
vn -0.8056 0.2852 0.5192
vn -0.6055 0.7069 0.3655
vn -0.3776 0.8802 0.2874
vn -0.3513 0.9362 0.0129
vn -0.6042 0.7750 -0.1850
vn -0.6471 0.7005 -0.3010
vn -0.7076 0.4939 -0.5053
vn -0.8642 0.2761 -0.4205
vn -0.9521 0.2972 -0.0727
vn -0.9693 0.2388 0.0582
vn -0.9360 0.1233 0.3296
vn -0.2279 -0.5379 0.8117
vn 0.1174 -0.0313 0.9926
vn 0.0630 -0.1936 0.9791
vn 0.3653 0.2565 0.8949
vn 0.5923 0.5499 0.5889
vn 0.5988 0.6584 0.4561
vn 0.6900 0.6935 0.2073
vn 0.6899 0.6935 0.2073
vn 0.5124 0.5697 -0.6425
vn 0.5568 0.7740 -0.3015
vn 0.5366 0.6488 -0.5396
vn 0.3900 0.4177 -0.8206
vn 0.1333 0.0482 -0.9899
vn -0.0068 -0.0506 -0.9987
vn -0.2032 -0.3766 -0.9038
vn -0.3960 -0.6953 -0.5998
vn -0.4882 -0.7403 -0.4622
vn -0.5121 -0.8544 -0.0877
vn -0.4311 -0.8162 0.3847
vn -0.4261 -0.7307 0.5334
vn 0.8027 -0.5947 -0.0443
vn 0.8027 -0.5947 -0.0443
vn 0.8027 -0.5947 -0.0443
vn 0.8027 -0.5947 -0.0444
vn 0.8027 -0.5947 -0.0444
vn 0.8027 -0.5947 -0.0443
vn 0.3426 -0.0209 0.9392
vn 0.3399 0.0070 0.9404
vn 0.3399 0.0070 0.9404
vn 0.3371 0.0340 0.9409
vn -0.9870 -0.0322 -0.1575
vn -0.9861 0.0105 -0.1660
vn -0.9861 0.0105 -0.1660
vn -0.9832 0.0544 -0.1744
vn 0.6515 -0.1273 -0.7479
vn 0.6515 -0.1273 -0.7479
vn 0.6515 -0.1273 -0.7479
vn 0.6515 -0.1275 -0.7478
vn 0.6515 -0.1275 -0.7478
vn 0.6515 -0.1275 -0.7478
vn -0.6661 -0.0209 0.7456
vn -0.6682 0.0064 0.7439
vn -0.6682 0.0064 0.7439
vn -0.6698 0.0340 0.7417
vn -0.3283 -0.0322 -0.9440
vn -0.3196 0.0105 -0.9475
vn -0.3196 0.0105 -0.9475
vn -0.3100 0.0544 -0.9492
vn 0.9736 -0.1279 0.1890
vn 0.9736 -0.1279 0.1890
vn 0.9736 -0.1279 0.1890
vn 0.9735 -0.1284 0.1891
vn 0.9735 -0.1284 0.1891
vn 0.9735 -0.1284 0.1891
vn 0.0208 -0.0471 -0.9987
vn 0.0208 -0.0471 -0.9987
vn 0.0208 -0.0471 -0.9987
vn 0.0404 -0.0223 -0.9989
vn 0.0404 -0.0223 -0.9989
vn 0.0404 -0.0223 -0.9989
vn -0.3468 -0.0605 0.9360
vn -0.3468 -0.0605 0.9360
vn -0.3468 -0.0605 0.9360
vn -0.3134 0.0061 0.9496
vn -0.3134 0.0061 0.9496
vn -0.3134 0.0061 0.9496
vn -0.6354 -0.0083 -0.7722
vn -0.6354 -0.0083 -0.7722
vn -0.6354 -0.0083 -0.7722
vn -0.6483 0.0367 -0.7605
vn -0.6483 0.0367 -0.7605
vn -0.6483 0.0367 -0.7605
vn 0.8233 -0.0719 0.5630
vn 0.8233 -0.0719 0.5630
vn 0.8233 -0.0719 0.5630
vn 0.8399 -0.1322 0.5264
vn 0.8399 -0.1322 0.5264
vn 0.8399 -0.1322 0.5264
vn -0.8736 -0.0082 0.4865
vn -0.8736 -0.0082 0.4865
vn -0.8736 -0.0082 0.4865
vn -0.8733 -0.0098 0.4871
vn -0.8733 -0.0098 0.4871
vn -0.8733 -0.0098 0.4871
vn 0.9758 -0.1291 -0.1767
vn 0.9758 -0.1291 -0.1767
vn 0.9758 -0.1291 -0.1767
vn 0.9752 -0.1383 -0.1726
vn 0.9752 -0.1383 -0.1726
vn 0.9752 -0.1383 -0.1726
vn -0.3201 0.8915 -0.3206
vn 0.0284 0.8621 -0.5060
vn 0.0717 0.9972 0.0190
vn -0.4600 0.8866 0.0496
vn -0.2750 0.8745 0.3994
vn 0.0937 0.8374 0.5384
vn 0.4433 0.8238 0.3533
vn 0.5821 0.8129 -0.0172
vn 0.3983 0.8408 -0.3667
vn -0.7485 0.0585 -0.6605
vn -0.5771 0.0166 -0.8165
vn 0.1322 -0.0167 -0.9911
vn -0.8175 0.0073 0.5759
vn -0.9899 0.0476 -0.1335
vn -0.6604 0.0252 0.7505
vn 0.5713 -0.0971 0.8150
vn -0.1359 -0.0352 0.9901
vn 0.7474 -0.0742 0.6602
vn 0.9419 -0.1165 0.3149
vn 0.9452 -0.1201 0.3037
vn 0.6592 -0.0409 -0.7508
vn 0.4888 -0.0451 -0.8712
vn 0.9155 -0.0190 -0.4019
vn 0.3291 -0.6656 -0.6698
vn -0.4689 -0.2248 -0.8542
vn -0.3120 -0.3808 -0.8704
vn 0.4432 -0.7059 -0.5525
vn 0.4619 -0.7035 -0.5401
vn 0.7592 -0.2387 0.6055
vn 0.8612 -0.4863 0.1475
vn 0.7861 -0.2721 0.5549
vn 0.4249 0.1581 0.8913
vn 0.2352 0.2645 0.9353
vn -0.3859 0.5797 0.7177
vn -0.7631 0.5911 0.2611
vn -0.8577 0.5082 0.0782
vn -0.8159 0.1528 -0.5576
vn 0.2014 0.5530 -0.8085
vn 0.5347 0.3425 -0.7725
vn 0.4995 0.7567 -0.4218
vn 0.8082 0.3318 -0.4866
vn 0.8658 0.4843 -0.1259
vn 0.6579 0.7485 0.0830
vn 0.3167 0.9470 0.0538
vn 0.0511 0.9697 -0.2388
vn -0.0145 0.8052 -0.5928
vn -0.2277 0.8788 -0.4193
vn 0.1624 0.8600 -0.4838
vn 0.0717 0.9972 0.0190
vn -0.4372 0.8954 -0.0839
vn -0.3738 0.8755 0.3063
vn -0.0391 0.8553 0.5166
vn 0.3499 0.8207 0.4518
vn 0.5605 0.8199 0.1167
vn 0.4960 0.8240 -0.2738
vn -0.9137 -0.0037 -0.4063
vn 0.3997 -0.0884 -0.9124
vn -0.3944 -0.0111 -0.9189
vn 0.1941 -0.0394 -0.9802
vn -0.9799 0.0300 -0.1972
vn -0.4107 -0.0650 0.9095
vn -0.9202 0.0017 0.3915
vn -0.2004 -0.0485 0.9785
vn 0.1932 -0.1029 0.9757
vn 0.2054 -0.1073 0.9728
vn 0.9736 -0.1179 0.1955
vn 0.9916 -0.1293 0.0031
vn 0.8037 -0.0690 0.5910
vn 0.9121 -0.1149 -0.3936
vn 0.8186 -0.3215 -0.4759
vn 0.2085 0.2136 -0.9544
vn 0.3849 0.0636 -0.9207
vn 0.8415 -0.4121 -0.3495
vn 0.8486 -0.4159 -0.3271
vn 0.2855 -0.4926 0.8221
vn 0.7043 -0.5253 0.4775
vn 0.3363 -0.5004 0.7978
vn -0.2200 -0.2342 0.9470
vn -0.4268 -0.1385 0.8937
vn -0.8464 0.2718 0.4579
vn -0.8645 0.4966 -0.0779
vn -0.8065 0.5069 -0.3043
vn -0.3132 0.4429 -0.8401
vn 0.5096 0.8301 -0.2263
vn 0.7937 0.6045 -0.0680
vn 0.4654 0.8324 0.3009
vn 0.8384 0.4572 0.2966
vn 0.6351 0.4388 0.6357
vn 0.2909 0.6016 0.7439
vn -0.0006 0.8140 0.5808
vn -0.0380 0.9745 0.2210
vn 0.1580 0.9798 -0.1229
vn 0.8303 -0.5424 0.1284
vn 0.8303 -0.5424 0.1284
vn 0.8303 -0.5424 0.1284
vn 0.8303 -0.5424 0.1284
vn 0.1701 0.0271 -0.9851
vn 0.1701 0.0271 -0.9851
vn 0.1701 0.0271 -0.9851
vn 0.1701 0.0271 -0.9851
vn -0.8303 0.5424 -0.1284
vn -0.8303 0.5424 -0.1284
vn -0.8303 0.5424 -0.1284
vn -0.8303 0.5424 -0.1284
vn -0.1701 -0.0271 0.9851
vn -0.1701 -0.0271 0.9851
vn -0.1701 -0.0271 0.9851
vn -0.1701 -0.0271 0.9850
vn 0.9709 -0.0651 0.2303
vn 0.9709 -0.0651 0.2303
vn 0.9709 -0.0651 0.2303
vn 0.9709 -0.0651 0.2303
vn -0.2073 0.2524 0.9452
vn -0.2073 0.2524 0.9452
vn -0.2073 0.2524 0.9452
vn -0.2073 0.2524 0.9452
vn -0.9709 0.0651 -0.2303
vn -0.9709 0.0651 -0.2303
vn -0.9709 0.0651 -0.2303
vn -0.9709 0.0651 -0.2303
vn 0.2073 -0.2524 -0.9452
vn 0.2073 -0.2524 -0.9452
vn 0.2073 -0.2524 -0.9452
vn 0.2073 -0.2524 -0.9452
vn 0.9845 -0.0571 0.1660
vn 0.9845 -0.0571 0.1660
vn 0.9845 -0.0571 0.1660
vn 0.9845 -0.0571 0.1660
vn 0.1730 0.4767 -0.8619
vn 0.1730 0.4767 -0.8619
vn 0.1730 0.4767 -0.8619
vn 0.1730 0.4767 -0.8619
vn -0.9845 0.0571 -0.1660
vn -0.9845 0.0571 -0.1660
vn -0.9845 0.0571 -0.1660
vn -0.9845 0.0571 -0.1660
vn -0.1730 -0.4767 0.8619
vn -0.1730 -0.4767 0.8619
vn -0.1730 -0.4767 0.8619
vn -0.1730 -0.4767 0.8619
vn -0.1196 -0.9654 0.2316
vn -0.1196 -0.9654 0.2316
vn -0.1196 -0.9654 0.2316
vn -0.1196 -0.9654 0.2316
vn -0.1196 -0.9654 0.2316
vn -0.1196 -0.9654 0.2316
vn 0.1196 0.9654 -0.2316
vn 0.1196 0.9654 -0.2316
vn 0.1196 0.9654 -0.2316
vn 0.1196 0.9654 -0.2316
vn 0.1196 0.9654 -0.2316
vn 0.1196 0.9654 -0.2316
vn -0.0300 0.8772 0.4792
vn -0.0300 0.8772 0.4792
vn -0.0300 0.8772 0.4792
vn -0.0299 0.8772 0.4792
vn -0.0299 0.8772 0.4792
vn -0.0299 0.8772 0.4792
vn 0.0299 -0.8772 -0.4792
vn 0.0299 -0.8772 -0.4792
vn 0.0299 -0.8772 -0.4792
vn 0.0299 -0.8772 -0.4792
vn 0.0299 -0.8772 -0.4792
vn 0.0299 -0.8772 -0.4792
vn 0.5308 0.8397 0.1148
vn 0.5308 0.8397 0.1148
vn 0.5308 0.8397 0.1148
vn 0.5308 0.8397 0.1148
vn 0.5308 0.8397 0.1148
vn 0.5308 0.8397 0.1148
vn -0.5308 -0.8397 -0.1148
vn -0.5308 -0.8397 -0.1148
vn -0.5308 -0.8397 -0.1148
vn -0.5308 -0.8397 -0.1148
vn -0.5308 -0.8397 -0.1148
vn -0.5308 -0.8397 -0.1148
vn 0.9336 -0.0787 -0.3496
vn 0.9153 0.2615 -0.3065
vn 0.9336 0.1570 -0.3220
vn 0.9161 0.2602 -0.3050
vn -0.4273 0.3864 0.8174
vn -0.8382 0.4490 -0.3095
vn -0.4237 0.2737 0.8635
vn -0.7548 0.2396 -0.6106
vn -0.3665 -0.1064 0.9243
vn 0.3007 -0.0020 0.9537
vn 0.3093 -0.0849 0.9472
vn 0.3473 0.0226 0.9375
vn 0.3327 0.2721 0.9029
vn 0.0004 0.2254 0.9743
vn -0.4618 0.4274 0.7772
vn -0.2958 0.0939 -0.9506
vn -0.2445 0.3437 -0.9067
vn -0.3529 0.1497 -0.9236
vn -0.4005 -0.0138 -0.9162
vn -0.8199 0.2598 -0.5102
vn -0.7837 -0.0520 -0.6190
vn -0.7650 0.5012 -0.4043
vn 0.9672 -0.0756 -0.2425
vn 0.9530 0.1937 -0.2329
vn 0.9650 0.1031 -0.2412
vn 0.9520 0.1958 -0.2353
vn -0.7720 0.0705 -0.6317
vn -0.7042 0.3412 -0.6226
vn -0.7312 0.2551 -0.6326
vn -0.7034 0.3399 -0.6242
vn 0.9630 0.2684 -0.0219
vn 0.2007 0.3618 0.9104
vn 0.9855 0.1608 -0.0547
vn -0.1325 0.1964 0.9715
vn 0.9632 -0.2158 -0.1604
vn 0.6697 -0.0358 -0.7418
vn 0.6494 -0.1194 -0.7510
vn 0.6334 0.0097 -0.7737
vn 0.6450 0.2052 -0.7361
vn 0.8719 0.1179 -0.4753
vn 0.9654 0.2559 0.0499
vn -0.6591 0.1231 0.7420
vn -0.6185 0.3718 0.6923
vn -0.6006 0.1720 0.7809
vn -0.5893 0.0286 0.8074
vn -0.0126 0.1759 0.9843
vn -0.1860 -0.0554 0.9810
vn 0.0856 0.3774 0.9221
vn -0.6993 0.0468 -0.7133
vn -0.6500 0.3222 -0.6882
vn -0.6742 0.2345 -0.7004
vn -0.6513 0.3241 -0.6861
vn 0.9106 -0.2053 -0.3587
vn 0.9121 -0.2076 -0.3536
vn 0.3244 -0.0769 0.9428
vn -0.2134 -0.1140 0.9703
vn -0.2919 0.3723 -0.8810
vn -0.6357 -0.0089 -0.7719
vn 0.2800 0.2359 0.9306
vn -0.3152 0.0025 -0.9490
vn 0.9545 -0.1826 -0.2357
vn 0.9532 -0.1789 -0.2439
vn -0.7855 -0.0567 -0.6163
vn -0.7818 -0.0597 -0.6207
vn 0.6372 -0.0859 -0.7659
vn 0.9292 -0.2012 -0.3099
vn -0.5818 0.3514 0.7335
vn -0.3459 -0.0332 0.9377
vn 0.6885 0.1973 -0.6978
vn -0.6589 0.0271 0.7517
vn -0.6995 -0.0701 -0.7112
vn -0.7054 -0.0661 -0.7057
vn -0.1493 -0.1217 0.9813
vn -0.1550 -0.1243 0.9801
vn -0.9813 -0.0650 -0.1812
vn -0.7320 -0.1358 -0.6676
vn 0.9207 0.3533 0.1660
vn 0.9861 -0.0290 -0.1635
vn -0.9429 0.2311 -0.2397
vn 0.9791 0.0058 0.2031
vn -0.2753 -0.1252 0.9532
vn -0.2676 -0.1215 0.9559
vn 0.2881 0.9440 0.1610
vn 0.2927 0.9378 0.1866
vn -0.0126 0.9946 -0.1027
vn -0.2336 0.9306 -0.2818
vn -0.5377 0.6677 -0.5148
vn -0.5430 0.6665 -0.5108
vn 0.5907 0.5780 0.5630
vn 0.6107 0.5884 0.5300
vn 0.6405 -0.0440 -0.7667
vn 0.6432 -0.0689 -0.7626
vn 0.6432 -0.0689 -0.7626
vn 0.6467 -0.1090 -0.7549
vn -0.6157 0.2098 0.7596
vn -0.6269 0.1817 0.7576
vn -0.6269 0.1817 0.7576
vn -0.6426 0.1393 0.7534
vn -0.1738 0.9796 0.1006
vn -0.1988 0.9757 0.0920
vn 0.2084 0.9776 -0.0277
vn 0.4651 0.8768 -0.1225
vn 0.7866 0.5656 -0.2476
vn 0.7857 0.5640 -0.2540
vn -0.7119 0.6782 0.1824
vn -0.6922 0.6887 0.2156
vn 0.3355 -0.0173 0.9419
vn 0.3277 -0.0414 0.9439
vn 0.3277 -0.0414 0.9439
vn 0.3148 -0.0802 0.9458
vn -0.3228 0.1840 -0.9284
vn -0.3187 0.1547 -0.9351
vn -0.3187 0.1547 -0.9351
vn -0.3121 0.1105 -0.9436
vn 0.0068 0.9643 -0.2646
vn 0.0268 0.9592 -0.2816
vn -0.0739 0.9888 0.1297
vn -0.1212 0.9061 0.4053
vn -0.1764 0.6184 0.7658
vn -0.1703 0.6169 0.7684
vn 0.2038 0.6290 -0.7502
vn 0.1653 0.6398 -0.7505
vn -0.9832 -0.0225 -0.1810
vn -0.9812 -0.0470 -0.1871
vn -0.9812 -0.0470 -0.1871
vn -0.9766 -0.0865 -0.1967
vn 0.9663 0.1892 0.1743
vn 0.9699 0.1604 0.1831
vn 0.9699 0.1604 0.1831
vn 0.9736 0.1170 0.1959
vt 0.910946 0.545390
vt 0.946617 0.554903
vt 0.910989 0.530590
vt 0.946440 0.519044
vt 0.946440 0.519044
vt 0.946617 0.554903
vt 0.910989 0.530590
vt 0.910946 0.545390
vt 0.872028 0.529080
vt 0.910946 0.545390
vt 0.872074 0.548494
vt 0.910946 0.545390
vt 0.946617 0.554903
vt 0.910989 0.530590
vt 0.946440 0.519044
vt 0.910989 0.530590
vt 0.946440 0.519044
vt 0.910989 0.530590
vt 0.872028 0.529080
vt 0.910946 0.545390
vt 0.872074 0.548494
vt 0.946617 0.554903
vt 0.910946 0.545390
vt 0.946617 0.554903
vt 0.910989 0.530590
vt 0.946440 0.519044
vt 0.454952 0.146630
vt 0.373939 0.294114
vt 0.628792 0.435733
vt 0.459776 0.435733
vt 0.416564 0.455630
vt 0.437707 0.441203
vt 0.333151 0.316053
vt 0.356370 0.303793
vt 0.762645 0.302258
vt 0.740972 0.288082
vt 0.673569 0.449100
vt 0.652686 0.431387
vt 0.624117 0.146630
vt 0.709591 0.289019
vt 0.454952 0.146630
vt 0.628792 0.435733
vt 0.373939 0.294114
vt 0.459776 0.435733
vt 0.454514 0.125855
vt 0.624305 0.125653
vt 0.454709 0.099019
vt 0.624499 0.098974
vt 0.454709 0.099019
vt 0.624305 0.125653
vt 0.624117 0.146630
vt 0.709591 0.289019
vt 0.595892 0.690164
vt 0.499200 0.690164
vt 0.673569 0.449100
vt 0.652686 0.431387
vt 0.631659 0.703600
vt 0.609750 0.690299
vt 0.631659 0.703600
vt 0.652686 0.431387
vt 0.437707 0.441203
vt 0.416564 0.455630
vt 0.479063 0.700053
vt 0.457110 0.713159
vt 0.479063 0.700053
vt 0.416564 0.455630
vt 0.595892 0.690164
vt 0.499200 0.690164
vt 0.908878 0.130440
vt 0.859407 0.047043
vt 0.740972 0.288082
vt 0.762645 0.302258
vt 0.945530 0.137790
vt 0.967455 0.149367
vt 0.945530 0.137790
vt 0.762645 0.302258
vt 0.624499 0.098974
vt 0.624305 0.125653
vt 0.860592 0.004858
vt 0.859153 0.030793
vt 0.860592 0.004858
vt 0.624305 0.125653
vt 0.859407 0.047043
vt 0.908878 0.130440
vt 0.217845 0.053961
vt 0.454952 0.146630
vt 0.170441 0.137250
vt 0.373939 0.294114
vt 0.170441 0.137250
vt 0.454952 0.146630
vt 0.130002 0.159532
vt 0.333151 0.316053
vt 0.152072 0.146735
vt 0.356370 0.303793
vt 0.152072 0.146735
vt 0.333151 0.316053
vt 0.170441 0.137250
vt 0.217845 0.053961
vt 0.216357 0.007904
vt 0.218255 0.031522
vt 0.454709 0.099019
vt 0.454514 0.125855
vt 0.454709 0.099019
vt 0.218255 0.031522
vt 0.212660 0.569185
vt 0.212660 0.237634
vt 0.155607 0.569185
vt 0.155607 0.237634
vt 0.155607 0.237634
vt 0.212660 0.237634
vt 0.155607 0.569185
vt 0.212660 0.569185
vt 0.393565 0.067693
vt 0.393565 0.034244
vt 0.513560 0.067693
vt 0.513560 0.034244
vt 0.513559 0.034244
vt 0.393565 0.034244
vt 0.513559 0.067693
vt 0.393565 0.067693
vt 0.933946 0.516486
vt 0.933945 0.370391
vt 0.834652 0.516486
vt 0.834652 0.370392
vt 0.991253 0.207112
vt 0.991253 0.240933
vt 0.910593 0.207112
vt 0.910593 0.240933
vt 0.933946 0.516485
vt 0.933945 0.370392
vt 0.834652 0.516486
vt 0.834652 0.370392
vt 0.991253 0.240933
vt 0.991253 0.207113
vt 0.910593 0.240933
vt 0.910593 0.207113
vt 0.145770 0.220531
vt 0.145770 0.553229
vt 0.123023 0.219501
vt 0.123023 0.552199
vt 0.123070 0.552216
vt 0.145748 0.553218
vt 0.123070 0.219522
vt 0.145748 0.220524
vt 0.212660 0.569185
vt 0.212660 0.237634
vt 0.155607 0.569185
vt 0.155607 0.237634
vt 0.155607 0.237634
vt 0.212660 0.237634
vt 0.155607 0.569185
vt 0.212660 0.569185
vt 0.511349 0.706996
vt 0.511349 0.864121
vt 0.563169 0.729952
vt 0.563169 0.846584
vt 0.468512 0.847450
vt 0.511349 0.864121
vt 0.468512 0.730835
vt 0.511349 0.706996
vt 0.468512 0.730835
vt 0.511349 0.864121
vt 0.563169 0.729952
vt 0.511349 0.706996
vt 0.563169 0.846584
vt 0.511349 0.864121
vt 0.563169 0.846584
vt 0.511349 0.706996
vt 0.468512 0.847450
vt 0.468512 0.730835
vt 0.907105 0.673514
vt 0.919505 0.705918
vt 0.933969 0.673514
vt 0.921320 0.640722
vt 0.907105 0.673514
vt 0.933969 0.673514
vt 0.907105 0.673514
vt 0.919505 0.705918
vt 0.933969 0.673514
vt 0.921320 0.640722
vt 0.907105 0.673514
vt 0.933969 0.673514
vt 0.976704 0.026923
vt 0.942821 0.014547
vt 0.976704 0.107923
vt 0.942821 0.116107
vt 0.976704 0.107923
vt 0.942821 0.014547
vt 0.908427 0.024743
vt 0.942821 0.014547
vt 0.908427 0.105736
vt 0.942821 0.116107
vt 0.976704 0.107923
vt 0.976704 0.026886
vt 0.908427 0.105736
vt 0.942821 0.116107
vt 0.908427 0.024805
vt 0.942821 0.014547
vt 0.908427 0.024805
vt 0.942821 0.116107
vt 0.907105 0.673514
vt 0.919505 0.705918
vt 0.933969 0.673514
vt 0.933969 0.673514
vt 0.921320 0.640722
vt 0.907105 0.673514
vt 0.919505 0.705918
vt 0.933969 0.673514
vt 0.907105 0.673514
vt 0.921320 0.640722
vt 0.907105 0.673514
vt 0.933969 0.673514
vt 0.928198 0.624994
vt 0.928198 0.569410
vt 0.912598 0.624994
vt 0.912598 0.569410
vt 0.912598 0.624994
vt 0.928198 0.569410
vt 0.522637 0.062620
vt 0.522637 0.007036
vt 0.679740 0.062620
vt 0.679740 0.007036
vt 0.928197 0.624994
vt 0.928197 0.569412
vt 0.912598 0.624994
vt 0.912598 0.569412
vt 0.912598 0.624994
vt 0.928197 0.569412
vt 0.522637 0.062620
vt 0.522637 0.007036
vt 0.679740 0.062620
vt 0.679740 0.007036
vt 0.345236 0.011257
vt 0.502340 0.011257
vt 0.345236 0.026857
vt 0.502340 0.026857
vt 0.069206 0.914931
vt 0.091752 0.914984
vt 0.069196 0.790057
vt 0.091752 0.790057
vt 0.928027 0.818080
vt 0.928027 0.847323
vt 0.904254 0.818080
vt 0.904254 0.847323
vt 0.904254 0.818080
vt 0.928027 0.847323
vt 0.020684 0.788798
vt 0.049914 0.788798
vt 0.020684 0.916032
vt 0.049914 0.916032
vt 0.928027 0.818080
vt 0.904254 0.818080
vt 0.928027 0.847323
vt 0.904254 0.847323
vt 0.928027 0.847323
vt 0.904254 0.818080
vt 0.049914 0.788798
vt 0.020684 0.788798
vt 0.049914 0.916032
vt 0.020684 0.916032
vt 0.069186 0.915038
vt 0.091752 0.914984
vt 0.069196 0.790057
vt 0.091752 0.790057
vt 0.904254 0.818080
vt 0.904254 0.847323
vt 0.928027 0.818080
vt 0.928027 0.847323
vt 0.928027 0.818080
vt 0.904254 0.847323
vt 0.928027 0.818080
vt 0.928027 0.847323
vt 0.904254 0.818080
vt 0.904254 0.847323
vt 0.904254 0.818080
vt 0.928027 0.847323
vt 0.020684 0.916032
vt 0.049914 0.916032
vt 0.020684 0.788798
vt 0.049914 0.788798
vt 0.049914 0.788798
vt 0.020684 0.788798
vt 0.049914 0.916032
vt 0.020684 0.916032
vt 0.983305 0.255093
vt 0.969268 0.255093
vt 0.983305 0.319943
vt 0.969268 0.319943
vt 0.983305 0.255093
vt 0.969268 0.255093
vt 0.983305 0.319943
vt 0.969268 0.319943
vt 0.983305 0.255093
vt 0.969268 0.255093
vt 0.983305 0.319943
vt 0.969268 0.319943
vt 0.983305 0.815451
vt 0.969268 0.815451
vt 0.983305 0.815451
vt 0.969268 0.815451
vt 0.983305 0.815451
vt 0.969268 0.815451
vt 0.983305 0.875456
vt 0.969268 0.875456
vt 0.983305 0.875456
vt 0.969268 0.875456
vt 0.983305 0.875456
vt 0.969268 0.875456
vt 0.757610 0.335862
vt 0.782698 0.312087
vt 0.757610 0.393691
vt 0.782698 0.393691
vt 0.757610 0.393691
vt 0.782698 0.312087
vt 0.729107 0.405323
vt 0.729107 0.550575
vt 0.700512 0.422907
vt 0.700512 0.528336
vt 0.812626 0.536311
vt 0.812626 0.429573
vt 0.829264 0.393691
vt 0.782698 0.393691
vt 0.829264 0.331387
vt 0.782698 0.312087
vt 0.829264 0.331387
vt 0.782698 0.393691
vt 0.148396 0.586459
vt 0.205006 0.598162
vt 0.148396 0.615723
vt 0.148396 0.586459
vt 0.205006 0.598162
vt 0.148396 0.615723
vt 0.127014 0.594645
vt 0.148396 0.586459
vt 0.148396 0.615723
vt 0.127014 0.594645
vt 0.148396 0.586459
vt 0.148396 0.615723
vt 0.155607 0.569185
vt 0.155607 0.237634
vt 0.212660 0.569185
vt 0.212660 0.237634
vt 0.155607 0.237634
vt 0.212660 0.237634
vt 0.155607 0.569185
vt 0.212660 0.569185
vt 0.729107 0.550575
vt 0.729107 0.405323
vt 0.700512 0.528336
vt 0.700512 0.422907
vt 0.757610 0.393691
vt 0.782698 0.393691
vt 0.757610 0.335999
vt 0.782698 0.312087
vt 0.757610 0.335999
vt 0.782698 0.393691
vt 0.829264 0.331387
vt 0.782698 0.312087
vt 0.829264 0.393691
vt 0.782698 0.393691
vt 0.829264 0.393691
vt 0.782698 0.312087
vt 0.812626 0.429573
vt 0.812626 0.536311
vt 0.148396 0.615723
vt 0.205006 0.598162
vt 0.148396 0.586459
vt 0.127014 0.594645
vt 0.148396 0.615723
vt 0.148396 0.586459
vt 0.148396 0.615723
vt 0.205006 0.598162
vt 0.148396 0.586459
vt 0.127014 0.594645
vt 0.148396 0.615723
vt 0.148396 0.586459
vt 0.563710 0.993373
vt 0.563709 0.892589
vt 0.505251 0.993374
vt 0.505251 0.892590
vt 0.505251 0.993374
vt 0.505251 0.892590
vt 0.460894 0.993374
vt 0.460893 0.892591
vt 0.006434 0.609162
vt 0.107216 0.609162
vt 0.006434 0.559156
vt 0.107216 0.559155
vt 0.006434 0.559156
vt 0.107216 0.559155
vt 0.006434 0.491176
vt 0.107216 0.491177
vt 0.006434 0.491176
vt 0.107216 0.491177
vt 0.006434 0.459618
vt 0.107216 0.459619
vt 0.006434 0.459618
vt 0.107216 0.459619
vt 0.006436 0.361730
vt 0.107217 0.361731
vt 0.006436 0.361730
vt 0.107217 0.361731
vt 0.006436 0.222213
vt 0.107218 0.222213
vt 0.107218 0.147279
vt 0.006436 0.147279
vt 0.107218 0.222213
vt 0.006436 0.222213
vt 0.006436 0.147279
vt 0.107218 0.147279
vt 0.006435 0.007761
vt 0.107217 0.007761
vt 0.988887 0.993369
vt 0.988887 0.892590
vt 0.891001 0.993370
vt 0.891000 0.892591
vt 0.891001 0.993370
vt 0.891000 0.892591
vt 0.859444 0.993371
vt 0.859443 0.892591
vt 0.859444 0.993371
vt 0.859443 0.892591
vt 0.791464 0.993371
vt 0.791464 0.892590
vt 0.791464 0.993371
vt 0.791464 0.892590
vt 0.741458 0.993372
vt 0.741457 0.892590
vt 0.741458 0.993372
vt 0.741457 0.892590
vt 0.697102 0.993373
vt 0.697101 0.892590
vt 0.697102 0.993373
vt 0.697101 0.892590
vt 0.638643 0.993374
vt 0.638643 0.892590
vt 0.563709 0.892589
vt 0.563710 0.993373
vt 0.638643 0.892590
vt 0.638643 0.993374
vt 0.847529 0.870547
vt 0.802603 0.831702
vt 0.889025 0.850989
vt 0.886985 0.799431
vt 0.683541 0.877036
vt 0.640629 0.860818
vt 0.725134 0.831702
vt 0.638589 0.809259
vt 0.844710 0.695872
vt 0.941694 0.723602
vt 0.941694 0.756140
vt 0.638589 0.809259
vt 0.579345 0.770477
vt 0.672280 0.695872
vt 0.579345 0.737940
vt 0.725134 0.831702
vt 0.683541 0.877036
vt 0.640629 0.860818
vt 0.714385 0.560041
vt 0.791855 0.560041
vt 0.886985 0.799431
vt 0.889025 0.850989
vt 0.802603 0.831702
vt 0.847529 0.870547
vt 0.672280 0.695872
vt 0.714385 0.560041
vt 0.844710 0.695872
vt 0.791855 0.560041
vt 0.941694 0.723602
vt 0.941694 0.756140
vt 0.579345 0.770477
vt 0.579345 0.737940
vt 0.258900 0.521679
vt 0.351741 0.579667
vt 0.356079 0.469983
vt 0.225425 0.546466
vt 0.249037 0.592247
vt 0.225425 0.494791
vt 0.250367 0.450517
vt 0.299463 0.426581
vt 0.351481 0.428376
vt 0.395335 0.455354
vt 0.419274 0.501142
vt 0.419274 0.552758
vt 0.389948 0.596994
vt 0.344568 0.620964
vt 0.292665 0.619209
vt 0.266295 0.993628
vt 0.303330 0.993628
vt 0.281108 0.922760
vt 0.340266 0.993628
vt 0.350031 0.922760
vt 0.377061 0.993628
vt 0.413669 0.993628
vt 0.418341 0.922760
vt 0.450010 0.993628
vt 0.007324 0.993628
vt 0.044785 0.993628
vt 0.007324 0.922760
vt 0.074168 0.922760
vt 0.081391 0.993628
vt 0.118202 0.993628
vt 0.142839 0.922760
vt 0.155130 0.993628
vt 0.192153 0.993628
vt 0.211925 0.922760
vt 0.229224 0.993628
vt 0.913226 0.256747
vt 0.852392 0.256747
vt 0.944031 0.309248
vt 0.822519 0.309248
vt 0.853101 0.362182
vt 0.914052 0.362182
vt 0.351763 0.579710
vt 0.389963 0.597009
vt 0.419274 0.552779
vt 0.344568 0.620964
vt 0.292665 0.619209
vt 0.249037 0.592247
vt 0.258900 0.521679
vt 0.225425 0.546466
vt 0.225425 0.494782
vt 0.250367 0.450517
vt 0.299463 0.426581
vt 0.356079 0.469983
vt 0.351481 0.428376
vt 0.395335 0.455354
vt 0.419274 0.501122
vt 0.450137 0.993628
vt 0.418393 0.922760
vt 0.413719 0.993628
vt 0.007324 0.922760
vt 0.007324 0.993628
vt 0.074129 0.922760
vt 0.044738 0.993628
vt 0.081354 0.993628
vt 0.142793 0.922760
vt 0.118142 0.993628
vt 0.155091 0.993628
vt 0.211918 0.922760
vt 0.192135 0.993628
vt 0.229227 0.993628
vt 0.281123 0.922760
vt 0.266318 0.993628
vt 0.303351 0.993628
vt 0.350064 0.922760
vt 0.340297 0.993628
vt 0.377102 0.993628
vt 0.822519 0.309248
vt 0.853101 0.362182
vt 0.944031 0.309248
vt 0.914052 0.362182
vt 0.852392 0.256747
vt 0.913226 0.256747
vt 0.351740 0.579668
vt 0.356079 0.469983
vt 0.258900 0.521679
vt 0.419274 0.501142
vt 0.395335 0.455354
vt 0.419274 0.552759
vt 0.389948 0.596994
vt 0.344568 0.620964
vt 0.292665 0.619209
vt 0.249037 0.592247
vt 0.225425 0.546466
vt 0.225425 0.494791
vt 0.250367 0.450517
vt 0.299463 0.426581
vt 0.351481 0.428376
vt 0.155131 0.993628
vt 0.118202 0.993628
vt 0.142839 0.922760
vt 0.081391 0.993628
vt 0.074168 0.922760
vt 0.044785 0.993628
vt 0.007324 0.993628
vt 0.007324 0.922760
vt 0.418341 0.922760
vt 0.450009 0.993628
vt 0.413669 0.993628
vt 0.377061 0.993628
vt 0.350031 0.922760
vt 0.340266 0.993628
vt 0.303330 0.993628
vt 0.281108 0.922760
vt 0.266294 0.993628
vt 0.229224 0.993628
vt 0.211925 0.922760
vt 0.192153 0.993628
vt 0.853101 0.362182
vt 0.914052 0.362182
vt 0.822519 0.309248
vt 0.944031 0.309248
vt 0.913226 0.256747
vt 0.852392 0.256747
vt 0.356370 0.303793
vt 0.437707 0.441203
vt 0.333151 0.316053
vt 0.416564 0.455630
vt 0.652686 0.431387
vt 0.740972 0.288082
vt 0.673569 0.449100
vt 0.762645 0.302258
vt 0.624499 0.098974
vt 0.624305 0.125653
vt 0.454709 0.099019
vt 0.454514 0.125855
vt 0.454709 0.099019
vt 0.624305 0.125653
vt 0.356370 0.303793
vt 0.437707 0.441203
vt 0.333151 0.316053
vt 0.416564 0.455630
vt 0.652686 0.431387
vt 0.740972 0.288082
vt 0.673569 0.449100
vt 0.762645 0.302258
vt 0.624499 0.098974
vt 0.624305 0.125653
vt 0.454709 0.099019
vt 0.454514 0.125855
vt 0.454709 0.099019
vt 0.624305 0.125653
vt 0.609750 0.690299
vt 0.652686 0.431387
vt 0.631659 0.703600
vt 0.673569 0.449100
vt 0.631659 0.703600
vt 0.652686 0.431387
vt 0.457110 0.713159
vt 0.416564 0.455630
vt 0.479063 0.700053
vt 0.437707 0.441203
vt 0.479063 0.700053
vt 0.416564 0.455630
vt 0.216357 0.007904
vt 0.454709 0.099019
vt 0.218255 0.031522
vt 0.454514 0.125855
vt 0.218255 0.031522
vt 0.454709 0.099019
vt 0.624499 0.098974
vt 0.860592 0.004858
vt 0.624305 0.125653
vt 0.859153 0.030793
vt 0.624305 0.125653
vt 0.860592 0.004858
vt 0.624305 0.125653
vt 0.624499 0.098974
vt 0.859153 0.030793
vt 0.860592 0.004858
vt 0.859153 0.030793
vt 0.624499 0.098974
vt 0.454514 0.125855
vt 0.218255 0.031522
vt 0.454709 0.099019
vt 0.216357 0.007904
vt 0.454709 0.099019
vt 0.218255 0.031522
vt 0.189209 0.025543
vt 0.157075 0.011961
vt 0.157075 0.057191
vt 0.201614 0.057191
vt 0.188440 0.088929
vt 0.157075 0.102244
vt 0.124807 0.089009
vt 0.111639 0.057191
vt 0.124966 0.024920
vt 0.195359 0.876019
vt 0.182051 0.748823
vt 0.168662 0.876019
vt 0.235445 0.748823
vt 0.222057 0.876019
vt 0.248754 0.876019
vt 0.289197 0.748823
vt 0.275452 0.876019
vt 0.302149 0.876019
vt 0.331571 0.748589
vt 0.328518 0.876019
vt 0.141965 0.876019
vt 0.126646 0.748728
vt 0.115268 0.876019
vt 0.302149 0.876019
vt 0.275452 0.876019
vt 0.288800 0.748599
vt 0.328518 0.876019
vt 0.328518 0.748599
vt 0.141965 0.876019
vt 0.115268 0.876019
vt 0.128617 0.748599
vt 0.168662 0.876019
vt 0.182011 0.748599
vt 0.195359 0.876019
vt 0.222057 0.876019
vt 0.235405 0.748599
vt 0.248754 0.876019
vt 0.157075 0.102243
vt 0.188440 0.088929
vt 0.157075 0.057191
vt 0.201614 0.057191
vt 0.189209 0.025543
vt 0.157075 0.011961
vt 0.124966 0.024920
vt 0.111639 0.057191
vt 0.124807 0.089009
vt 0.201614 0.057191
vt 0.189209 0.025543
vt 0.157075 0.057191
vt 0.188440 0.088930
vt 0.157075 0.102244
vt 0.124807 0.089009
vt 0.111639 0.057191
vt 0.124966 0.024920
vt 0.157075 0.011960
vt 0.235405 0.748599
vt 0.182011 0.748599
vt 0.222057 0.876019
vt 0.195359 0.876019
vt 0.248754 0.876019
vt 0.288800 0.748599
vt 0.275452 0.876019
vt 0.302149 0.876019
vt 0.328518 0.748599
vt 0.328518 0.876019
vt 0.141965 0.876019
vt 0.128616 0.748599
vt 0.115268 0.876019
vt 0.168662 0.876019
vt 0.302149 0.876019
vt 0.275452 0.876019
vt 0.289068 0.748764
vt 0.328518 0.876019
vt 0.331243 0.748825
vt 0.141965 0.876019
vt 0.115268 0.876019
vt 0.126733 0.748781
vt 0.168662 0.876019
vt 0.181977 0.748796
vt 0.195359 0.876019
vt 0.222057 0.876019
vt 0.235370 0.748796
vt 0.248754 0.876019
vt 0.111639 0.057191
vt 0.124807 0.089009
vt 0.157075 0.057191
vt 0.157075 0.102244
vt 0.188440 0.088930
vt 0.201614 0.057191
vt 0.189209 0.025543
vt 0.157075 0.011961
vt 0.124966 0.024920
vt 0.433878 0.641478
vt 0.351724 0.641478
vt 0.433877 0.752169
vt 0.351723 0.752171
vt 0.335921 0.631737
vt 0.253047 0.631737
vt 0.335922 0.739258
vt 0.253047 0.739257
vt 0.335591 0.418934
vt 0.335590 0.336352
vt 0.224776 0.418934
vt 0.224573 0.336352
vt 0.344953 0.779908
vt 0.344951 0.862584
vt 0.452838 0.779908
vt 0.452837 0.862584
vt 0.351723 0.752171
vt 0.433877 0.752169
vt 0.351724 0.641478
vt 0.433878 0.641478
vt 0.452837 0.862584
vt 0.452838 0.779908
vt 0.344951 0.862584
vt 0.344953 0.779908
vt 0.224979 0.336352
vt 0.224776 0.418934
vt 0.335590 0.336352
vt 0.335591 0.418934
vt 0.253047 0.739257
vt 0.335922 0.739258
vt 0.253047 0.631737
vt 0.335921 0.631737
vt 0.433878 0.641478
vt 0.351724 0.641478
vt 0.433877 0.752169
vt 0.351723 0.752171
vt 0.335921 0.631737
vt 0.253047 0.631737
vt 0.335922 0.739258
vt 0.253047 0.739257
vt 0.335591 0.418934
vt 0.335590 0.336352
vt 0.224776 0.418934
vt 0.224912 0.336352
vt 0.344953 0.779908
vt 0.344951 0.862584
vt 0.452838 0.779908
vt 0.452837 0.862584
vt 0.113704 0.759417
vt 0.113704 0.649883
vt 0.007426 0.759416
vt 0.007426 0.649882
vt 0.007426 0.759416
vt 0.113704 0.649883
vt 0.130909 0.736561
vt 0.240572 0.736440
vt 0.130790 0.630157
vt 0.240455 0.630035
vt 0.130790 0.630157
vt 0.240572 0.736440
vt 0.114106 0.759129
vt 0.113985 0.649466
vt 0.007702 0.759248
vt 0.007581 0.649583
vt 0.007702 0.759248
vt 0.113985 0.649466
vt 0.114106 0.759129
vt 0.113985 0.649466
vt 0.007702 0.759248
vt 0.007581 0.649583
vt 0.007702 0.759248
vt 0.113985 0.649466
vt 0.114106 0.759129
vt 0.113985 0.649466
vt 0.007702 0.759248
vt 0.007581 0.649583
vt 0.007702 0.759248
vt 0.113985 0.649466
vt 0.114106 0.759129
vt 0.113985 0.649466
vt 0.007702 0.759248
vt 0.007581 0.649583
vt 0.007702 0.759248
vt 0.113985 0.649466
vt 0.910946 0.545390
vt 0.946617 0.554903
vt 0.910989 0.530590
vt 0.946440 0.519044
vt 0.946440 0.519044
vt 0.946617 0.554903
vt 0.910989 0.530590
vt 0.910946 0.545390
vt 0.872028 0.529080
vt 0.910946 0.545390
vt 0.872074 0.548494
vt 0.910946 0.545390
vt 0.946617 0.554903
vt 0.910989 0.530590
vt 0.946440 0.519044
vt 0.910989 0.530590
vt 0.946440 0.519044
vt 0.910989 0.530590
vt 0.872028 0.529080
vt 0.910946 0.545390
vt 0.872074 0.548494
vt 0.946617 0.554903
vt 0.910946 0.545390
vt 0.946617 0.554903
vt 0.910989 0.530590
vt 0.946440 0.519044
vt 0.910946 0.545390
vt 0.946617 0.554903
vt 0.910989 0.530590
vt 0.946440 0.519044
vt 0.946440 0.519044
vt 0.946617 0.554903
vt 0.910989 0.530590
vt 0.910946 0.545390
vt 0.872028 0.529080
vt 0.910946 0.545390
vt 0.872074 0.548494
vt 0.910946 0.545390
vt 0.946617 0.554903
vt 0.910989 0.530590
vt 0.946440 0.519044
vt 0.910989 0.530590
vt 0.946440 0.519044
vt 0.910989 0.530590
vt 0.872028 0.529080
vt 0.910946 0.545390
vt 0.872074 0.548494
vt 0.946617 0.554903
vt 0.910946 0.545390
vt 0.946617 0.554903
vt 0.910989 0.530590
vt 0.946440 0.519044
vt 0.872074 0.548494
vt 0.872028 0.529080
vt 0.872074 0.548494
vt 0.872028 0.529080
vt 0.946440 0.519044
vt 0.872074 0.548494
vt 0.946617 0.554903
vt 0.872028 0.529080
vt 0.872074 0.548494
vt 0.872028 0.529080
vt 0.872074 0.548494
vt 0.872028 0.529080
vt 0.872074 0.548494
vt 0.872028 0.529080
vt 0.946440 0.519044
vt 0.872074 0.548494
vt 0.946617 0.554903
vt 0.872028 0.529080
vt 0.872074 0.548494
vt 0.872028 0.529080
vt 0.872074 0.548494
vt 0.872028 0.529080
vt 0.872074 0.548494
vt 0.872028 0.529080
vt 0.946440 0.519044
vt 0.872074 0.548494
vt 0.946617 0.554903
vt 0.872028 0.529080
vt 0.872074 0.548494
vt 0.872028 0.529080
vt 0.246647 0.893238
vt 0.246647 0.912120
vt 0.285380 0.893238
vt 0.285380 0.912120
vt 0.351702 0.893238
vt 0.351702 0.912120
vt 0.188385 0.912120
vt 0.188385 0.893238
vt 0.881596 0.557657
vt 0.850961 0.583033
vt 0.881595 0.698658
vt 0.850961 0.674278
vt 0.881596 0.557657
vt 0.850961 0.583033
vt 0.881595 0.698658
vt 0.850961 0.674278
vt 0.246647 0.893238
vt 0.246647 0.912120
vt 0.312713 0.893238
vt 0.312713 0.912120
vt 0.351702 0.893238
vt 0.351702 0.912120
vt 0.188385 0.912120
vt 0.188385 0.893238
vt 0.881596 0.557657
vt 0.850961 0.583033
vt 0.881595 0.698658
vt 0.850961 0.674278
vt 0.881596 0.557657
vt 0.850961 0.583033
vt 0.881595 0.698658
vt 0.850961 0.674278
vt 0.246647 0.893238
vt 0.246647 0.912120
vt 0.285380 0.893238
vt 0.285380 0.912120
vt 0.351702 0.893238
vt 0.351702 0.912120
vt 0.188385 0.912120
vt 0.188385 0.893238
vt 0.881596 0.557657
vt 0.850961 0.583033
vt 0.881595 0.698658
vt 0.850961 0.674278
vt 0.881596 0.557657
vt 0.850961 0.583033
vt 0.881595 0.698658
vt 0.850961 0.674278
f 1/1/1 3/3/3 2/2/2
f 4/4/4 2/2/2 3/3/3
f 5/5/5 7/7/7 6/6/6
f 8/8/8 6/6/6 7/7/7
f 7/7/7 10/10/10 9/9/9
f 11/11/11 9/9/9 10/10/10
f 12/12/12 14/14/14 13/13/13
f 15/15/15 13/13/13 14/14/14
f 16/16/16 17/17/17 8/8/8
f 6/6/6 8/8/8 17/17/17
f 18/18/18 20/20/20 19/19/19
f 21/21/21 19/19/19 20/20/20
f 14/14/14 20/20/20 15/15/15
f 22/22/22 15/15/15 20/20/20
f 23/23/23 25/25/25 24/24/24
f 26/26/26 24/24/24 25/25/25
f 27/27/27 29/29/29 28/28/28
f 30/30/30 28/28/28 29/29/29
f 31/31/31 33/33/33 32/32/32
f 34/34/34 32/32/32 33/33/33
f 35/35/35 37/37/37 36/36/36
f 38/38/38 36/36/36 37/37/37
f 27/27/27 39/39/39 29/29/29
f 40/40/40 29/29/29 39/39/39
f 41/41/41 43/43/43 42/42/42
f 44/44/44 42/42/42 43/43/43
f 45/45/45 47/47/47 46/46/46
f 48/48/48 50/50/50 49/49/49
f 41/41/41 42/42/42 51/51/51
f 52/52/52 51/51/51 42/42/42
f 42/42/42 44/44/44 53/53/53
f 54/54/54 53/53/53 44/44/44
f 55/55/55 57/57/57 56/56/56
f 58/58/58 60/60/60 59/59/59
f 61/61/61 63/63/63 62/62/62
f 64/64/64 66/66/66 65/65/65
f 67/67/67 68/68/68 29/29/29
f 30/30/30 29/29/29 68/68/68
f 69/69/69 70/70/70 52/52/52
f 51/51/51 52/52/52 70/70/70
f 71/71/71 73/73/73 72/72/72
f 74/74/74 76/76/76 75/75/75
f 77/77/77 79/79/79 78/78/78
f 80/80/80 82/82/82 81/81/81
f 83/83/83 84/84/84 39/39/39
f 40/40/40 39/39/39 84/84/84
f 85/85/85 87/87/87 86/86/86
f 88/88/88 90/90/90 89/89/89
f 91/91/91 93/93/93 92/92/92
f 94/94/94 96/96/96 95/95/95
f 97/97/97 98/98/98 28/28/28
f 27/27/27 28/28/28 98/98/98
f 99/99/99 101/101/101 100/100/100
f 102/102/102 104/104/104 103/103/103
f 105/105/105 107/107/107 106/106/106
f 108/108/108 106/106/106 107/107/107
f 109/109/109 111/111/111 110/110/110
f 112/112/112 110/110/110 111/111/111
f 113/113/113 115/115/115 114/114/114
f 116/116/116 114/114/114 115/115/115
f 117/117/117 119/119/119 118/118/118
f 120/120/120 118/118/118 119/119/119
f 121/121/121 123/123/123 122/122/122
f 124/124/124 122/122/122 123/123/123
f 125/125/125 127/127/127 126/126/126
f 128/128/128 126/126/126 127/127/127
f 129/129/129 131/131/131 130/130/130
f 132/132/132 130/130/130 131/131/131
f 133/133/133 135/135/135 134/134/134
f 136/136/136 134/134/134 135/135/135
f 137/137/137 139/139/139 138/138/138
f 140/140/140 138/138/138 139/139/139
f 141/141/141 143/143/143 142/142/142
f 144/144/144 142/142/142 143/143/143
f 145/145/145 147/147/147 146/146/146
f 148/148/148 146/146/146 147/147/147
f 149/149/149 151/151/151 150/150/150
f 152/152/152 150/150/150 151/151/151
f 153/153/153 155/155/155 154/154/154
f 156/156/156 154/154/154 155/155/155
f 157/157/157 159/159/159 158/158/158
f 160/160/160 162/162/162 161/161/161
f 163/163/163 165/165/165 164/164/164
f 166/166/166 168/168/168 167/167/167
f 154/154/154 169/169/169 153/153/153
f 170/170/170 153/153/153 169/169/169
f 171/171/171 173/173/173 172/172/172
f 174/174/174 176/176/176 175/175/175
f 177/177/177 179/179/179 178/178/178
f 180/180/180 182/182/182 181/181/181
f 183/183/183 185/185/185 184/184/184
f 186/186/186 188/188/188 187/187/187
f 189/189/189 191/191/191 190/190/190
f 192/192/192 190/190/190 191/191/191
f 193/193/193 194/194/194 192/192/192
f 190/190/190 192/192/192 194/194/194
f 195/195/195 197/197/197 196/196/196
f 198/198/198 200/200/200 199/199/199
f 201/201/201 203/203/203 202/202/202
f 204/204/204 206/206/206 205/205/205
f 207/207/207 209/209/209 208/208/208
f 210/210/210 212/212/212 211/211/211
f 213/213/213 215/215/215 214/214/214
f 216/216/216 218/218/218 217/217/217
f 219/219/219 221/221/221 220/220/220
f 222/222/222 220/220/220 221/221/221
f 223/223/223 225/225/225 224/224/224
f 226/226/226 228/228/228 227/227/227
f 229/229/229 231/231/231 230/230/230
f 232/232/232 230/230/230 231/231/231
f 233/233/233 235/235/235 234/234/234
f 236/236/236 234/234/234 235/235/235
f 237/237/237 239/239/239 238/238/238
f 240/240/240 238/238/238 239/239/239
f 241/241/241 243/243/243 242/242/242
f 244/244/244 246/246/246 245/245/245
f 247/247/247 249/249/249 248/248/248
f 250/250/250 248/248/248 249/249/249
f 251/251/251 253/253/253 252/252/252
f 254/254/254 256/256/256 255/255/255
f 257/257/257 259/259/259 258/258/258
f 260/260/260 258/258/258 259/259/259
f 261/261/261 263/263/263 262/262/262
f 264/264/264 262/262/262 263/263/263
f 265/265/265 267/267/267 266/266/266
f 268/268/268 270/270/270 269/269/269
f 271/271/271 273/273/273 272/272/272
f 274/274/274 276/276/276 275/275/275
f 277/277/277 279/279/279 278/278/278
f 280/280/280 278/278/278 279/279/279
f 281/281/281 283/283/283 282/282/282
f 284/284/284 282/282/282 283/283/283
f 285/285/285 287/287/287 286/286/286
f 288/288/288 286/286/286 287/287/287
f 289/289/289 291/291/291 290/290/290
f 292/292/292 290/290/290 291/291/291
f 293/293/293 295/295/295 294/294/294
f 296/296/296 294/294/294 295/295/295
f 287/287/287 297/297/297 288/288/288
f 298/298/298 288/288/288 297/297/297
f 291/291/291 299/299/299 292/292/292
f 300/300/300 292/292/292 299/299/299
f 295/295/295 301/301/301 296/296/296
f 302/302/302 296/296/296 301/301/301
f 297/297/297 303/303/303 298/298/298
f 304/304/304 298/298/298 303/303/303
f 299/299/299 305/305/305 300/300/300
f 306/306/306 300/300/300 305/305/305
f 301/301/301 307/307/307 302/302/302
f 308/308/308 302/302/302 307/307/307
f 309/309/309 311/311/311 310/310/310
f 312/312/312 314/314/314 313/313/313
f 315/315/315 317/317/317 316/316/316
f 318/318/318 316/316/316 317/317/317
f 316/316/316 319/319/319 315/315/315
f 320/320/320 315/315/315 319/319/319
f 321/321/321 323/323/323 322/322/322
f 324/324/324 326/326/326 325/325/325
f 327/327/327 329/329/329 328/328/328
f 330/330/330 332/332/332 331/331/331
f 333/333/333 335/335/335 334/334/334
f 336/336/336 338/338/338 337/337/337
f 339/339/339 341/341/341 340/340/340
f 342/342/342 340/340/340 341/341/341
f 343/343/343 345/345/345 344/344/344
f 346/346/346 344/344/344 345/345/345
f 347/347/347 349/349/349 348/348/348
f 350/350/350 348/348/348 349/349/349
f 351/351/351 353/353/353 352/352/352
f 354/354/354 356/356/356 355/355/355
f 357/357/357 359/359/359 358/358/358
f 360/360/360 362/362/362 361/361/361
f 363/363/363 364/364/364 348/348/348
f 347/347/347 348/348/348 364/364/364
f 365/365/365 367/367/367 366/366/366
f 368/368/368 370/370/370 369/369/369
f 371/371/371 373/373/373 372/372/372
f 374/374/374 376/376/376 375/375/375
f 377/377/377 379/379/379 378/378/378
f 380/380/380 378/378/378 379/379/379
f 381/381/381 383/383/383 382/382/382
f 384/384/384 382/382/382 383/383/383
f 385/385/385 387/387/387 386/386/386
f 388/388/388 386/386/386 387/387/387
f 389/389/389 391/391/391 390/390/390
f 392/392/392 390/390/390 391/391/391
f 393/393/393 395/395/395 394/394/394
f 396/396/396 394/394/394 395/395/395
f 397/397/397 399/399/399 398/398/398
f 400/400/400 398/398/398 399/399/399
f 401/401/401 403/403/403 402/402/402
f 404/404/404 402/402/402 403/403/403
f 405/405/405 407/407/407 406/406/406
f 408/408/408 406/406/406 407/407/407
f 409/409/409 411/411/411 410/410/410
f 412/412/412 410/410/410 411/411/411
f 413/413/413 415/415/415 414/414/414
f 416/416/416 414/414/414 415/415/415
f 417/417/417 419/419/419 418/418/418
f 420/420/420 418/418/418 419/419/419
f 421/421/421 423/423/423 422/422/422
f 424/424/424 422/422/422 423/423/423
f 425/425/425 427/427/427 426/426/426
f 428/428/428 426/426/426 427/427/427
f 429/429/429 431/431/431 430/430/430
f 432/432/432 430/430/430 431/431/431
f 433/433/433 435/435/435 434/434/434
f 436/436/436 434/434/434 435/435/435
f 437/437/437 439/439/439 438/438/438
f 440/440/440 438/438/438 439/439/439
f 441/441/441 443/443/443 442/442/442
f 444/444/444 442/442/442 443/443/443
f 445/445/445 447/447/447 446/446/446
f 448/448/448 446/446/446 447/447/447
f 449/449/449 444/444/444 450/450/450
f 451/451/451 450/450/450 444/444/444
f 449/449/449 442/442/442 444/444/444
f 452/452/452 454/454/454 453/453/453
f 455/455/455 453/453/453 454/454/454
f 456/456/456 452/452/452 457/457/457
f 458/458/458 457/457/457 452/452/452
f 454/454/454 449/449/449 459/459/459
f 460/460/460 459/459/459 449/449/449
f 452/452/452 456/456/456 454/454/454
f 449/449/449 454/454/454 442/442/442
f 456/456/456 442/442/442 454/454/454
f 461/461/461 463/463/463 462/462/462
f 464/464/464 462/462/462 463/463/463
f 465/465/465 448/448/448 447/447/447
f 465/465/465 467/467/467 466/466/466
f 468/468/468 466/466/466 467/467/467
f 467/467/467 461/461/461 469/469/469
f 470/470/470 469/469/469 461/461/461
f 448/448/448 465/465/465 471/471/471
f 472/472/472 471/471/471 465/465/465
f 461/461/461 467/467/467 463/463/463
f 447/447/447 463/463/463 465/465/465
f 467/467/467 465/465/465 463/463/463
f 473/473/473 475/475/475 474/474/474
f 473/473/473 477/477/477 476/476/476
f 478/478/478 473/473/473 476/476/476
f 479/479/479 473/473/473 478/478/478
f 473/473/473 479/479/479 475/475/475
f 480/480/480 475/475/475 479/479/479
f 481/481/481 475/475/475 480/480/480
f 482/482/482 475/475/475 481/481/481
f 483/483/483 475/475/475 482/482/482
f 475/475/475 483/483/483 474/474/474
f 484/484/484 474/474/474 483/483/483
f 485/485/485 474/474/474 484/484/484
f 486/486/486 474/474/474 485/485/485
f 487/487/487 474/474/474 486/486/486
f 474/474/474 487/487/487 473/473/473
f 477/477/477 473/473/473 487/487/487
f 488/488/488 490/490/490 489/489/489
f 489/489/489 490/490/490 491/491/491
f 492/492/492 491/491/491 490/490/490
f 492/492/492 493/493/493 491/491/491
f 493/493/493 492/492/492 494/494/494
f 495/495/495 494/494/494 492/492/492
f 495/495/495 496/496/496 494/494/494
f 497/497/497 499/499/499 498/498/498
f 500/500/500 498/498/498 499/499/499
f 500/500/500 501/501/501 498/498/498
f 501/501/501 500/500/500 502/502/502
f 503/503/503 502/502/502 500/500/500
f 503/503/503 504/504/504 502/502/502
f 504/504/504 503/503/503 505/505/505
f 506/506/506 505/505/505 503/503/503
f 506/506/506 507/507/507 505/505/505
f 507/507/507 506/506/506 488/488/488
f 490/490/490 488/488/488 506/506/506
f 508/508/508 510/510/510 509/509/509
f 511/511/511 509/509/509 510/510/510
f 511/511/511 510/510/510 512/512/512
f 513/513/513 512/512/512 510/510/510
f 514/514/514 516/516/516 515/515/515
f 514/514/514 515/515/515 517/517/517
f 514/514/514 517/517/517 518/518/518
f 518/518/518 519/519/519 514/514/514
f 520/520/520 514/514/514 519/519/519
f 520/520/520 519/519/519 521/521/521
f 520/520/520 521/521/521 522/522/522
f 520/520/520 522/522/522 523/523/523
f 523/523/523 524/524/524 520/520/520
f 525/525/525 520/520/520 524/524/524
f 525/525/525 524/524/524 526/526/526
f 525/525/525 526/526/526 527/527/527
f 525/525/525 527/527/527 528/528/528
f 528/528/528 516/516/516 525/525/525
f 514/514/514 525/525/525 516/516/516
f 529/529/529 531/531/531 530/530/530
f 532/532/532 534/534/534 533/533/533
f 535/535/535 533/533/533 534/534/534
f 536/536/536 535/535/535 534/534/534
f 534/534/534 537/537/537 536/536/536
f 538/538/538 536/536/536 537/537/537
f 539/539/539 538/538/538 537/537/537
f 537/537/537 540/540/540 539/539/539
f 541/541/541 539/539/539 540/540/540
f 542/542/542 541/541/541 540/540/540
f 540/540/540 543/543/543 542/542/542
f 544/544/544 542/542/542 543/543/543
f 545/545/545 544/544/544 543/543/543
f 543/543/543 546/546/546 545/545/545
f 547/547/547 545/545/545 546/546/546
f 548/548/548 547/547/547 546/546/546
f 546/546/546 530/530/530 548/548/548
f 531/531/531 548/548/548 530/530/530
f 549/549/549 551/551/551 550/550/550
f 552/552/552 550/550/550 551/551/551
f 549/549/549 553/553/553 551/551/551
f 554/554/554 551/551/551 553/553/553
f 555/555/555 557/557/557 556/556/556
f 556/556/556 559/559/559 558/558/558
f 556/556/556 558/558/558 555/555/555
f 560/560/560 555/555/555 558/558/558
f 561/561/561 555/555/555 560/560/560
f 562/562/562 555/555/555 561/561/561
f 563/563/563 555/555/555 562/562/562
f 555/555/555 563/563/563 557/557/557
f 564/564/564 557/557/557 563/563/563
f 565/565/565 557/557/557 564/564/564
f 566/566/566 557/557/557 565/565/565
f 567/567/567 557/557/557 566/566/566
f 557/557/557 567/567/567 556/556/556
f 568/568/568 556/556/556 567/567/567
f 569/569/569 556/556/556 568/568/568
f 559/559/559 556/556/556 569/569/569
f 570/570/570 572/572/572 571/571/571
f 571/571/571 572/572/572 573/573/573
f 574/574/574 573/573/573 572/572/572
f 574/574/574 575/575/575 573/573/573
f 575/575/575 574/574/574 576/576/576
f 577/577/577 576/576/576 574/574/574
f 578/578/578 580/580/580 579/579/579
f 580/580/580 578/578/578 581/581/581
f 582/582/582 581/581/581 578/578/578
f 582/582/582 583/583/583 581/581/581
f 583/583/583 582/582/582 584/584/584
f 585/585/585 584/584/584 582/582/582
f 585/585/585 586/586/586 584/584/584
f 586/586/586 585/585/585 587/587/587
f 588/588/588 587/587/587 585/585/585
f 588/588/588 589/589/589 587/587/587
f 589/589/589 588/588/588 570/570/570
f 572/572/572 570/570/570 588/588/588
f 590/590/590 592/592/592 591/591/591
f 593/593/593 591/591/591 592/592/592
f 593/593/593 592/592/592 594/594/594
f 595/595/595 594/594/594 592/592/592
f 520/520/520 525/525/525 514/514/514
f 596/596/596 598/598/598 597/597/597
f 599/599/599 597/597/597 598/598/598
f 600/600/600 602/602/602 601/601/601
f 603/603/603 601/601/601 602/602/602
f 604/604/604 606/606/606 605/605/605
f 607/607/607 609/609/609 608/608/608
f 610/610/610 612/612/612 611/611/611
f 613/613/613 611/611/611 612/612/612
f 614/614/614 616/616/616 615/615/615
f 617/617/617 615/615/615 616/616/616
f 618/618/618 620/620/620 619/619/619
f 621/621/621 623/623/623 622/622/622
f 624/624/624 626/626/626 625/625/625
f 627/627/627 629/629/629 628/628/628
f 630/630/630 632/632/632 631/631/631
f 633/633/633 635/635/635 634/634/634
f 636/636/636 638/638/638 637/637/637
f 639/639/639 641/641/641 640/640/640
f 642/642/642 644/644/644 643/643/643
f 645/645/645 647/647/647 646/646/646
f 648/648/648 650/650/650 649/649/649
f 651/651/651 653/653/653 652/652/652
f 654/654/654 656/656/656 655/655/655
f 657/657/657 659/659/659 658/658/658
f 660/660/660 662/662/662 661/661/661
f 663/663/663 662/662/662 660/660/660
f 664/664/664 662/662/662 663/663/663
f 665/665/665 662/662/662 664/664/664
f 666/666/666 662/662/662 665/665/665
f 667/667/667 662/662/662 666/666/666
f 668/668/668 662/662/662 667/667/667
f 661/661/661 662/662/662 668/668/668
f 669/669/669 671/671/671 670/670/670
f 672/672/672 673/673/673 670/670/670
f 669/669/669 670/670/670 673/673/673
f 674/674/674 673/673/673 672/672/672
f 675/675/675 676/676/676 672/672/672
f 674/674/674 672/672/672 676/676/676
f 677/677/677 676/676/676 675/675/675
f 678/678/678 679/679/679 675/675/675
f 677/677/677 675/675/675 679/679/679
f 680/680/680 682/682/682 681/681/681
f 670/670/670 671/671/671 681/681/681
f 680/680/680 681/681/681 671/671/671
f 683/683/683 685/685/685 684/684/684
f 686/686/686 687/687/687 683/683/683
f 685/685/685 683/683/683 687/687/687
f 688/688/688 690/690/690 689/689/689
f 691/691/691 692/692/692 688/688/688
f 690/690/690 688/688/688 692/692/692
f 693/693/693 692/692/692 691/691/691
f 694/694/694 695/695/695 693/693/693
f 692/692/692 693/693/693 695/695/695
f 696/696/696 695/695/695 694/694/694
f 684/684/684 685/685/685 696/696/696
f 695/695/695 696/696/696 685/685/685
f 697/697/697 699/699/699 698/698/698
f 698/698/698 699/699/699 700/700/700
f 700/700/700 699/699/699 701/701/701
f 701/701/701 699/699/699 702/702/702
f 702/702/702 699/699/699 703/703/703
f 703/703/703 699/699/699 704/704/704
f 704/704/704 699/699/699 705/705/705
f 705/705/705 699/699/699 697/697/697
f 706/706/706 708/708/708 707/707/707
f 709/709/709 708/708/708 706/706/706
f 710/710/710 708/708/708 709/709/709
f 711/711/711 708/708/708 710/710/710
f 712/712/712 708/708/708 711/711/711
f 713/713/713 708/708/708 712/712/712
f 714/714/714 708/708/708 713/713/713
f 707/707/707 708/708/708 714/714/714
f 715/715/715 717/717/717 716/716/716
f 718/718/718 716/716/716 717/717/717
f 719/719/719 717/717/717 715/715/715
f 720/720/720 721/721/721 715/715/715
f 719/719/719 715/715/715 721/721/721
f 722/722/722 721/721/721 720/720/720
f 723/723/723 724/724/724 720/720/720
f 722/722/722 720/720/720 724/724/724
f 725/725/725 727/727/727 726/726/726
f 716/716/716 728/728/728 726/726/726
f 725/725/725 726/726/726 728/728/728
f 718/718/718 728/728/728 716/716/716
f 729/729/729 731/731/731 730/730/730
f 732/732/732 733/733/733 729/729/729
f 731/731/731 729/729/729 733/733/733
f 734/734/734 736/736/736 735/735/735
f 737/737/737 738/738/738 734/734/734
f 736/736/736 734/734/734 738/738/738
f 739/739/739 738/738/738 737/737/737
f 740/740/740 741/741/741 739/739/739
f 738/738/738 739/739/739 741/741/741
f 742/742/742 741/741/741 740/740/740
f 730/730/730 731/731/731 742/742/742
f 741/741/741 742/742/742 731/731/731
f 743/743/743 745/745/745 744/744/744
f 744/744/744 745/745/745 746/746/746
f 746/746/746 745/745/745 747/747/747
f 747/747/747 745/745/745 748/748/748
f 748/748/748 745/745/745 749/749/749
f 749/749/749 745/745/745 750/750/750
f 750/750/750 745/745/745 751/751/751
f 751/751/751 745/745/745 743/743/743
f 752/752/752 754/754/754 753/753/753
f 755/755/755 753/753/753 754/754/754
f 756/756/756 758/758/758 757/757/757
f 759/759/759 757/757/757 758/758/758
f 760/760/760 762/762/762 761/761/761
f 763/763/763 761/761/761 762/762/762
f 764/764/764 766/766/766 765/765/765
f 767/767/767 765/765/765 766/766/766
f 768/768/768 770/770/770 769/769/769
f 771/771/771 769/769/769 770/770/770
f 772/772/772 774/774/774 773/773/773
f 775/775/775 773/773/773 774/774/774
f 776/776/776 778/778/778 777/777/777
f 779/779/779 777/777/777 778/778/778
f 780/780/780 782/782/782 781/781/781
f 783/783/783 781/781/781 782/782/782
f 784/784/784 786/786/786 785/785/785
f 787/787/787 785/785/785 786/786/786
f 788/788/788 790/790/790 789/789/789
f 791/791/791 789/789/789 790/790/790
f 792/792/792 794/794/794 793/793/793
f 795/795/795 793/793/793 794/794/794
f 796/796/796 798/798/798 797/797/797
f 799/799/799 797/797/797 798/798/798
f 800/800/800 802/802/802 801/801/801
f 803/803/803 805/805/805 804/804/804
f 806/806/806 808/808/808 807/807/807
f 809/809/809 811/811/811 810/810/810
f 812/812/812 814/814/814 813/813/813
f 815/815/815 817/817/817 816/816/816
f 818/818/818 820/820/820 819/819/819
f 821/821/821 823/823/823 822/822/822
f 824/824/824 826/826/826 825/825/825
f 827/827/827 829/829/829 828/828/828
f 830/830/830 832/832/832 831/831/831
f 833/833/833 835/835/835 834/834/834
f 836/836/836 838/838/838 837/837/837
f 839/839/839 837/837/837 838/838/838
f 840/840/840 842/842/842 841/841/841
f 843/843/843 841/841/841 842/842/842
f 842/842/842 845/845/845 844/844/844
f 846/846/846 844/844/844 845/845/845
f 847/847/847 849/849/849 848/848/848
f 850/850/850 848/848/848 849/849/849
f 851/851/851 852/852/852 843/843/843
f 841/841/841 843/843/843 852/852/852
f 853/853/853 855/855/855 854/854/854
f 856/856/856 854/854/854 855/855/855
f 849/849/849 855/855/855 850/850/850
f 857/857/857 850/850/850 855/855/855
f 858/858/858 860/860/860 859/859/859
f 861/861/861 859/859/859 860/860/860
f 862/862/862 864/864/864 863/863/863
f 865/865/865 863/863/863 864/864/864
f 866/866/866 868/868/868 867/867/867
f 869/869/869 867/867/867 868/868/868
f 868/868/868 871/871/871 870/870/870
f 872/872/872 870/870/870 871/871/871
f 873/873/873 875/875/875 874/874/874
f 876/876/876 874/874/874 875/875/875
f 877/877/877 878/878/878 869/869/869
f 867/867/867 869/869/869 878/878/878
f 879/879/879 881/881/881 880/880/880
f 882/882/882 880/880/880 881/881/881
f 875/875/875 881/881/881 876/876/876
f 883/883/883 876/876/876 881/881/881
f 884/884/884 886/886/886 885/885/885
f 887/887/887 885/885/885 886/886/886
f 888/888/888 889/889/889 836/836/836
f 838/838/838 836/836/836 889/889/889
f 890/890/890 891/891/891 847/847/847
f 849/849/849 847/847/847 891/891/891
f 857/857/857 855/855/855 892/892/892
f 853/853/853 892/892/892 855/855/855
f 856/856/856 855/855/855 891/891/891
f 849/849/849 891/891/891 855/855/855
f 893/893/893 843/843/843 844/844/844
f 842/842/842 844/844/844 843/843/843
f 840/840/840 894/894/894 842/842/842
f 845/845/845 842/842/842 894/894/894
f 895/895/895 851/851/851 893/893/893
f 843/843/843 893/893/893 851/851/851
f 896/896/896 897/897/897 858/858/858
f 860/860/860 858/858/858 897/897/897
f 898/898/898 899/899/899 862/862/862
f 864/864/864 862/862/862 899/899/899
f 900/900/900 901/901/901 873/873/873
f 875/875/875 873/873/873 901/901/901
f 883/883/883 881/881/881 902/902/902
f 879/879/879 902/902/902 881/881/881
f 882/882/882 881/881/881 901/901/901
f 875/875/875 901/901/901 881/881/881
f 903/903/903 869/869/869 870/870/870
f 868/868/868 870/870/870 869/869/869
f 866/866/866 904/904/904 868/868/868
f 871/871/871 868/868/868 904/904/904
f 905/905/905 877/877/877 903/903/903
f 869/869/869 903/903/903 877/877/877
f 906/906/906 907/907/907 884/884/884
f 886/886/886 884/884/884 907/907/907
f 908/908/908 909/909/909 1/1/1
f 3/3/3 1/1/1 909/909/909
f 910/910/910 911/911/911 12/12/12
f 14/14/14 12/12/12 911/911/911
f 22/22/22 20/20/20 912/912/912
f 18/18/18 912/912/912 20/20/20
f 21/21/21 20/20/20 911/911/911
f 14/14/14 911/911/911 20/20/20
f 913/913/913 8/8/8 9/9/9
f 7/7/7 9/9/9 8/8/8
f 5/5/5 914/914/914 7/7/7
f 10/10/10 7/7/7 914/914/914
f 915/915/915 16/16/16 913/913/913
f 8/8/8 913/913/913 16/16/16
f 916/916/916 917/917/917 23/23/23
f 25/25/25 23/23/23 917/917/917
f 918/918/918 920/920/920 919/919/919
f 921/921/921 919/919/919 920/920/920
f 920/920/920 922/922/922 921/921/921
f 923/923/923 921/921/921 922/922/922
f 924/924/924 925/925/925 919/919/919
f 918/918/918 919/919/919 925/925/925
f 926/926/926 928/928/928 927/927/927
f 929/929/929 927/927/927 928/928/928
f 930/930/930 932/932/932 931/931/931
f 933/933/933 931/931/931 932/932/932
f 934/934/934 936/936/936 935/935/935
f 937/937/937 935/935/935 936/936/936
f 936/936/936 938/938/938 937/937/937
f 939/939/939 937/937/937 938/938/938
f 940/940/940 941/941/941 935/935/935
f 934/934/934 935/935/935 941/941/941
f 942/942/942 944/944/944 943/943/943
f 945/945/945 943/943/943 944/944/944
f 946/946/946 948/948/948 947/947/947
f 949/949/949 947/947/947 948/948/948
f 950/950/950 952/952/952 951/951/951
f 953/953/953 951/951/951 952/952/952
f 952/952/952 954/954/954 953/953/953
f 955/955/955 953/953/953 954/954/954
f 956/956/956 957/957/957 951/951/951
f 950/950/950 951/951/951 957/957/957
f 958/958/958 960/960/960 959/959/959
f 961/961/961 959/959/959 960/960/960
f 962/962/962 964/964/964 963/963/963
f 965/965/965 963/963/963 964/964/964
