# awd2obj de C:\Source\MexOrbit\MexOrbit.CMS\public\spacemap\3d\meshes\skybox_geometry.awd
o geometry
v 0.217086 -0.217086 0.308883
v 0.209961 -0.270020 0.270020
v 0.270020 -0.209961 0.270020
v 0.250772 -0.250772 0.250772
v 0.229917 -0.152470 0.335874
v 0.289768 -0.148790 0.289768
v 0.152470 -0.229917 0.335874
v 0.159476 -0.159476 0.368711
v 0.148790 -0.289768 0.289768
v 0.239909 -0.078559 0.353190
v 0.303548 -0.077040 0.303548
v 0.244195 0.000000 0.359429
v 0.308946 0.000000 0.308946
v 0.165771 -0.081597 0.388753
v 0.168742 0.000000 0.395576
v 0.084635 -0.084635 0.410156
v 0.086155 0.000000 0.417318
v 0.000000 -0.086155 0.417318
v 0.000000 0.000000 0.424588
v 0.081597 -0.165771 0.388753
v 0.000000 -0.168742 0.395576
v 0.078559 -0.239909 0.353190
v 0.000000 -0.244195 0.359429
v 0.077040 -0.303548 0.303548
v 0.000000 -0.308946 0.308946
v 0.217086 0.217086 0.308883
v 0.270020 0.209961 0.270020
v 0.209961 0.270020 0.270020
v 0.250772 0.250772 0.250772
v 0.152470 0.229917 0.335874
v 0.148790 0.289768 0.289768
v 0.229917 0.152470 0.335874
v 0.159476 0.159476 0.368711
v 0.289768 0.148790 0.289768
v 0.078559 0.239909 0.353190
v 0.077040 0.303548 0.303548
v 0.000000 0.244195 0.359429
v 0.000000 0.308946 0.308946
v 0.081597 0.165771 0.388753
v 0.000000 0.168742 0.395576
v 0.084635 0.084635 0.410156
v 0.000000 0.086155 0.417318
v 0.086155 0.000000 0.417318
v 0.000000 0.000000 0.424588
v 0.165771 0.081597 0.388753
v 0.168742 0.000000 0.395576
v 0.239909 0.078559 0.353190
v 0.244195 0.000000 0.359429
v 0.303548 0.077040 0.303548
v 0.308946 0.000000 0.308946
v -0.217086 0.217086 0.308883
v -0.209961 0.270020 0.270020
v -0.270020 0.209961 0.270020
v -0.250772 0.250772 0.250772
v -0.229917 0.152470 0.335874
v -0.289768 0.148790 0.289768
v -0.152470 0.229917 0.335874
v -0.159476 0.159476 0.368711
v -0.148790 0.289768 0.289768
v -0.239909 0.078559 0.353190
v -0.303548 0.077040 0.303548
v -0.244195 0.000000 0.359429
v -0.308946 0.000000 0.308946
v -0.165771 0.081597 0.388753
v -0.168742 0.000000 0.395576
v -0.084635 0.084635 0.410156
v -0.086155 0.000000 0.417318
v 0.000000 0.086155 0.417318
v 0.000000 0.000000 0.424588
v -0.081597 0.165771 0.388753
v 0.000000 0.168742 0.395576
v -0.078559 0.239909 0.353190
v 0.000000 0.244195 0.359429
v -0.077040 0.303548 0.303548
v 0.000000 0.308946 0.308946
v -0.217086 -0.217086 0.308883
v -0.270020 -0.209961 0.270020
v -0.209961 -0.270020 0.270020
v -0.250772 -0.250772 0.250772
v -0.152470 -0.229917 0.335874
v -0.148790 -0.289768 0.289768
v -0.229917 -0.152470 0.335874
v -0.159476 -0.159476 0.368711
v -0.289768 -0.148790 0.289768
v -0.078559 -0.239909 0.353190
v -0.077040 -0.303548 0.303548
v 0.000000 -0.244195 0.359429
v 0.000000 -0.308946 0.308946
v -0.081597 -0.165771 0.388753
v 0.000000 -0.168742 0.395576
v -0.084635 -0.084635 0.410156
v 0.000000 -0.086155 0.417318
v -0.086155 0.000000 0.417318
v 0.000000 0.000000 0.424588
v -0.165771 -0.081597 0.388753
v -0.168742 0.000000 0.395576
v -0.239909 -0.078559 0.353190
v -0.244195 0.000000 0.359429
v -0.303548 -0.077040 0.303548
v -0.308946 0.000000 0.308946
v 0.217086 0.308883 0.217086
v 0.209961 0.270020 0.270020
v 0.270020 0.270020 0.209961
v 0.250772 0.250772 0.250772
v 0.229917 0.335874 0.152470
v 0.289768 0.289768 0.148790
v 0.152470 0.335874 0.229917
v 0.159476 0.368711 0.159476
v 0.148790 0.289768 0.289768
v 0.239909 0.353190 0.078559
v 0.303548 0.303548 0.077040
v 0.244195 0.359429 0.000000
v 0.308946 0.308946 0.000000
v 0.165771 0.388753 0.081597
v 0.168742 0.395576 0.000000
v 0.084635 0.410156 0.084635
v 0.086155 0.417318 0.000000
v 0.000000 0.417318 0.086155
v 0.000000 0.424588 0.000000
v 0.081597 0.388753 0.165771
v 0.000000 0.395576 0.168742
v 0.078559 0.353190 0.239909
v 0.000000 0.359429 0.244195
v 0.077040 0.303548 0.303548
v 0.000000 0.308946 0.308946
v 0.217086 0.308883 -0.217086
v 0.270020 0.270020 -0.209961
v 0.209961 0.270020 -0.270020
v 0.250772 0.250772 -0.250772
v 0.152470 0.335874 -0.229917
v 0.148790 0.289768 -0.289768
v 0.229917 0.335874 -0.152470
v 0.159476 0.368711 -0.159476
v 0.289768 0.289768 -0.148790
v 0.078559 0.353190 -0.239909
v 0.077040 0.303548 -0.303548
v 0.000000 0.359429 -0.244195
v 0.000000 0.308946 -0.308946
v 0.081597 0.388753 -0.165771
v 0.000000 0.395576 -0.168742
v 0.084635 0.410156 -0.084635
v 0.000000 0.417318 -0.086155
v 0.086155 0.417318 0.000000
v 0.000000 0.424588 0.000000
v 0.165771 0.388753 -0.081597
v 0.168742 0.395576 0.000000
v 0.239909 0.353190 -0.078559
v 0.244195 0.359429 0.000000
v 0.303548 0.303548 -0.077040
v 0.308946 0.308946 0.000000
v -0.217086 0.308883 -0.217086
v -0.209961 0.270020 -0.270020
v -0.270020 0.270020 -0.209961
v -0.250772 0.250772 -0.250772
v -0.229917 0.335874 -0.152470
v -0.289768 0.289768 -0.148790
v -0.152470 0.335874 -0.229917
v -0.159476 0.368711 -0.159476
v -0.148790 0.289768 -0.289768
v -0.239909 0.353190 -0.078559
v -0.303548 0.303548 -0.077040
v -0.244195 0.359429 0.000000
v -0.308946 0.308946 0.000000
v -0.165771 0.388753 -0.081597
v -0.168742 0.395576 0.000000
v -0.084635 0.410156 -0.084635
v -0.086155 0.417318 0.000000
v 0.000000 0.417318 -0.086155
v 0.000000 0.424588 0.000000
v -0.081597 0.388753 -0.165771
v 0.000000 0.395576 -0.168742
v -0.078559 0.353190 -0.239909
v 0.000000 0.359429 -0.244195
v -0.077040 0.303548 -0.303548
v 0.000000 0.308946 -0.308946
v -0.217086 0.308883 0.217086
v -0.270020 0.270020 0.209961
v -0.209961 0.270020 0.270020
v -0.250772 0.250772 0.250772
v -0.152470 0.335874 0.229917
v -0.148790 0.289768 0.289768
v -0.229917 0.335874 0.152470
v -0.159476 0.368711 0.159476
v -0.289768 0.289768 0.148790
v -0.078559 0.353190 0.239909
v -0.077040 0.303548 0.303548
v 0.000000 0.359429 0.244195
v 0.000000 0.308946 0.308946
v -0.081597 0.388753 0.165771
v 0.000000 0.395576 0.168742
v -0.084635 0.410156 0.084635
v 0.000000 0.417318 0.086155
v -0.086155 0.417318 0.000000
v 0.000000 0.424588 0.000000
v -0.165771 0.388753 0.081597
v -0.168742 0.395576 0.000000
v -0.239909 0.353190 0.078559
v -0.244195 0.359429 0.000000
v -0.303548 0.303548 0.077040
v -0.308946 0.308946 0.000000
v 0.217086 0.217086 -0.308883
v 0.209961 0.270020 -0.270020
v 0.270020 0.209961 -0.270020
v 0.250772 0.250772 -0.250772
v 0.229917 0.152470 -0.335874
v 0.289768 0.148790 -0.289768
v 0.152470 0.229917 -0.335874
v 0.159476 0.159476 -0.368711
v 0.148790 0.289768 -0.289768
v 0.239909 0.078559 -0.353190
v 0.303548 0.077040 -0.303548
v 0.244195 0.000000 -0.359429
v 0.308946 0.000000 -0.308946
v 0.165771 0.081597 -0.388753
v 0.168742 0.000000 -0.395576
v 0.084635 0.084635 -0.410156
v 0.086155 0.000000 -0.417318
v 0.000000 0.086155 -0.417318
v 0.000000 0.000000 -0.424588
v 0.081597 0.165771 -0.388753
v 0.000000 0.168742 -0.395576
v 0.078559 0.239909 -0.353190
v 0.000000 0.244195 -0.359429
v 0.077040 0.303548 -0.303548
v 0.000000 0.308946 -0.308946
v 0.217086 -0.217086 -0.308883
v 0.270020 -0.209961 -0.270020
v 0.209961 -0.270020 -0.270020
v 0.250772 -0.250772 -0.250772
v 0.152470 -0.229917 -0.335874
v 0.148790 -0.289768 -0.289768
v 0.229917 -0.152470 -0.335874
v 0.159476 -0.159476 -0.368711
v 0.289768 -0.148790 -0.289768
v 0.078559 -0.239909 -0.353190
v 0.077040 -0.303548 -0.303548
v 0.000000 -0.244195 -0.359429
v 0.000000 -0.308946 -0.308946
v 0.081597 -0.165771 -0.388753
v 0.000000 -0.168742 -0.395576
v 0.084635 -0.084635 -0.410156
v 0.000000 -0.086155 -0.417318
v 0.086155 0.000000 -0.417318
v 0.000000 0.000000 -0.424588
v 0.165771 -0.081597 -0.388753
v 0.168742 0.000000 -0.395576
v 0.239909 -0.078559 -0.353190
v 0.244195 0.000000 -0.359429
v 0.303548 -0.077040 -0.303548
v 0.308946 0.000000 -0.308946
v -0.217086 -0.217086 -0.308883
v -0.209961 -0.270020 -0.270020
v -0.270020 -0.209961 -0.270020
v -0.250772 -0.250772 -0.250772
v -0.229917 -0.152470 -0.335874
v -0.289768 -0.148790 -0.289768
v -0.152470 -0.229917 -0.335874
v -0.159476 -0.159476 -0.368711
v -0.148790 -0.289768 -0.289768
v -0.239909 -0.078559 -0.353190
v -0.303548 -0.077040 -0.303548
v -0.244195 0.000000 -0.359429
v -0.308946 0.000000 -0.308946
v -0.165771 -0.081597 -0.388753
v -0.168742 0.000000 -0.395576
v -0.084635 -0.084635 -0.410156
v -0.086155 0.000000 -0.417318
v 0.000000 -0.086155 -0.417318
v 0.000000 0.000000 -0.424588
v -0.081597 -0.165771 -0.388753
v 0.000000 -0.168742 -0.395576
v -0.078559 -0.239909 -0.353190
v 0.000000 -0.244195 -0.359429
v -0.077040 -0.303548 -0.303548
v 0.000000 -0.308946 -0.308946
v -0.217086 0.217086 -0.308883
v -0.270020 0.209961 -0.270020
v -0.209961 0.270020 -0.270020
v -0.250772 0.250772 -0.250772
v -0.152470 0.229917 -0.335874
v -0.148790 0.289768 -0.289768
v -0.229917 0.152470 -0.335874
v -0.159476 0.159476 -0.368711
v -0.289768 0.148790 -0.289768
v -0.078559 0.239909 -0.353190
v -0.077040 0.303548 -0.303548
v 0.000000 0.244195 -0.359429
v 0.000000 0.308946 -0.308946
v -0.081597 0.165771 -0.388753
v 0.000000 0.168742 -0.395576
v -0.084635 0.084635 -0.410156
v 0.000000 0.086155 -0.417318
v -0.086155 0.000000 -0.417318
v 0.000000 0.000000 -0.424588
v -0.165771 0.081597 -0.388753
v -0.168742 0.000000 -0.395576
v -0.239909 0.078559 -0.353190
v -0.244195 0.000000 -0.359429
v -0.303548 0.077040 -0.303548
v -0.308946 0.000000 -0.308946
v 0.217086 -0.308883 -0.217086
v 0.209961 -0.270020 -0.270020
v 0.270020 -0.270020 -0.209961
v 0.250772 -0.250772 -0.250772
v 0.229917 -0.335874 -0.152470
v 0.289768 -0.289768 -0.148790
v 0.152470 -0.335874 -0.229917
v 0.159476 -0.368711 -0.159476
v 0.148790 -0.289768 -0.289768
v 0.239909 -0.353190 -0.078559
v 0.303548 -0.303548 -0.077040
v 0.244195 -0.359429 0.000000
v 0.308946 -0.308946 0.000000
v 0.165771 -0.388753 -0.081597
v 0.168742 -0.395576 0.000000
v 0.084635 -0.410156 -0.084635
v 0.086155 -0.417318 0.000000
v 0.000000 -0.417318 -0.086155
v 0.000000 -0.424588 0.000000
v 0.081597 -0.388753 -0.165771
v 0.000000 -0.395576 -0.168742
v 0.078559 -0.353190 -0.239909
v 0.000000 -0.359429 -0.244195
v 0.077040 -0.303548 -0.303548
v 0.000000 -0.308946 -0.308946
v 0.217086 -0.308883 0.217086
v 0.270020 -0.270020 0.209961
v 0.209961 -0.270020 0.270020
v 0.250772 -0.250772 0.250772
v 0.152470 -0.335874 0.229917
v 0.148790 -0.289768 0.289768
v 0.229917 -0.335874 0.152470
v 0.159476 -0.368711 0.159476
v 0.289768 -0.289768 0.148790
v 0.078559 -0.353190 0.239909
v 0.077040 -0.303548 0.303548
v 0.000000 -0.359429 0.244195
v 0.000000 -0.308946 0.308946
v 0.081597 -0.388753 0.165771
v 0.000000 -0.395576 0.168742
v 0.084635 -0.410156 0.084635
v 0.000000 -0.417318 0.086155
v 0.086155 -0.417318 0.000000
v 0.000000 -0.424588 0.000000
v 0.165771 -0.388753 0.081597
v 0.168742 -0.395576 0.000000
v 0.239909 -0.353190 0.078559
v 0.244195 -0.359429 0.000000
v 0.303548 -0.303548 0.077040
v 0.308946 -0.308946 0.000000
v -0.217086 -0.308883 0.217086
v -0.209961 -0.270020 0.270020
v -0.270020 -0.270020 0.209961
v -0.250772 -0.250772 0.250772
v -0.229917 -0.335874 0.152470
v -0.289768 -0.289768 0.148790
v -0.152470 -0.335874 0.229917
v -0.159476 -0.368711 0.159476
v -0.148790 -0.289768 0.289768
v -0.239909 -0.353190 0.078559
v -0.303548 -0.303548 0.077040
v -0.244195 -0.359429 0.000000
v -0.308946 -0.308946 0.000000
v -0.165771 -0.388753 0.081597
v -0.168742 -0.395576 0.000000
v -0.084635 -0.410156 0.084635
v -0.086155 -0.417318 0.000000
v 0.000000 -0.417318 0.086155
v 0.000000 -0.424588 0.000000
v -0.081597 -0.388753 0.165771
v 0.000000 -0.395576 0.168742
v -0.078559 -0.353190 0.239909
v 0.000000 -0.359429 0.244195
v -0.077040 -0.303548 0.303548
v 0.000000 -0.308946 0.308946
v -0.217086 -0.308883 -0.217086
v -0.270020 -0.270020 -0.209961
v -0.209961 -0.270020 -0.270020
v -0.250772 -0.250772 -0.250772
v -0.152470 -0.335874 -0.229917
v -0.148790 -0.289768 -0.289768
v -0.229917 -0.335874 -0.152470
v -0.159476 -0.368711 -0.159476
v -0.289768 -0.289768 -0.148790
v -0.078559 -0.353190 -0.239909
v -0.077040 -0.303548 -0.303548
v 0.000000 -0.359429 -0.244195
v 0.000000 -0.308946 -0.308946
v -0.081597 -0.388753 -0.165771
v 0.000000 -0.395576 -0.168742
v -0.084635 -0.410156 -0.084635
v 0.000000 -0.417318 -0.086155
v -0.086155 -0.417318 0.000000
v 0.000000 -0.424588 0.000000
v -0.165771 -0.388753 -0.081597
v -0.168742 -0.395576 0.000000
v -0.239909 -0.353190 -0.078559
v -0.244195 -0.359429 0.000000
v -0.303548 -0.303548 -0.077040
v -0.308946 -0.308946 0.000000
v 0.308883 -0.217086 -0.217086
v 0.270020 -0.270020 -0.209961
v 0.270020 -0.209961 -0.270020
v 0.250772 -0.250772 -0.250772
v 0.335874 -0.152470 -0.229917
v 0.289768 -0.148790 -0.289768
v 0.335874 -0.229917 -0.152470
v 0.368711 -0.159476 -0.159476
v 0.289768 -0.289768 -0.148790
v 0.353190 -0.078559 -0.239909
v 0.303548 -0.077040 -0.303548
v 0.359429 0.000000 -0.244195
v 0.308946 0.000000 -0.308946
v 0.388753 -0.081597 -0.165771
v 0.395576 0.000000 -0.168742
v 0.410156 -0.084635 -0.084635
v 0.417318 0.000000 -0.086155
v 0.417318 -0.086155 0.000000
v 0.424588 0.000000 0.000000
v 0.388753 -0.165771 -0.081597
v 0.395576 -0.168742 0.000000
v 0.353190 -0.239909 -0.078559
v 0.359429 -0.244195 0.000000
v 0.303548 -0.303548 -0.077040
v 0.308946 -0.308946 0.000000
v 0.308883 0.217086 -0.217086
v 0.270020 0.209961 -0.270020
v 0.270020 0.270020 -0.209961
v 0.250772 0.250772 -0.250772
v 0.335874 0.229917 -0.152470
v 0.289768 0.289768 -0.148790
v 0.335874 0.152470 -0.229917
v 0.368711 0.159476 -0.159476
v 0.289768 0.148790 -0.289768
v 0.353190 0.239909 -0.078559
v 0.303548 0.303548 -0.077040
v 0.359429 0.244195 0.000000
v 0.308946 0.308946 0.000000
v 0.388753 0.165771 -0.081597
v 0.395576 0.168742 0.000000
v 0.410156 0.084635 -0.084635
v 0.417318 0.086155 0.000000
v 0.417318 0.000000 -0.086155
v 0.424588 0.000000 0.000000
v 0.388753 0.081597 -0.165771
v 0.395576 0.000000 -0.168742
v 0.353190 0.078559 -0.239909
v 0.359429 0.000000 -0.244195
v 0.303548 0.077040 -0.303548
v 0.308946 0.000000 -0.308946
v 0.308883 0.217086 0.217086
v 0.270020 0.270020 0.209961
v 0.270020 0.209961 0.270020
v 0.250772 0.250772 0.250772
v 0.335874 0.152470 0.229917
v 0.289768 0.148790 0.289768
v 0.335874 0.229917 0.152470
v 0.368711 0.159476 0.159476
v 0.289768 0.289768 0.148790
v 0.353190 0.078559 0.239909
v 0.303548 0.077040 0.303548
v 0.359429 0.000000 0.244195
v 0.308946 0.000000 0.308946
v 0.388753 0.081597 0.165771
v 0.395576 0.000000 0.168742
v 0.410156 0.084635 0.084635
v 0.417318 0.000000 0.086155
v 0.417318 0.086155 0.000000
v 0.424588 0.000000 0.000000
v 0.388753 0.165771 0.081597
v 0.395576 0.168742 0.000000
v 0.353190 0.239909 0.078559
v 0.359429 0.244195 0.000000
v 0.303548 0.303548 0.077040
v 0.308946 0.308946 0.000000
v 0.308883 -0.217086 0.217086
v 0.270020 -0.209961 0.270020
v 0.270020 -0.270020 0.209961
v 0.250772 -0.250772 0.250772
v 0.335874 -0.229917 0.152470
v 0.289768 -0.289768 0.148790
v 0.335874 -0.152470 0.229917
v 0.368711 -0.159476 0.159476
v 0.289768 -0.148790 0.289768
v 0.353190 -0.239909 0.078559
v 0.303548 -0.303548 0.077040
v 0.359429 -0.244195 0.000000
v 0.308946 -0.308946 0.000000
v 0.388753 -0.165771 0.081597
v 0.395576 -0.168742 0.000000
v 0.410156 -0.084635 0.084635
v 0.417318 -0.086155 0.000000
v 0.417318 0.000000 0.086155
v 0.424588 0.000000 0.000000
v 0.388753 -0.081597 0.165771
v 0.395576 0.000000 0.168742
v 0.353190 -0.078559 0.239909
v 0.359429 0.000000 0.244195
v 0.303548 -0.077040 0.303548
v 0.308946 0.000000 0.308946
v -0.308883 -0.217086 0.217086
v -0.270020 -0.270020 0.209961
v -0.270020 -0.209961 0.270020
v -0.250772 -0.250772 0.250772
v -0.335874 -0.152470 0.229917
v -0.289768 -0.148790 0.289768
v -0.335874 -0.229917 0.152470
v -0.368711 -0.159476 0.159476
v -0.289768 -0.289768 0.148790
v -0.353190 -0.078559 0.239909
v -0.303548 -0.077040 0.303548
v -0.359429 0.000000 0.244195
v -0.308946 0.000000 0.308946
v -0.388753 -0.081597 0.165771
v -0.395576 0.000000 0.168742
v -0.410156 -0.084635 0.084635
v -0.417318 0.000000 0.086155
v -0.417318 -0.086155 0.000000
v -0.424588 0.000000 0.000000
v -0.388753 -0.165771 0.081597
v -0.395576 -0.168742 0.000000
v -0.353190 -0.239909 0.078559
v -0.359429 -0.244195 0.000000
v -0.303548 -0.303548 0.077040
v -0.308946 -0.308946 0.000000
v -0.308883 0.217086 0.217086
v -0.270020 0.209961 0.270020
v -0.270020 0.270020 0.209961
v -0.250772 0.250772 0.250772
v -0.335874 0.229917 0.152470
v -0.289768 0.289768 0.148790
v -0.335874 0.152470 0.229917
v -0.368711 0.159476 0.159476
v -0.289768 0.148790 0.289768
v -0.353190 0.239909 0.078559
v -0.303548 0.303548 0.077040
v -0.359429 0.244195 0.000000
v -0.308946 0.308946 0.000000
v -0.388753 0.165771 0.081597
v -0.395576 0.168742 0.000000
v -0.410156 0.084635 0.084635
v -0.417318 0.086155 0.000000
v -0.417318 0.000000 0.086155
v -0.424588 0.000000 0.000000
v -0.388753 0.081597 0.165771
v -0.395576 0.000000 0.168742
v -0.353190 0.078559 0.239909
v -0.359429 0.000000 0.244195
v -0.303548 0.077040 0.303548
v -0.308946 0.000000 0.308946
v -0.308883 0.217086 -0.217086
v -0.270020 0.270020 -0.209961
v -0.270020 0.209961 -0.270020
v -0.250772 0.250772 -0.250772
v -0.335874 0.152470 -0.229917
v -0.289768 0.148790 -0.289768
v -0.335874 0.229917 -0.152470
v -0.368711 0.159476 -0.159476
v -0.289768 0.289768 -0.148790
v -0.353190 0.078559 -0.239909
v -0.303548 0.077040 -0.303548
v -0.359429 0.000000 -0.244195
v -0.308946 0.000000 -0.308946
v -0.388753 0.081597 -0.165771
v -0.395576 0.000000 -0.168742
v -0.410156 0.084635 -0.084635
v -0.417318 0.000000 -0.086155
v -0.417318 0.086155 0.000000
v -0.424588 0.000000 0.000000
v -0.388753 0.165771 -0.081597
v -0.395576 0.168742 0.000000
v -0.353190 0.239909 -0.078559
v -0.359429 0.244195 0.000000
v -0.303548 0.303548 -0.077040
v -0.308946 0.308946 0.000000
v -0.308883 -0.217086 -0.217086
v -0.270020 -0.209961 -0.270020
v -0.270020 -0.270020 -0.209961
v -0.250772 -0.250772 -0.250772
v -0.335874 -0.229917 -0.152470
v -0.289768 -0.289768 -0.148790
v -0.335874 -0.152470 -0.229917
v -0.368711 -0.159476 -0.159476
v -0.289768 -0.148790 -0.289768
v -0.353190 -0.239909 -0.078559
v -0.303548 -0.303548 -0.077040
v -0.359429 -0.244195 0.000000
v -0.308946 -0.308946 0.000000
v -0.388753 -0.165771 -0.081597
v -0.395576 -0.168742 0.000000
v -0.410156 -0.084635 -0.084635
v -0.417318 -0.086155 0.000000
v -0.417318 0.000000 -0.086155
v -0.424588 0.000000 0.000000
v -0.388753 -0.081597 -0.165771
v -0.395576 0.000000 -0.168742
v -0.353190 -0.078559 -0.239909
v -0.359429 0.000000 -0.244195
v -0.303548 -0.077040 -0.303548
v -0.308946 0.000000 -0.308946
vt 0.750000 0.250000
vt 0.750000 0.000000
vt 1.000000 0.250000
vt 1.000000 0.000000
vt 0.750000 0.500000
vt 1.000000 0.500000
vt 0.500000 0.250000
vt 0.500000 0.500000
vt 0.500000 0.000000
vt 0.750000 0.750000
vt 1.000000 0.750000
vt 0.750000 1.000000
vt 1.000000 1.000000
vt 0.500000 0.750000
vt 0.500000 1.000000
vt 0.250000 0.750000
vt 0.250000 1.000000
vt 0.000000 0.750000
vt 0.000000 1.000000
vt 0.250000 0.500000
vt 0.000000 0.500000
vt 0.250000 0.250000
vt 0.000000 0.250000
vt 0.250000 0.000000
vt 0.000000 0.000000
vt 0.750000 0.250000
vt 0.750000 0.000000
vt 1.000000 0.250000
vt 1.000000 0.000000
vt 0.750000 0.500000
vt 1.000000 0.500000
vt 0.500000 0.250000
vt 0.500000 0.500000
vt 0.500000 0.000000
vt 0.750000 0.750000
vt 1.000000 0.750000
vt 0.750000 1.000000
vt 1.000000 1.000000
vt 0.500000 0.750000
vt 0.500000 1.000000
vt 0.250000 0.750000
vt 0.250000 1.000000
vt 0.000000 0.750000
vt 0.000000 1.000000
vt 0.250000 0.500000
vt 0.000000 0.500000
vt 0.250000 0.250000
vt 0.000000 0.250000
vt 0.250000 0.000000
vt 0.000000 0.000000
vt 0.750000 0.250000
vt 0.750000 0.000000
vt 1.000000 0.250000
vt 1.000000 0.000000
vt 0.750000 0.500000
vt 1.000000 0.500000
vt 0.500000 0.250000
vt 0.500000 0.500000
vt 0.500000 0.000000
vt 0.750000 0.750000
vt 1.000000 0.750000
vt 0.750000 1.000000
vt 1.000000 1.000000
vt 0.500000 0.750000
vt 0.500000 1.000000
vt 0.250000 0.750000
vt 0.250000 1.000000
vt 0.000000 0.750000
vt 0.000000 1.000000
vt 0.250000 0.500000
vt 0.000000 0.500000
vt 0.250000 0.250000
vt 0.000000 0.250000
vt 0.250000 0.000000
vt 0.000000 0.000000
vt 0.750000 0.250000
vt 0.750000 0.000000
vt 1.000000 0.250000
vt 1.000000 0.000000
vt 0.750000 0.500000
vt 1.000000 0.500000
vt 0.500000 0.250000
vt 0.500000 0.500000
vt 0.500000 0.000000
vt 0.750000 0.750000
vt 1.000000 0.750000
vt 0.750000 1.000000
vt 1.000000 1.000000
vt 0.500000 0.750000
vt 0.500000 1.000000
vt 0.250000 0.750000
vt 0.250000 1.000000
vt 0.000000 0.750000
vt 0.000000 1.000000
vt 0.250000 0.500000
vt 0.000000 0.500000
vt 0.250000 0.250000
vt 0.000000 0.250000
vt 0.250000 0.000000
vt 0.000000 0.000000
vt 0.750000 0.250000
vt 0.750000 0.000000
vt 1.000000 0.250000
vt 1.000000 0.000000
vt 0.750000 0.500000
vt 1.000000 0.500000
vt 0.500000 0.250000
vt 0.500000 0.500000
vt 0.500000 0.000000
vt 0.750000 0.750000
vt 1.000000 0.750000
vt 0.750000 1.000000
vt 1.000000 1.000000
vt 0.500000 0.750000
vt 0.500000 1.000000
vt 0.250000 0.750000
vt 0.250000 1.000000
vt 0.000000 0.750000
vt 0.000000 1.000000
vt 0.250000 0.500000
vt 0.000000 0.500000
vt 0.250000 0.250000
vt 0.000000 0.250000
vt 0.250000 0.000000
vt 0.000000 0.000000
vt 0.750000 0.250000
vt 0.750000 0.000000
vt 1.000000 0.250000
vt 1.000000 0.000000
vt 0.750000 0.500000
vt 1.000000 0.500000
vt 0.500000 0.250000
vt 0.500000 0.500000
vt 0.500000 0.000000
vt 0.750000 0.750000
vt 1.000000 0.750000
vt 0.750000 1.000000
vt 1.000000 1.000000
vt 0.500000 0.750000
vt 0.500000 1.000000
vt 0.250000 0.750000
vt 0.250000 1.000000
vt 0.000000 0.750000
vt 0.000000 1.000000
vt 0.250000 0.500000
vt 0.000000 0.500000
vt 0.250000 0.250000
vt 0.000000 0.250000
vt 0.250000 0.000000
vt 0.000000 0.000000
vt 0.750000 0.250000
vt 0.750000 0.000000
vt 1.000000 0.250000
vt 1.000000 0.000000
vt 0.750000 0.500000
vt 1.000000 0.500000
vt 0.500000 0.250000
vt 0.500000 0.500000
vt 0.500000 0.000000
vt 0.750000 0.750000
vt 1.000000 0.750000
vt 0.750000 1.000000
vt 1.000000 1.000000
vt 0.500000 0.750000
vt 0.500000 1.000000
vt 0.250000 0.750000
vt 0.250000 1.000000
vt 0.000000 0.750000
vt 0.000000 1.000000
vt 0.250000 0.500000
vt 0.000000 0.500000
vt 0.250000 0.250000
vt 0.000000 0.250000
vt 0.250000 0.000000
vt 0.000000 0.000000
vt 0.750000 0.250000
vt 0.750000 0.000000
vt 1.000000 0.250000
vt 1.000000 0.000000
vt 0.750000 0.500000
vt 1.000000 0.500000
vt 0.500000 0.250000
vt 0.500000 0.500000
vt 0.500000 0.000000
vt 0.750000 0.750000
vt 1.000000 0.750000
vt 0.750000 1.000000
vt 1.000000 1.000000
vt 0.500000 0.750000
vt 0.500000 1.000000
vt 0.250000 0.750000
vt 0.250000 1.000000
vt 0.000000 0.750000
vt 0.000000 1.000000
vt 0.250000 0.500000
vt 0.000000 0.500000
vt 0.250000 0.250000
vt 0.000000 0.250000
vt 0.250000 0.000000
vt 0.000000 0.000000
vt 0.750000 0.250000
vt 0.750000 0.000000
vt 1.000000 0.250000
vt 1.000000 0.000000
vt 0.750000 0.500000
vt 1.000000 0.500000
vt 0.500000 0.250000
vt 0.500000 0.500000
vt 0.500000 0.000000
vt 0.750000 0.750000
vt 1.000000 0.750000
vt 0.750000 1.000000
vt 1.000000 1.000000
vt 0.500000 0.750000
vt 0.500000 1.000000
vt 0.250000 0.750000
vt 0.250000 1.000000
vt 0.000000 0.750000
vt 0.000000 1.000000
vt 0.250000 0.500000
vt 0.000000 0.500000
vt 0.250000 0.250000
vt 0.000000 0.250000
vt 0.250000 0.000000
vt 0.000000 0.000000
vt 0.750000 0.250000
vt 0.750000 0.000000
vt 1.000000 0.250000
vt 1.000000 0.000000
vt 0.750000 0.500000
vt 1.000000 0.500000
vt 0.500000 0.250000
vt 0.500000 0.500000
vt 0.500000 0.000000
vt 0.750000 0.750000
vt 1.000000 0.750000
vt 0.750000 1.000000
vt 1.000000 1.000000
vt 0.500000 0.750000
vt 0.500000 1.000000
vt 0.250000 0.750000
vt 0.250000 1.000000
vt 0.000000 0.750000
vt 0.000000 1.000000
vt 0.250000 0.500000
vt 0.000000 0.500000
vt 0.250000 0.250000
vt 0.000000 0.250000
vt 0.250000 0.000000
vt 0.000000 0.000000
vt 0.750000 0.250000
vt 0.750000 0.000000
vt 1.000000 0.250000
vt 1.000000 0.000000
vt 0.750000 0.500000
vt 1.000000 0.500000
vt 0.500000 0.250000
vt 0.500000 0.500000
vt 0.500000 0.000000
vt 0.750000 0.750000
vt 1.000000 0.750000
vt 0.750000 1.000000
vt 1.000000 1.000000
vt 0.500000 0.750000
vt 0.500000 1.000000
vt 0.250000 0.750000
vt 0.250000 1.000000
vt 0.000000 0.750000
vt 0.000000 1.000000
vt 0.250000 0.500000
vt 0.000000 0.500000
vt 0.250000 0.250000
vt 0.000000 0.250000
vt 0.250000 0.000000
vt 0.000000 0.000000
vt 0.750000 0.250000
vt 0.750000 0.000000
vt 1.000000 0.250000
vt 1.000000 0.000000
vt 0.750000 0.500000
vt 1.000000 0.500000
vt 0.500000 0.250000
vt 0.500000 0.500000
vt 0.500000 0.000000
vt 0.750000 0.750000
vt 1.000000 0.750000
vt 0.750000 1.000000
vt 1.000000 1.000000
vt 0.500000 0.750000
vt 0.500000 1.000000
vt 0.250000 0.750000
vt 0.250000 1.000000
vt 0.000000 0.750000
vt 0.000000 1.000000
vt 0.250000 0.500000
vt 0.000000 0.500000
vt 0.250000 0.250000
vt 0.000000 0.250000
vt 0.250000 0.000000
vt 0.000000 0.000000
vt 0.750000 0.250000
vt 0.750000 0.000000
vt 1.000000 0.250000
vt 1.000000 0.000000
vt 0.750000 0.500000
vt 1.000000 0.500000
vt 0.500000 0.250000
vt 0.500000 0.500000
vt 0.500000 0.000000
vt 0.750000 0.750000
vt 1.000000 0.750000
vt 0.750000 1.000000
vt 1.000000 1.000000
vt 0.500000 0.750000
vt 0.500000 1.000000
vt 0.250000 0.750000
vt 0.250000 1.000000
vt 0.000000 0.750000
vt 0.000000 1.000000
vt 0.250000 0.500000
vt 0.000000 0.500000
vt 0.250000 0.250000
vt 0.000000 0.250000
vt 0.250000 0.000000
vt 0.000000 0.000000
vt 0.750000 0.250000
vt 0.750000 0.000000
vt 1.000000 0.250000
vt 1.000000 0.000000
vt 0.750000 0.500000
vt 1.000000 0.500000
vt 0.500000 0.250000
vt 0.500000 0.500000
vt 0.500000 0.000000
vt 0.750000 0.750000
vt 1.000000 0.750000
vt 0.750000 1.000000
vt 1.000000 1.000000
vt 0.500000 0.750000
vt 0.500000 1.000000
vt 0.250000 0.750000
vt 0.250000 1.000000
vt 0.000000 0.750000
vt 0.000000 1.000000
vt 0.250000 0.500000
vt 0.000000 0.500000
vt 0.250000 0.250000
vt 0.000000 0.250000
vt 0.250000 0.000000
vt 0.000000 0.000000
vt 0.750000 0.250000
vt 0.750000 0.000000
vt 1.000000 0.250000
vt 1.000000 0.000000
vt 0.750000 0.500000
vt 1.000000 0.500000
vt 0.500000 0.250000
vt 0.500000 0.500000
vt 0.500000 0.000000
vt 0.750000 0.750000
vt 1.000000 0.750000
vt 0.750000 1.000000
vt 1.000000 1.000000
vt 0.500000 0.750000
vt 0.500000 1.000000
vt 0.250000 0.750000
vt 0.250000 1.000000
vt 0.000000 0.750000
vt 0.000000 1.000000
vt 0.250000 0.500000
vt 0.000000 0.500000
vt 0.250000 0.250000
vt 0.000000 0.250000
vt 0.250000 0.000000
vt 0.000000 0.000000
vt 0.750000 0.250000
vt 0.750000 0.000000
vt 1.000000 0.250000
vt 1.000000 0.000000
vt 0.750000 0.500000
vt 1.000000 0.500000
vt 0.500000 0.250000
vt 0.500000 0.500000
vt 0.500000 0.000000
vt 0.750000 0.750000
vt 1.000000 0.750000
vt 0.750000 1.000000
vt 1.000000 1.000000
vt 0.500000 0.750000
vt 0.500000 1.000000
vt 0.250000 0.750000
vt 0.250000 1.000000
vt 0.000000 0.750000
vt 0.000000 1.000000
vt 0.250000 0.500000
vt 0.000000 0.500000
vt 0.250000 0.250000
vt 0.000000 0.250000
vt 0.250000 0.000000
vt 0.000000 0.000000
vt 0.750000 0.250000
vt 0.750000 0.000000
vt 1.000000 0.250000
vt 1.000000 0.000000
vt 0.750000 0.500000
vt 1.000000 0.500000
vt 0.500000 0.250000
vt 0.500000 0.500000
vt 0.500000 0.000000
vt 0.750000 0.750000
vt 1.000000 0.750000
vt 0.750000 1.000000
vt 1.000000 1.000000
vt 0.500000 0.750000
vt 0.500000 1.000000
vt 0.250000 0.750000
vt 0.250000 1.000000
vt 0.000000 0.750000
vt 0.000000 1.000000
vt 0.250000 0.500000
vt 0.000000 0.500000
vt 0.250000 0.250000
vt 0.000000 0.250000
vt 0.250000 0.000000
vt 0.000000 0.000000
vt 0.750000 0.250000
vt 0.750000 0.000000
vt 1.000000 0.250000
vt 1.000000 0.000000
vt 0.750000 0.500000
vt 1.000000 0.500000
vt 0.500000 0.250000
vt 0.500000 0.500000
vt 0.500000 0.000000
vt 0.750000 0.750000
vt 1.000000 0.750000
vt 0.750000 1.000000
vt 1.000000 1.000000
vt 0.500000 0.750000
vt 0.500000 1.000000
vt 0.250000 0.750000
vt 0.250000 1.000000
vt 0.000000 0.750000
vt 0.000000 1.000000
vt 0.250000 0.500000
vt 0.000000 0.500000
vt 0.250000 0.250000
vt 0.000000 0.250000
vt 0.250000 0.000000
vt 0.000000 0.000000
vt 0.750000 0.250000
vt 0.750000 0.000000
vt 1.000000 0.250000
vt 1.000000 0.000000
vt 0.750000 0.500000
vt 1.000000 0.500000
vt 0.500000 0.250000
vt 0.500000 0.500000
vt 0.500000 0.000000
vt 0.750000 0.750000
vt 1.000000 0.750000
vt 0.750000 1.000000
vt 1.000000 1.000000
vt 0.500000 0.750000
vt 0.500000 1.000000
vt 0.250000 0.750000
vt 0.250000 1.000000
vt 0.000000 0.750000
vt 0.000000 1.000000
vt 0.250000 0.500000
vt 0.000000 0.500000
vt 0.250000 0.250000
vt 0.000000 0.250000
vt 0.250000 0.000000
vt 0.000000 0.000000
vt 0.750000 0.250000
vt 0.750000 0.000000
vt 1.000000 0.250000
vt 1.000000 0.000000
vt 0.750000 0.500000
vt 1.000000 0.500000
vt 0.500000 0.250000
vt 0.500000 0.500000
vt 0.500000 0.000000
vt 0.750000 0.750000
vt 1.000000 0.750000
vt 0.750000 1.000000
vt 1.000000 1.000000
vt 0.500000 0.750000
vt 0.500000 1.000000
vt 0.250000 0.750000
vt 0.250000 1.000000
vt 0.000000 0.750000
vt 0.000000 1.000000
vt 0.250000 0.500000
vt 0.000000 0.500000
vt 0.250000 0.250000
vt 0.000000 0.250000
vt 0.250000 0.000000
vt 0.000000 0.000000
vt 0.750000 0.250000
vt 0.750000 0.000000
vt 1.000000 0.250000
vt 1.000000 0.000000
vt 0.750000 0.500000
vt 1.000000 0.500000
vt 0.500000 0.250000
vt 0.500000 0.500000
vt 0.500000 0.000000
vt 0.750000 0.750000
vt 1.000000 0.750000
vt 0.750000 1.000000
vt 1.000000 1.000000
vt 0.500000 0.750000
vt 0.500000 1.000000
vt 0.250000 0.750000
vt 0.250000 1.000000
vt 0.000000 0.750000
vt 0.000000 1.000000
vt 0.250000 0.500000
vt 0.000000 0.500000
vt 0.250000 0.250000
vt 0.000000 0.250000
vt 0.250000 0.000000
vt 0.000000 0.000000
vt 0.750000 0.250000
vt 0.750000 0.000000
vt 1.000000 0.250000
vt 1.000000 0.000000
vt 0.750000 0.500000
vt 1.000000 0.500000
vt 0.500000 0.250000
vt 0.500000 0.500000
vt 0.500000 0.000000
vt 0.750000 0.750000
vt 1.000000 0.750000
vt 0.750000 1.000000
vt 1.000000 1.000000
vt 0.500000 0.750000
vt 0.500000 1.000000
vt 0.250000 0.750000
vt 0.250000 1.000000
vt 0.000000 0.750000
vt 0.000000 1.000000
vt 0.250000 0.500000
vt 0.000000 0.500000
vt 0.250000 0.250000
vt 0.000000 0.250000
vt 0.250000 0.000000
vt 0.000000 0.000000
vt 0.750000 0.250000
vt 0.750000 0.000000
vt 1.000000 0.250000
vt 1.000000 0.000000
vt 0.750000 0.500000
vt 1.000000 0.500000
vt 0.500000 0.250000
vt 0.500000 0.500000
vt 0.500000 0.000000
vt 0.750000 0.750000
vt 1.000000 0.750000
vt 0.750000 1.000000
vt 1.000000 1.000000
vt 0.500000 0.750000
vt 0.500000 1.000000
vt 0.250000 0.750000
vt 0.250000 1.000000
vt 0.000000 0.750000
vt 0.000000 1.000000
vt 0.250000 0.500000
vt 0.000000 0.500000
vt 0.250000 0.250000
vt 0.000000 0.250000
vt 0.250000 0.000000
vt 0.000000 0.000000
vt 0.750000 0.250000
vt 0.750000 0.000000
vt 1.000000 0.250000
vt 1.000000 0.000000
vt 0.750000 0.500000
vt 1.000000 0.500000
vt 0.500000 0.250000
vt 0.500000 0.500000
vt 0.500000 0.000000
vt 0.750000 0.750000
vt 1.000000 0.750000
vt 0.750000 1.000000
vt 1.000000 1.000000
vt 0.500000 0.750000
vt 0.500000 1.000000
vt 0.250000 0.750000
vt 0.250000 1.000000
vt 0.000000 0.750000
vt 0.000000 1.000000
vt 0.250000 0.500000
vt 0.000000 0.500000
vt 0.250000 0.250000
vt 0.000000 0.250000
vt 0.250000 0.000000
vt 0.000000 0.000000
f 1/1 3/3 2/2
f 3/3 4/4 2/2
f 1/1 5/5 3/3
f 5/5 6/6 3/3
f 1/1 7/7 5/5
f 7/7 8/8 5/5
f 1/1 2/2 7/7
f 2/2 9/9 7/7
f 10/10 12/12 11/11
f 12/12 13/13 11/11
f 10/10 14/14 12/12
f 14/14 15/15 12/12
f 10/10 5/5 14/14
f 5/5 8/8 14/14
f 10/10 11/11 5/5
f 11/11 6/6 5/5
f 16/16 18/18 17/17
f 18/18 19/19 17/17
f 16/16 20/20 18/18
f 20/20 21/21 18/18
f 16/16 14/14 20/20
f 14/14 8/8 20/20
f 16/16 17/17 14/14
f 17/17 15/15 14/14
f 22/22 24/24 23/23
f 24/24 25/25 23/23
f 22/22 7/7 24/24
f 7/7 9/9 24/24
f 22/22 20/20 7/7
f 20/20 8/8 7/7
f 22/22 23/23 20/20
f 23/23 21/21 20/20
f 26/26 28/28 27/27
f 28/28 29/29 27/27
f 26/26 30/30 28/28
f 30/30 31/31 28/28
f 26/26 32/32 30/30
f 32/32 33/33 30/30
f 26/26 27/27 32/32
f 27/27 34/34 32/32
f 35/35 37/37 36/36
f 37/37 38/38 36/36
f 35/35 39/39 37/37
f 39/39 40/40 37/37
f 35/35 30/30 39/39
f 30/30 33/33 39/39
f 35/35 36/36 30/30
f 36/36 31/31 30/30
f 41/41 43/43 42/42
f 43/43 44/44 42/42
f 41/41 45/45 43/43
f 45/45 46/46 43/43
f 41/41 39/39 45/45
f 39/39 33/33 45/45
f 41/41 42/42 39/39
f 42/42 40/40 39/39
f 47/47 49/49 48/48
f 49/49 50/50 48/48
f 47/47 32/32 49/49
f 32/32 34/34 49/49
f 47/47 45/45 32/32
f 45/45 33/33 32/32
f 47/47 48/48 45/45
f 48/48 46/46 45/45
f 51/51 53/53 52/52
f 53/53 54/54 52/52
f 51/51 55/55 53/53
f 55/55 56/56 53/53
f 51/51 57/57 55/55
f 57/57 58/58 55/55
f 51/51 52/52 57/57
f 52/52 59/59 57/57
f 60/60 62/62 61/61
f 62/62 63/63 61/61
f 60/60 64/64 62/62
f 64/64 65/65 62/62
f 60/60 55/55 64/64
f 55/55 58/58 64/64
f 60/60 61/61 55/55
f 61/61 56/56 55/55
f 66/66 68/68 67/67
f 68/68 69/69 67/67
f 66/66 70/70 68/68
f 70/70 71/71 68/68
f 66/66 64/64 70/70
f 64/64 58/58 70/70
f 66/66 67/67 64/64
f 67/67 65/65 64/64
f 72/72 74/74 73/73
f 74/74 75/75 73/73
f 72/72 57/57 74/74
f 57/57 59/59 74/74
f 72/72 70/70 57/57
f 70/70 58/58 57/57
f 72/72 73/73 70/70
f 73/73 71/71 70/70
f 76/76 78/78 77/77
f 78/78 79/79 77/77
f 76/76 80/80 78/78
f 80/80 81/81 78/78
f 76/76 82/82 80/80
f 82/82 83/83 80/80
f 76/76 77/77 82/82
f 77/77 84/84 82/82
f 85/85 87/87 86/86
f 87/87 88/88 86/86
f 85/85 89/89 87/87
f 89/89 90/90 87/87
f 85/85 80/80 89/89
f 80/80 83/83 89/89
f 85/85 86/86 80/80
f 86/86 81/81 80/80
f 91/91 93/93 92/92
f 93/93 94/94 92/92
f 91/91 95/95 93/93
f 95/95 96/96 93/93
f 91/91 89/89 95/95
f 89/89 83/83 95/95
f 91/91 92/92 89/89
f 92/92 90/90 89/89
f 97/97 99/99 98/98
f 99/99 100/100 98/98
f 97/97 82/82 99/99
f 82/82 84/84 99/99
f 97/97 95/95 82/82
f 95/95 83/83 82/82
f 97/97 98/98 95/95
f 98/98 96/96 95/95
f 101/101 103/103 102/102
f 103/103 104/104 102/102
f 101/101 105/105 103/103
f 105/105 106/106 103/103
f 101/101 107/107 105/105
f 107/107 108/108 105/105
f 101/101 102/102 107/107
f 102/102 109/109 107/107
f 110/110 112/112 111/111
f 112/112 113/113 111/111
f 110/110 114/114 112/112
f 114/114 115/115 112/112
f 110/110 105/105 114/114
f 105/105 108/108 114/114
f 110/110 111/111 105/105
f 111/111 106/106 105/105
f 116/116 118/118 117/117
f 118/118 119/119 117/117
f 116/116 120/120 118/118
f 120/120 121/121 118/118
f 116/116 114/114 120/120
f 114/114 108/108 120/120
f 116/116 117/117 114/114
f 117/117 115/115 114/114
f 122/122 124/124 123/123
f 124/124 125/125 123/123
f 122/122 107/107 124/124
f 107/107 109/109 124/124
f 122/122 120/120 107/107
f 120/120 108/108 107/107
f 122/122 123/123 120/120
f 123/123 121/121 120/120
f 126/126 128/128 127/127
f 128/128 129/129 127/127
f 126/126 130/130 128/128
f 130/130 131/131 128/128
f 126/126 132/132 130/130
f 132/132 133/133 130/130
f 126/126 127/127 132/132
f 127/127 134/134 132/132
f 135/135 137/137 136/136
f 137/137 138/138 136/136
f 135/135 139/139 137/137
f 139/139 140/140 137/137
f 135/135 130/130 139/139
f 130/130 133/133 139/139
f 135/135 136/136 130/130
f 136/136 131/131 130/130
f 141/141 143/143 142/142
f 143/143 144/144 142/142
f 141/141 145/145 143/143
f 145/145 146/146 143/143
f 141/141 139/139 145/145
f 139/139 133/133 145/145
f 141/141 142/142 139/139
f 142/142 140/140 139/139
f 147/147 149/149 148/148
f 149/149 150/150 148/148
f 147/147 132/132 149/149
f 132/132 134/134 149/149
f 147/147 145/145 132/132
f 145/145 133/133 132/132
f 147/147 148/148 145/145
f 148/148 146/146 145/145
f 151/151 153/153 152/152
f 153/153 154/154 152/152
f 151/151 155/155 153/153
f 155/155 156/156 153/153
f 151/151 157/157 155/155
f 157/157 158/158 155/155
f 151/151 152/152 157/157
f 152/152 159/159 157/157
f 160/160 162/162 161/161
f 162/162 163/163 161/161
f 160/160 164/164 162/162
f 164/164 165/165 162/162
f 160/160 155/155 164/164
f 155/155 158/158 164/164
f 160/160 161/161 155/155
f 161/161 156/156 155/155
f 166/166 168/168 167/167
f 168/168 169/169 167/167
f 166/166 170/170 168/168
f 170/170 171/171 168/168
f 166/166 164/164 170/170
f 164/164 158/158 170/170
f 166/166 167/167 164/164
f 167/167 165/165 164/164
f 172/172 174/174 173/173
f 174/174 175/175 173/173
f 172/172 157/157 174/174
f 157/157 159/159 174/174
f 172/172 170/170 157/157
f 170/170 158/158 157/157
f 172/172 173/173 170/170
f 173/173 171/171 170/170
f 176/176 178/178 177/177
f 178/178 179/179 177/177
f 176/176 180/180 178/178
f 180/180 181/181 178/178
f 176/176 182/182 180/180
f 182/182 183/183 180/180
f 176/176 177/177 182/182
f 177/177 184/184 182/182
f 185/185 187/187 186/186
f 187/187 188/188 186/186
f 185/185 189/189 187/187
f 189/189 190/190 187/187
f 185/185 180/180 189/189
f 180/180 183/183 189/189
f 185/185 186/186 180/180
f 186/186 181/181 180/180
f 191/191 193/193 192/192
f 193/193 194/194 192/192
f 191/191 195/195 193/193
f 195/195 196/196 193/193
f 191/191 189/189 195/195
f 189/189 183/183 195/195
f 191/191 192/192 189/189
f 192/192 190/190 189/189
f 197/197 199/199 198/198
f 199/199 200/200 198/198
f 197/197 182/182 199/199
f 182/182 184/184 199/199
f 197/197 195/195 182/182
f 195/195 183/183 182/182
f 197/197 198/198 195/195
f 198/198 196/196 195/195
f 201/201 203/203 202/202
f 203/203 204/204 202/202
f 201/201 205/205 203/203
f 205/205 206/206 203/203
f 201/201 207/207 205/205
f 207/207 208/208 205/205
f 201/201 202/202 207/207
f 202/202 209/209 207/207
f 210/210 212/212 211/211
f 212/212 213/213 211/211
f 210/210 214/214 212/212
f 214/214 215/215 212/212
f 210/210 205/205 214/214
f 205/205 208/208 214/214
f 210/210 211/211 205/205
f 211/211 206/206 205/205
f 216/216 218/218 217/217
f 218/218 219/219 217/217
f 216/216 220/220 218/218
f 220/220 221/221 218/218
f 216/216 214/214 220/220
f 214/214 208/208 220/220
f 216/216 217/217 214/214
f 217/217 215/215 214/214
f 222/222 224/224 223/223
f 224/224 225/225 223/223
f 222/222 207/207 224/224
f 207/207 209/209 224/224
f 222/222 220/220 207/207
f 220/220 208/208 207/207
f 222/222 223/223 220/220
f 223/223 221/221 220/220
f 226/226 228/228 227/227
f 228/228 229/229 227/227
f 226/226 230/230 228/228
f 230/230 231/231 228/228
f 226/226 232/232 230/230
f 232/232 233/233 230/230
f 226/226 227/227 232/232
f 227/227 234/234 232/232
f 235/235 237/237 236/236
f 237/237 238/238 236/236
f 235/235 239/239 237/237
f 239/239 240/240 237/237
f 235/235 230/230 239/239
f 230/230 233/233 239/239
f 235/235 236/236 230/230
f 236/236 231/231 230/230
f 241/241 243/243 242/242
f 243/243 244/244 242/242
f 241/241 245/245 243/243
f 245/245 246/246 243/243
f 241/241 239/239 245/245
f 239/239 233/233 245/245
f 241/241 242/242 239/239
f 242/242 240/240 239/239
f 247/247 249/249 248/248
f 249/249 250/250 248/248
f 247/247 232/232 249/249
f 232/232 234/234 249/249
f 247/247 245/245 232/232
f 245/245 233/233 232/232
f 247/247 248/248 245/245
f 248/248 246/246 245/245
f 251/251 253/253 252/252
f 253/253 254/254 252/252
f 251/251 255/255 253/253
f 255/255 256/256 253/253
f 251/251 257/257 255/255
f 257/257 258/258 255/255
f 251/251 252/252 257/257
f 252/252 259/259 257/257
f 260/260 262/262 261/261
f 262/262 263/263 261/261
f 260/260 264/264 262/262
f 264/264 265/265 262/262
f 260/260 255/255 264/264
f 255/255 258/258 264/264
f 260/260 261/261 255/255
f 261/261 256/256 255/255
f 266/266 268/268 267/267
f 268/268 269/269 267/267
f 266/266 270/270 268/268
f 270/270 271/271 268/268
f 266/266 264/264 270/270
f 264/264 258/258 270/270
f 266/266 267/267 264/264
f 267/267 265/265 264/264
f 272/272 274/274 273/273
f 274/274 275/275 273/273
f 272/272 257/257 274/274
f 257/257 259/259 274/274
f 272/272 270/270 257/257
f 270/270 258/258 257/257
f 272/272 273/273 270/270
f 273/273 271/271 270/270
f 276/276 278/278 277/277
f 278/278 279/279 277/277
f 276/276 280/280 278/278
f 280/280 281/281 278/278
f 276/276 282/282 280/280
f 282/282 283/283 280/280
f 276/276 277/277 282/282
f 277/277 284/284 282/282
f 285/285 287/287 286/286
f 287/287 288/288 286/286
f 285/285 289/289 287/287
f 289/289 290/290 287/287
f 285/285 280/280 289/289
f 280/280 283/283 289/289
f 285/285 286/286 280/280
f 286/286 281/281 280/280
f 291/291 293/293 292/292
f 293/293 294/294 292/292
f 291/291 295/295 293/293
f 295/295 296/296 293/293
f 291/291 289/289 295/295
f 289/289 283/283 295/295
f 291/291 292/292 289/289
f 292/292 290/290 289/289
f 297/297 299/299 298/298
f 299/299 300/300 298/298
f 297/297 282/282 299/299
f 282/282 284/284 299/299
f 297/297 295/295 282/282
f 295/295 283/283 282/282
f 297/297 298/298 295/295
f 298/298 296/296 295/295
f 301/301 303/303 302/302
f 303/303 304/304 302/302
f 301/301 305/305 303/303
f 305/305 306/306 303/303
f 301/301 307/307 305/305
f 307/307 308/308 305/305
f 301/301 302/302 307/307
f 302/302 309/309 307/307
f 310/310 312/312 311/311
f 312/312 313/313 311/311
f 310/310 314/314 312/312
f 314/314 315/315 312/312
f 310/310 305/305 314/314
f 305/305 308/308 314/314
f 310/310 311/311 305/305
f 311/311 306/306 305/305
f 316/316 318/318 317/317
f 318/318 319/319 317/317
f 316/316 320/320 318/318
f 320/320 321/321 318/318
f 316/316 314/314 320/320
f 314/314 308/308 320/320
f 316/316 317/317 314/314
f 317/317 315/315 314/314
f 322/322 324/324 323/323
f 324/324 325/325 323/323
f 322/322 307/307 324/324
f 307/307 309/309 324/324
f 322/322 320/320 307/307
f 320/320 308/308 307/307
f 322/322 323/323 320/320
f 323/323 321/321 320/320
f 326/326 328/328 327/327
f 328/328 329/329 327/327
f 326/326 330/330 328/328
f 330/330 331/331 328/328
f 326/326 332/332 330/330
f 332/332 333/333 330/330
f 326/326 327/327 332/332
f 327/327 334/334 332/332
f 335/335 337/337 336/336
f 337/337 338/338 336/336
f 335/335 339/339 337/337
f 339/339 340/340 337/337
f 335/335 330/330 339/339
f 330/330 333/333 339/339
f 335/335 336/336 330/330
f 336/336 331/331 330/330
f 341/341 343/343 342/342
f 343/343 344/344 342/342
f 341/341 345/345 343/343
f 345/345 346/346 343/343
f 341/341 339/339 345/345
f 339/339 333/333 345/345
f 341/341 342/342 339/339
f 342/342 340/340 339/339
f 347/347 349/349 348/348
f 349/349 350/350 348/348
f 347/347 332/332 349/349
f 332/332 334/334 349/349
f 347/347 345/345 332/332
f 345/345 333/333 332/332
f 347/347 348/348 345/345
f 348/348 346/346 345/345
f 351/351 353/353 352/352
f 353/353 354/354 352/352
f 351/351 355/355 353/353
f 355/355 356/356 353/353
f 351/351 357/357 355/355
f 357/357 358/358 355/355
f 351/351 352/352 357/357
f 352/352 359/359 357/357
f 360/360 362/362 361/361
f 362/362 363/363 361/361
f 360/360 364/364 362/362
f 364/364 365/365 362/362
f 360/360 355/355 364/364
f 355/355 358/358 364/364
f 360/360 361/361 355/355
f 361/361 356/356 355/355
f 366/366 368/368 367/367
f 368/368 369/369 367/367
f 366/366 370/370 368/368
f 370/370 371/371 368/368
f 366/366 364/364 370/370
f 364/364 358/358 370/370
f 366/366 367/367 364/364
f 367/367 365/365 364/364
f 372/372 374/374 373/373
f 374/374 375/375 373/373
f 372/372 357/357 374/374
f 357/357 359/359 374/374
f 372/372 370/370 357/357
f 370/370 358/358 357/357
f 372/372 373/373 370/370
f 373/373 371/371 370/370
f 376/376 378/378 377/377
f 378/378 379/379 377/377
f 376/376 380/380 378/378
f 380/380 381/381 378/378
f 376/376 382/382 380/380
f 382/382 383/383 380/380
f 376/376 377/377 382/382
f 377/377 384/384 382/382
f 385/385 387/387 386/386
f 387/387 388/388 386/386
f 385/385 389/389 387/387
f 389/389 390/390 387/387
f 385/385 380/380 389/389
f 380/380 383/383 389/389
f 385/385 386/386 380/380
f 386/386 381/381 380/380
f 391/391 393/393 392/392
f 393/393 394/394 392/392
f 391/391 395/395 393/393
f 395/395 396/396 393/393
f 391/391 389/389 395/395
f 389/389 383/383 395/395
f 391/391 392/392 389/389
f 392/392 390/390 389/389
f 397/397 399/399 398/398
f 399/399 400/400 398/398
f 397/397 382/382 399/399
f 382/382 384/384 399/399
f 397/397 395/395 382/382
f 395/395 383/383 382/382
f 397/397 398/398 395/395
f 398/398 396/396 395/395
f 401/401 403/403 402/402
f 403/403 404/404 402/402
f 401/401 405/405 403/403
f 405/405 406/406 403/403
f 401/401 407/407 405/405
f 407/407 408/408 405/405
f 401/401 402/402 407/407
f 402/402 409/409 407/407
f 410/410 412/412 411/411
f 412/412 413/413 411/411
f 410/410 414/414 412/412
f 414/414 415/415 412/412
f 410/410 405/405 414/414
f 405/405 408/408 414/414
f 410/410 411/411 405/405
f 411/411 406/406 405/405
f 416/416 418/418 417/417
f 418/418 419/419 417/417
f 416/416 420/420 418/418
f 420/420 421/421 418/418
f 416/416 414/414 420/420
f 414/414 408/408 420/420
f 416/416 417/417 414/414
f 417/417 415/415 414/414
f 422/422 424/424 423/423
f 424/424 425/425 423/423
f 422/422 407/407 424/424
f 407/407 409/409 424/424
f 422/422 420/420 407/407
f 420/420 408/408 407/407
f 422/422 423/423 420/420
f 423/423 421/421 420/420
f 426/426 428/428 427/427
f 428/428 429/429 427/427
f 426/426 430/430 428/428
f 430/430 431/431 428/428
f 426/426 432/432 430/430
f 432/432 433/433 430/430
f 426/426 427/427 432/432
f 427/427 434/434 432/432
f 435/435 437/437 436/436
f 437/437 438/438 436/436
f 435/435 439/439 437/437
f 439/439 440/440 437/437
f 435/435 430/430 439/439
f 430/430 433/433 439/439
f 435/435 436/436 430/430
f 436/436 431/431 430/430
f 441/441 443/443 442/442
f 443/443 444/444 442/442
f 441/441 445/445 443/443
f 445/445 446/446 443/443
f 441/441 439/439 445/445
f 439/439 433/433 445/445
f 441/441 442/442 439/439
f 442/442 440/440 439/439
f 447/447 449/449 448/448
f 449/449 450/450 448/448
f 447/447 432/432 449/449
f 432/432 434/434 449/449
f 447/447 445/445 432/432
f 445/445 433/433 432/432
f 447/447 448/448 445/445
f 448/448 446/446 445/445
f 451/451 453/453 452/452
f 453/453 454/454 452/452
f 451/451 455/455 453/453
f 455/455 456/456 453/453
f 451/451 457/457 455/455
f 457/457 458/458 455/455
f 451/451 452/452 457/457
f 452/452 459/459 457/457
f 460/460 462/462 461/461
f 462/462 463/463 461/461
f 460/460 464/464 462/462
f 464/464 465/465 462/462
f 460/460 455/455 464/464
f 455/455 458/458 464/464
f 460/460 461/461 455/455
f 461/461 456/456 455/455
f 466/466 468/468 467/467
f 468/468 469/469 467/467
f 466/466 470/470 468/468
f 470/470 471/471 468/468
f 466/466 464/464 470/470
f 464/464 458/458 470/470
f 466/466 467/467 464/464
f 467/467 465/465 464/464
f 472/472 474/474 473/473
f 474/474 475/475 473/473
f 472/472 457/457 474/474
f 457/457 459/459 474/474
f 472/472 470/470 457/457
f 470/470 458/458 457/457
f 472/472 473/473 470/470
f 473/473 471/471 470/470
f 476/476 478/478 477/477
f 478/478 479/479 477/477
f 476/476 480/480 478/478
f 480/480 481/481 478/478
f 476/476 482/482 480/480
f 482/482 483/483 480/480
f 476/476 477/477 482/482
f 477/477 484/484 482/482
f 485/485 487/487 486/486
f 487/487 488/488 486/486
f 485/485 489/489 487/487
f 489/489 490/490 487/487
f 485/485 480/480 489/489
f 480/480 483/483 489/489
f 485/485 486/486 480/480
f 486/486 481/481 480/480
f 491/491 493/493 492/492
f 493/493 494/494 492/492
f 491/491 495/495 493/493
f 495/495 496/496 493/493
f 491/491 489/489 495/495
f 489/489 483/483 495/495
f 491/491 492/492 489/489
f 492/492 490/490 489/489
f 497/497 499/499 498/498
f 499/499 500/500 498/498
f 497/497 482/482 499/499
f 482/482 484/484 499/499
f 497/497 495/495 482/482
f 495/495 483/483 482/482
f 497/497 498/498 495/495
f 498/498 496/496 495/495
f 501/501 503/503 502/502
f 503/503 504/504 502/502
f 501/501 505/505 503/503
f 505/505 506/506 503/503
f 501/501 507/507 505/505
f 507/507 508/508 505/505
f 501/501 502/502 507/507
f 502/502 509/509 507/507
f 510/510 512/512 511/511
f 512/512 513/513 511/511
f 510/510 514/514 512/512
f 514/514 515/515 512/512
f 510/510 505/505 514/514
f 505/505 508/508 514/514
f 510/510 511/511 505/505
f 511/511 506/506 505/505
f 516/516 518/518 517/517
f 518/518 519/519 517/517
f 516/516 520/520 518/518
f 520/520 521/521 518/518
f 516/516 514/514 520/520
f 514/514 508/508 520/520
f 516/516 517/517 514/514
f 517/517 515/515 514/514
f 522/522 524/524 523/523
f 524/524 525/525 523/523
f 522/522 507/507 524/524
f 507/507 509/509 524/524
f 522/522 520/520 507/507
f 520/520 508/508 507/507
f 522/522 523/523 520/520
f 523/523 521/521 520/520
f 526/526 528/528 527/527
f 528/528 529/529 527/527
f 526/526 530/530 528/528
f 530/530 531/531 528/528
f 526/526 532/532 530/530
f 532/532 533/533 530/530
f 526/526 527/527 532/532
f 527/527 534/534 532/532
f 535/535 537/537 536/536
f 537/537 538/538 536/536
f 535/535 539/539 537/537
f 539/539 540/540 537/537
f 535/535 530/530 539/539
f 530/530 533/533 539/539
f 535/535 536/536 530/530
f 536/536 531/531 530/530
f 541/541 543/543 542/542
f 543/543 544/544 542/542
f 541/541 545/545 543/543
f 545/545 546/546 543/543
f 541/541 539/539 545/545
f 539/539 533/533 545/545
f 541/541 542/542 539/539
f 542/542 540/540 539/539
f 547/547 549/549 548/548
f 549/549 550/550 548/548
f 547/547 532/532 549/549
f 532/532 534/534 549/549
f 547/547 545/545 532/532
f 545/545 533/533 532/532
f 547/547 548/548 545/545
f 548/548 546/546 545/545
f 551/551 553/553 552/552
f 553/553 554/554 552/552
f 551/551 555/555 553/553
f 555/555 556/556 553/553
f 551/551 557/557 555/555
f 557/557 558/558 555/555
f 551/551 552/552 557/557
f 552/552 559/559 557/557
f 560/560 562/562 561/561
f 562/562 563/563 561/561
f 560/560 564/564 562/562
f 564/564 565/565 562/562
f 560/560 555/555 564/564
f 555/555 558/558 564/564
f 560/560 561/561 555/555
f 561/561 556/556 555/555
f 566/566 568/568 567/567
f 568/568 569/569 567/567
f 566/566 570/570 568/568
f 570/570 571/571 568/568
f 566/566 564/564 570/570
f 564/564 558/558 570/570
f 566/566 567/567 564/564
f 567/567 565/565 564/564
f 572/572 574/574 573/573
f 574/574 575/575 573/573
f 572/572 557/557 574/574
f 557/557 559/559 574/574
f 572/572 570/570 557/557
f 570/570 558/558 557/557
f 572/572 573/573 570/570
f 573/573 571/571 570/570
f 576/576 578/578 577/577
f 578/578 579/579 577/577
f 576/576 580/580 578/578
f 580/580 581/581 578/578
f 576/576 582/582 580/580
f 582/582 583/583 580/580
f 576/576 577/577 582/582
f 577/577 584/584 582/582
f 585/585 587/587 586/586
f 587/587 588/588 586/586
f 585/585 589/589 587/587
f 589/589 590/590 587/587
f 585/585 580/580 589/589
f 580/580 583/583 589/589
f 585/585 586/586 580/580
f 586/586 581/581 580/580
f 591/591 593/593 592/592
f 593/593 594/594 592/592
f 591/591 595/595 593/593
f 595/595 596/596 593/593
f 591/591 589/589 595/595
f 589/589 583/583 595/595
f 591/591 592/592 589/589
f 592/592 590/590 589/589
f 597/597 599/599 598/598
f 599/599 600/600 598/598
f 597/597 582/582 599/599
f 582/582 584/584 599/599
f 597/597 595/595 582/582
f 595/595 583/583 582/582
f 597/597 598/598 595/595
f 598/598 596/596 595/595
